<svg xmlns="http://www.w3.org/2000/svg" xmlns:xlink="http://www.w3.org/1999/xlink" xmlns:inkscape="http://www.inkscape.org/namespaces/inkscape" version="1.1" width="432" height="191" viewBox="0 0 432 191">
<defs>
<clipPath id="clip_1">
<path d="M21 20.879H81V132.238H21Z"/>
</clipPath>
<clipPath id="clip_2">
<path d="M21 20.879H139V132.238H21Z"/>
</clipPath>
<clipPath id="clip_3">
<path d="M21 20.879H196V132.238H21Z"/>
</clipPath>
<path id="font_4_1" d="M.041503908 .35327149C.041503908 .43784587 .05021159 .50591537 .06762695 .55747988 .08504232 .6090444 .11092123 .6488139 .14526367 .67678835 .17960613 .70476278 .22281902 .71875 .27490235 .71875 .3133138 .71875 .34700523 .711024 .37597657 .6955719 .4049479 .6801198 .4288737 .6578369 .4477539 .62872317 .46663413 .5996094 .4814453 .56414797 .4921875 .52233889 .5029297 .48053996 .5083008 .42418418 .5083008 .35327149 .5083008 .26934815 .49967448 .2016042 .48242188 .15003968 .46516929 .098475139 .43937174 .058624269 .4050293 .03048706 .37068687 .0023498536 .3273112-.01171875 .27490235-.01171875 .20589192-.01171875 .1516927 .013005574 .11230469 .062454225 .065104167 .12198385 .041503908 .21892293 .041503908 .35327149M.13183594 .35351563C.13183594 .23639934 .14558919 .15845235 .1730957 .11967468 .20060222 .08090719 .23453777 .061523439 .27490235 .061523439 .31526695 .061523439 .34920249 .08098856 .37670899 .11991882 .40421549 .15884908 .41796876 .23671468 .41796876 .35351563 .41796876 .47095744 .40421549 .5489807 .37670899 .58758547 .34920249 .6262004 .3149414 .6455078 .27392579 .6455078 .2335612 .6455078 .20133464 .62847396 .1772461 .5944061 .14697266 .5509288 .13183594 .47063194 .13183594 .35351563Z"/>
<path id="font_4_2" d="M.09082031 0V.10058594H.19091797V0H.09082031Z"/>
<path id="font_4_3" d="M.50341799 .084472659V0H.030273438C.029622397 .021148682 .033040365 .041483564 .040527345 .06100464 .052571615 .09321085 .07185873 .124928798 .09838867 .15615845 .12491862 .1873881 .1632487 .22350057 .2133789 .26449586 .29117839 .3282369 .34375 .37872825 .37109376 .41596986 .3984375 .45321147 .41210938 .48841859 .41210938 .5215912 .41210938 .5563914 .3996582 .5857442 .37475587 .60964968 .34985353 .6335551 .3173828 .6455078 .27734376 .6455078 .23502605 .6455078 .20117188 .6328125 .17578125 .6074219 .15039063 .58203127 .13753255 .546875 .13720703 .5019531L.046875 .5112457C.053059896 .5787811 .07633463 .630249 .11669922 .6656494 .1570638 .7010498 .21126302 .71875 .27929688 .71875 .34798179 .71875 .40234376 .69970199 .4423828 .66160586 .48242188 .6235097 .5024414 .57629397 .5024414 .5199585 .5024414 .4913025 .49658204 .46313478 .48486329 .43545533 .47314454 .40777589 .45369468 .3786316 .42651368 .34802247 .39933268 .3174235 .35416667 .27542115 .29101563 .22201538 .23828125 .17779541 .20442708 .14779663 .18945313 .13201905 .17447917 .116251628 .16210938 .10040283 .15234375 .084472659H.50341799Z"/>
<path id="font_4_4" d="M.3232422 0V.17138672H.0126953129V.25195313L.33935548 .7158203H.4111328V.25195313H.5078125V.17138672H.4111328V0H.3232422M.3232422 .25195313V.57470706L.099121097 .25195313H.3232422Z"/>
<path id="font_4_5" d="M.4975586 .5400543 .41015626 .5332031C.40234376 .5675557 .39127604 .59251406 .37695313 .608078 .3531901 .6330312 .32389323 .6455078 .2890625 .6455078 .26106773 .6455078 .23649089 .637736 .21533203 .6221924 .18766277 .602122 .16585286 .57282 .14990235 .5342865 .13395183 .49575297 .12565105 .4408671 .125 .3696289 .14615886 .40185548 .17203777 .42578126 .20263672 .44140626 .23323567 .45703126 .26529948 .46484376 .29882813 .46484376 .35742188 .46484376 .40730796 .44327799 .44848634 .40014649 .4896647 .35701499 .5102539 .30126954 .5102539 .23291016 .5102539 .18798828 .50056967 .14624024 .48120118 .107666019 .46183268 .0690918 .43522135 .03955078 .4013672 .019042969 .36751304-.0014648438 .32910157-.01171875 .2861328-.01171875 .21289063-.01171875 .15315755 .015197754 .106933597 .06903076 .060709638 .12287394 .037597658 .2116038 .037597658 .33522035 .037597658 .47347514 .06315104 .57399496 .11425781 .6367798 .15885417 .6914266 .21891277 .71875 .2944336 .71875 .3507487 .71875 .39689128 .70292159 .43286134 .67126467 .4688314 .6396077 .49039714 .595871 .4975586 .5400543M.13867188 .23287964C.13867188 .20269776 .1451009 .17381287 .15795899 .14622498 .17081706 .118637088 .18880208 .09762064 .21191406 .08317566 .23502605 .068740848 .25927735 .061523439 .28466798 .061523439 .32177735 .061523439 .35367839 .07645162 .3803711 .10630798 .4070638 .13616435 .42041017 .17673238 .42041017 .22801209 .42041017 .27734886 .40722657 .31621299 .38085938 .3446045 .3544922 .3730062 .32128907 .38720704 .28125 .38720704 .24153646 .38720704 .20784505 .3730062 .18017578 .3446045 .15250652 .31621299 .13867188 .27897135 .13867188 .23287964Z"/>
<path id="font_4_6" d="M.17675781 .38916017C.14029949 .40246583 .11328125 .42145286 .095703128 .44612123 .078125 .47078959 .06933594 .5003255 .06933594 .534729 .06933594 .5866597 .08805338 .63031008 .12548828 .66567996 .16292317 .70106 .21272786 .71875 .27490235 .71875 .33740235 .71875 .3876953 .7006531 .42578126 .6644592 .4638672 .6282756 .48291017 .5842183 .48291017 .5322876 .48291017 .4991862 .47420249 .4703827 .4567871 .44587709 .43937174 .42137147 .4129232 .40246583 .3774414 .38916017 .42138673 .3748169 .45483399 .3516744 .4777832 .31973268 .5007324 .28780113 .51220706 .24966939 .51220706 .20533753 .51220706 .1440684 .4905599 .09257507 .44726563 .050857545 .40397135 .009140015 .34700523-.01171875 .2763672-.01171875 .20572917-.01171875 .14876302 .009221395 .10546875 .051101686 .06217448 .09298197 .040527345 .14521282 .040527345 .20779419 .040527345 .25439454 .052327474 .29342143 .075927738 .32487489 .09952799 .35632835 .13313802 .37775675 .17675781 .38916017M.15917969 .53707888C.15917969 .5035197 .17008464 .47608949 .19189453 .4547882 .21370442 .4334971 .24202474 .42285157 .27685548 .42285157 .31070964 .42285157 .3384603 .4334208 .36010743 .45455934 .38175456 .47569786 .39257813 .501592 .39257813 .5322418 .39257813 .5641937 .38142906 .5910594 .35913087 .61283877 .33683268 .6346181 .30908204 .6455078 .2758789 .6455078 .24235027 .6455078 .21451824 .6348572 .19238281 .6135559 .17024739 .59226486 .15917969 .56677249 .15917969 .53707888M.13085938 .20776367C.13085938 .18273926 .13680013 .15852864 .14868164 .13513184 .16056316 .11173502 .17822266 .09361776 .20166016 .08078003 .22509766 .0679423 .25032554 .061523439 .27734376 .061523439 .31933595 .061523439 .3540039 .07500712 .38134767 .10197449 .4086914 .12895203 .42236329 .16323853 .42236329 .20483399 .42236329 .24708049 .40828453 .28201295 .38012696 .30963136 .3519694 .33725993 .31673179 .35107423 .27441407 .35107423 .23307292 .35107423 .19881185 .3374227 .17163086 .31011964 .14444988 .28282676 .13085938 .24870809 .13085938 .20776367Z"/>
<path id="font_4_7" d="M.3725586 0H.28466798V.5600586C.26350913 .5398763 .23575847 .51969406 .20141602 .49951173 .16707357 .47932945 .13623047 .46419273 .10888672 .45410157V.5390625C.15804036 .5621745 .20100911 .59016928 .23779297 .6230469 .2745768 .6559245 .3006185 .6878255 .31591798 .71875H.3725586V0Z"/>
<path id="font_4_8" d="M.030761719 .15527344 .11767578 .16894531C.122558597 .13426717 .1361491 .107691448 .15844727 .08921814 .18074544 .070755008 .21191406 .061523439 .25195313 .061523439 .29231773 .061523439 .32226563 .06967672 .34179688 .08598328 .36132813 .10230001 .37109376 .12143453 .37109376 .14338684 .37109376 .16309102 .36246745 .17859395 .34521485 .18989563 .33317057 .1976471 .30322267 .20749919 .2553711 .2194519 .19091797 .23573812 .14624024 .24982707 .12133789 .26171876 .09643555 .27361045 .077555339 .29006449 .064697269 .31108094 .05183919 .33209739 .045410158 .35531108 .045410158 .38072206 .045410158 .40385438 .05069987 .4252777 .061279298 .44499208 .07185873 .46470643 .08626302 .4810791 .10449219 .4941101 .11816406 .5042114 .13680013 .5127614 .16040039 .51976016 .18400066 .526769 .20930989 .53027346 .23632813 .53027346 .27701823 .53027346 .31274415 .52437338 .34350587 .51257327 .37426759 .50078329 .39697267 .48480735 .4116211 .4646454 .42626954 .44449363 .4363607 .4175415 .44189454 .38378907L.35595704 .3720703C.35205079 .39876304 .34073893 .41959635 .32202149 .4345703 .30330406 .44954429 .27685548 .45703126 .24267578 .45703126 .2023112 .45703126 .17350261 .45038859 .15625 .43710328 .13899739 .42382813 .1303711 .40827943 .1303711 .39045716 .1303711 .37912498 .13395183 .3689219 .14111328 .35984803 .14827474 .35045878 .1595052 .34268699 .17480469 .3365326 .18359375 .33328758 .20947266 .32583619 .2524414 .31417848 .31461589 .29758708 .35799156 .28400675 .38256837 .2734375 .40714518 .26286827 .42643229 .24749756 .4404297 .22732544 .4544271 .2071635 .46142579 .18212383 .46142579 .15220642 .46142579 .12292989 .45288087 .09536234 .43579103 .069503787 .41870118 .043655397 .39404298 .02365621 .3618164 .009506226 .32958985-.0046437585 .2931315-.01171875 .2524414-.01171875 .1850586-.01171875 .13370769 .002319336 .09838867 .030395508 .063069667 .05847168 .040527345 .100097659 .030761719 .15527344Z"/>
<path id="font_4_9" d="M.041992189 .19042969 .12988281 .20214844C.13997396 .15234375 .15714519 .11645508 .18139649 .09448242 .20564778 .072509769 .2351888 .061523439 .27001954 .061523439 .3113607 .061523439 .3462728 .07582092 .37475587 .10441589 .40323893 .13301087 .41748048 .1684316 .41748048 .2106781 .41748048 .25098167 .40429688 .2842102 .3779297 .31036378 .3515625 .3365275 .31803385 .34960938 .27734376 .34960938 .2607422 .34960938 .24007161 .34635417 .21533203 .33984376L.22509766 .4169922C.23095703 .41634117 .23567708 .41601563 .23925781 .41601563 .27669273 .41601563 .31038413 .42569987 .34033204 .44506837 .37027995 .46443687 .3852539 .4942932 .3852539 .53463748 .3852539 .56658938 .37434898 .59305319 .35253907 .61402896 .33072917 .63501486 .30257163 .6455078 .2680664 .6455078 .23388672 .6455078 .20540364 .6347656 .18261719 .61328127 .15983074 .5917969 .1451823 .5595703 .13867188 .51660159L.05078125 .53222659C.061523439 .591451 .0859375 .63734439 .12402344 .6699066 .16210938 .7024689 .20947266 .71875 .26611329 .71875 .30517579 .71875 .34114585 .71039327 .37402345 .6936798 .40690104 .67696639 .43204753 .6541646 .4494629 .62527468 .46687828 .59639486 .47558595 .5657247 .47558595 .53326418 .47558595 .5024312 .46728517 .47435508 .4506836 .44903565 .43408204 .4237264 .40950523 .40360514 .37695313 .38867188 .41927085 .37890626 .45214845 .35864259 .47558595 .32788087 .49902345 .29711915 .5107422 .2586263 .5107422 .21240235 .5107422 .14990235 .48795573 .09692383 .4423828 .053466798 .3968099 .010009766 .33919273-.01171875 .26953126-.01171875 .20670574-.01171875 .15454102 .007044474 .11303711 .044570924 .0715332 .082097377 .047851564 .13071697 .041992189 .19042969Z"/>
<path id="font_5_1" d="M.27783204 .7158203 .07080078-.023925782H0L.20703125 .7158203H.27783204Z"/>
<path id="font_6_1" d="M-.010253906-.19921875 .13964844 .5185547H.2211914L.20605469 .44628907C.23632813 .4778646 .26342774 .49975587 .28735353 .5119629 .3112793 .5241699 .33658854 .53027346 .36328126 .53027346 .4127604 .53027346 .45377604 .5122884 .48632813 .47631837 .5188802 .4403483 .53515627 .38883464 .53515627 .32177735 .53515627 .26774089 .5262044 .21850586 .5083008 .17407227 .49039714 .12963867 .46842448 .09391276 .4423828 .06689453 .41634117 .0398763 .38997398 .020019532 .36328126 .0073242189 .33658854-.0053710939 .30924479-.01171875 .28125-.01171875 .21907552-.01171875 .17089844 .019856772 .13671875 .08300781L.078125-.19921875H-.010253906M.16455078 .21200562C.16455078 .17324829 .1673177 .14637757 .17285156 .13139344 .18098958 .1102244 .19433594 .09312439 .21289063 .080093387 .23144531 .06706238 .2529297 .060546876 .27734376 .060546876 .328125 .060546876 .36914063 .08911133 .40039063 .14624024 .43164063 .20336914 .44726563 .26171876 .44726563 .32128907 .44726563 .36523438 .43676759 .39916993 .41577149 .4230957 .3947754 .44702149 .36865235 .45898438 .33740235 .45898438 .3149414 .45898438 .29410807 .4530436 .27490235 .4411621 .25569663 .42929078 .23787435 .41156007 .22143555 .38796998 .20499675 .36437989 .19140625 .3355001 .18066406 .30133058 .16992188 .26716105 .16455078 .23738607 .16455078 .21200562Z"/>
<path id="font_6_2" d="M.041503908 .17675781 .12988281 .18261719C.12988281 .15722656 .13378906 .13557942 .14160156 .11767578 .14941406 .09977213 .16381836 .085123699 .18481446 .07373047 .20581055 .06233724 .23030599 .056640626 .25830079 .056640626 .29736329 .056640626 .32666017 .064453128 .3461914 .080078128 .36572267 .095703128 .37548829 .114095058 .37548829 .1352539 .37548829 .15055339 .3696289 .16503906 .35791017 .17871094 .34586589 .19238281 .31648765 .20922852 .2697754 .22924805 .22306316 .24926758 .19319661 .26334635 .18017578 .27148438 .15836589 .28483073 .14192708 .3005371 .13085938 .31860353 .119791667 .33666993 .11425781 .35742188 .11425781 .38085938 .11425781 .421875 .13053386 .45703126 .16308594 .48632813 .19563802 .515625 .24121094 .53027346 .2998047 .53027346 .36490885 .53027346 .4144694 .5152181 .44848634 .48510743 .48250328 .45499674 .5001628 .4153646 .50146487 .36621095L.41503907 .36035157C.41373698 .39160157 .40266929 .41634117 .38183595 .4345703 .3610026 .45279948 .33154298 .46191407 .29345704 .46191407 .26285807 .46191407 .23909505 .45491538 .22216797 .44091798 .20524089 .42692057 .19677735 .41178385 .19677735 .3955078 .19677735 .37923179 .20410156 .36490885 .21875 .35253907 .22851563 .34407554 .2537435 .3310547 .2944336 .31347657 .36214195 .2841797 .40478517 .26106773 .42236329 .24414063 .45035807 .21712239 .46435548 .1842448 .46435548 .14550781 .46435548 .119791667 .45646159 .094563808 .44067384 .06982422 .42488609 .045084638 .40079753 .025309245 .3684082 .010498047 .3360189-.004313151 .29785157-.01171875 .25390626-.01171875 .19401042-.01171875 .1430664 .0030517579 .10107422 .032592775 .05908203 .062143964 .03922526 .110198978 .041503908 .17675781Z"/>
<path id="font_5_2" d="M.4453125 .27197267C.4202474 .26383464 .39501954 .25716148 .3696289 .25195313 .34423829 .2467448 .31852214 .24235027 .29248048 .23876953 .31201173 .22086589 .33032228 .20214844 .3474121 .18261719 .36450196 .16308594 .3816732 .14322917 .39892579 .123046878L.32470704 .07080078C.30940757 .09195963 .29492188 .11344401 .28125 .1352539 .26757813 .1570638 .25423179 .17936199 .24121094 .20214844 .22949219 .17936199 .21712239 .15698242 .20410156 .13500977 .19108074 .11303711 .17675781 .09163412 .16113281 .07080078L.08984375 .123046878C.09798177 .1328125 .10595703 .14290364 .11376953 .15332031 .12158203 .16373699 .1295573 .1739095 .13769531 .18383789 .14583333 .19376628 .1542155 .20345052 .1628418 .21289063 .1714681 .22233074 .18098958 .23095703 .19140625 .23876953 .16601563 .24365235 .14095052 .2487793 .11621094 .2541504 .09147135 .25952149 .06656901 .26546226 .041503908 .27197267L.0703125 .359375C.09440104 .35058595 .1184082 .34187828 .14233399 .33325196 .16625977 .32462565 .18929036 .31347657 .21142578 .2998047 .2084961 .3251953 .20572917 .35050456 .203125 .37573243 .20052083 .4009603 .19921875 .42643229 .19921875 .45214845H.2866211C.2866211 .42643229 .28564454 .4009603 .2836914 .37573243 .28173829 .35050456 .27799479 .32552085 .27246095 .30078126 .2955729 .31217448 .31925456 .32267253 .34350587 .3322754 .36775718 .34187828 .39208985 .35091148 .4165039 .359375L.4453125 .27197267Z"/>
<clipPath id="clip_7">
<path d="M234 20.879H294V131H234Z"/>
</clipPath>
<clipPath id="clip_8">
<path d="M234 20.879H351V131H234Z"/>
</clipPath>
<clipPath id="clip_9">
<path d="M234 20.879H409V131H234Z"/>
</clipPath>
<clipPath id="clip_10">
<path d="M148 178H162.48V181H148Z"/>
</clipPath>
<path id="font_4_10" d="M.40234376 0V.06542969C.36946617 .0139973959 .3211263-.01171875 .25732423-.01171875 .21598308-.01171875 .17797852-.00032552085 .14331055 .022460938 .10864258 .045247396 .08178711 .077067058 .06274414 .11791992 .043701173 .15877278 .034179689 .20572917 .034179689 .25878907 .034179689 .31054688 .04280599 .35750328 .060058595 .3996582 .077311199 .44181315 .1031901 .4741211 .13769531 .49658204 .17220052 .51904299 .21077474 .53027346 .25341798 .53027346 .28466798 .53027346 .3125 .52368167 .33691407 .51049807 .36132813 .49731446 .3811849 .48014323 .39648438 .45898438V.7158203H.48388673V0H.40234376M.12451172 .2590332C.12451172 .1928711 .13850911 .14341228 .1665039 .11065674 .1944987 .07790121 .22753906 .061523439 .265625 .061523439 .30403648 .061523439 .33666993 .077168788 .3635254 .10845947 .39038087 .13976033 .4038086 .18752034 .4038086 .2517395 .4038086 .32243858 .39013673 .3743286 .36279298 .40740968 .33544923 .44049073 .3017578 .45703126 .26171876 .45703126 .22265625 .45703126 .19002278 .4411367 .16381836 .40934754 .13761394 .37756858 .12451172 .32746379 .12451172 .2590332Z"/>
<path id="font_5_3" d="M.5288086 .32714845H.05517578V.4091797H.5288086V.32714845M.5288086 .109375H.05517578V.19140625H.5288086V.109375Z"/>
<clipPath id="clip_11">
<path d="M195.602 178H210.239V181H195.602Z"/>
</clipPath>
<clipPath id="clip_12">
<path d="M243.121 178H257.762V181H243.121Z"/>
</clipPath>
</defs>
<g>
<g clip-path="url(#clip_1)">
<path stroke-width="1.44" stroke-linecap="square" stroke-miterlimit="3.25" stroke-linejoin="miter" fill="none" stroke="#5e81b5" d="M22.313 21.102 22.332 21.137 22.383 21.238 22.453 21.375 22.594 21.645 22.879 22.191 23.441 23.281 24.664 25.641 25.805 27.848 26.926 30.008 28.141 32.355 29.273 34.543 30.5 36.914 31.707 39.242 32.832 41.414 34.051 43.77 35.191 45.969 36.305 48.125 37.516 50.465 38.648 52.648 39.871 55.012 41.074 57.336 42.195 59.5 43.41 61.852 44.547 64.043 45.777 66.418 46.984 68.75 48.113 70.926 49.332 73.285 50.473 75.488 51.594 77.648 52.805 79.992 53.938 82.18 55.164 84.547 56.367 86.875 57.492 89.043 58.711 91.395 59.848 93.594 60.961 95.746 62.172 98.082 63.301 100.262 64.523 102.625 65.668 104.832 66.785 106.996 68.004 109.344 69.137 111.531 70.363 113.906 71.57 116.234 72.695 118.41 73.918 120.766 75.055 122.969 76.172 125.125 77.387 127.465 78.516 129.648 78.555 129.727 78.594 129.801 78.672 129.953 78.832 130.258 79.148 130.867 79.188 130.945 79.227 131.02 79.461 131.477 79.48 131.516 79.504 131.555 79.543 131.629 79.621 131.781 79.66 131.859 79.699 131.934 79.738 132.012 79.758 132.047 79.777 132.086"/>
</g>
<g clip-path="url(#clip_2)">
<path stroke-width="1.44" stroke-linecap="square" stroke-miterlimit="3.25" stroke-linejoin="miter" fill="none" stroke="#e19c24" d="M22.313 21.102 22.348 21.137 22.383 21.168 22.453 21.238 22.594 21.375 22.879 21.645 23.441 22.191 24.57 23.281 27.016 25.641 29.297 27.848 31.539 30.008 33.965 32.355 36.234 34.543 38.688 36.914 41.102 39.242 43.348 41.414 45.789 43.77 48.066 45.969 50.297 48.125 52.719 50.465 54.98 52.648 57.43 55.012 59.836 57.336 62.078 59.5 64.512 61.852 66.781 64.043 69.242 66.418 71.656 68.75 73.91 70.926 76.352 73.285 78.633 75.488 80.871 77.648 83.297 79.992 85.559 82.18 88.016 84.547 90.422 86.875 92.668 89.043 95.105 91.395 97.383 93.594 99.609 95.746 102.031 98.082 104.289 100.262 106.734 102.625 109.02 104.832 111.262 106.996 113.691 109.344 115.957 111.531 118.418 113.906 120.828 116.234 123.082 118.41 125.52 120.766 127.801 122.969 130.035 125.125 132.457 127.465 134.719 129.648 134.797 129.727 134.875 129.801 135.035 129.953 135.348 130.258 135.98 130.867 136.059 130.945 136.137 131.02 136.297 131.172 136.613 131.477 136.691 131.555 136.77 131.629 136.926 131.781 136.965 131.82 137.008 131.859 137.086 131.934 137.164 132.012 137.203 132.047 137.242 132.086"/>
</g>
<g clip-path="url(#clip_3)">
<path stroke-width="1.44" stroke-linecap="square" stroke-miterlimit="3.25" stroke-linejoin="miter" fill="none" stroke="#8fb032" d="M22.313 21.102 22.367 21.137 22.418 21.168 22.523 21.238 22.738 21.375 23.16 21.645 24.004 22.191 25.699 23.281 29.367 25.641 32.793 27.848 36.148 30.008 39.793 32.355 43.191 34.543 46.875 36.914 50.492 39.242 53.867 41.414 57.527 43.77 60.941 45.969 64.289 48.125 67.922 50.465 71.313 52.648 74.988 55.012 78.594 57.336 81.961 59.5 85.609 61.852 89.016 64.043 92.703 66.418 96.328 68.75 99.707 70.926 103.371 73.285 106.793 75.488 110.148 77.648 113.789 79.992 117.184 82.18 120.863 84.547 124.477 86.875 127.848 89.043 131.504 91.395 134.914 93.594 138.258 95.746 141.887 98.082 145.273 100.262 148.945 102.625 152.375 104.832 155.734 106.996 159.379 109.344 162.781 111.531 166.469 113.906 170.086 116.234 173.465 118.41 177.125 120.766 180.543 122.969 183.895 125.125 187.527 127.465 190.922 129.648 191.039 129.727 191.156 129.801 191.395 129.953 192.813 130.867 192.875 130.906 192.934 130.945 193.051 131.02 193.289 131.172 193.762 131.477 193.879 131.555 193.996 131.629 194.234 131.781 194.352 131.859 194.473 131.934 194.59 132.012 194.648 132.047 194.707 132.086"/>
</g>
<path stroke-width=".36" stroke-linecap="butt" stroke-miterlimit="3.25" stroke-linejoin="miter" fill="none" stroke="#000000" d="M22.313 132.086V129.969"/>
<use data-text="0" xlink:href="#font_4_1" transform="matrix(6.5,0,0,-6.5,17.795588,140.1126)"/>
<use data-text="." xlink:href="#font_4_2" transform="matrix(6.5,0,0,-6.5,21.409588,140.1126)"/>
<use data-text="0" xlink:href="#font_4_1" transform="matrix(6.5,0,0,-6.5,23.210089,140.1126)"/>
<path stroke-width=".36" stroke-linecap="butt" stroke-miterlimit="3.25" stroke-linejoin="miter" fill="none" stroke="#000000" d="M28.059 132.086V130.816"/>
<path stroke-width=".36" stroke-linecap="butt" stroke-miterlimit="3.25" stroke-linejoin="miter" fill="none" stroke="#000000" d="M33.805 132.086V130.816"/>
<path stroke-width=".36" stroke-linecap="butt" stroke-miterlimit="3.25" stroke-linejoin="miter" fill="none" stroke="#000000" d="M39.555 132.086V130.816"/>
<path stroke-width=".36" stroke-linecap="butt" stroke-miterlimit="3.25" stroke-linejoin="miter" fill="none" stroke="#000000" d="M45.301 132.086V129.969"/>
<use data-text="0" xlink:href="#font_4_1" transform="matrix(6.5,0,0,-6.5,40.781438,140.1126)"/>
<use data-text="." xlink:href="#font_4_2" transform="matrix(6.5,0,0,-6.5,44.39544,140.1126)"/>
<use data-text="2" xlink:href="#font_4_3" transform="matrix(6.5,0,0,-6.5,46.19594,140.1126)"/>
<path stroke-width=".36" stroke-linecap="butt" stroke-miterlimit="3.25" stroke-linejoin="miter" fill="none" stroke="#000000" d="M51.047 132.086V130.816"/>
<path stroke-width=".36" stroke-linecap="butt" stroke-miterlimit="3.25" stroke-linejoin="miter" fill="none" stroke="#000000" d="M56.793 132.086V130.816"/>
<path stroke-width=".36" stroke-linecap="butt" stroke-miterlimit="3.25" stroke-linejoin="miter" fill="none" stroke="#000000" d="M62.539 132.086V130.816"/>
<path stroke-width=".36" stroke-linecap="butt" stroke-miterlimit="3.25" stroke-linejoin="miter" fill="none" stroke="#000000" d="M68.285 132.086V129.969"/>
<use data-text="0" xlink:href="#font_4_1" transform="matrix(6.5,0,0,-6.5,63.767286,140.1126)"/>
<use data-text="." xlink:href="#font_4_2" transform="matrix(6.5,0,0,-6.5,67.38129,140.1126)"/>
<use data-text="4" xlink:href="#font_4_4" transform="matrix(6.5,0,0,-6.5,69.181789,140.1126)"/>
<path stroke-width=".36" stroke-linecap="butt" stroke-miterlimit="3.25" stroke-linejoin="miter" fill="none" stroke="#000000" d="M74.031 132.086V130.816"/>
<path stroke-width=".36" stroke-linecap="butt" stroke-miterlimit="3.25" stroke-linejoin="miter" fill="none" stroke="#000000" d="M79.777 132.086V130.816"/>
<path stroke-width=".36" stroke-linecap="butt" stroke-miterlimit="3.25" stroke-linejoin="miter" fill="none" stroke="#000000" d="M85.523 132.086V130.816"/>
<path stroke-width=".36" stroke-linecap="butt" stroke-miterlimit="3.25" stroke-linejoin="miter" fill="none" stroke="#000000" d="M91.27 132.086V129.969"/>
<use data-text="0" xlink:href="#font_4_1" transform="matrix(6.5,0,0,-6.5,86.75313,140.1126)"/>
<use data-text="." xlink:href="#font_4_2" transform="matrix(6.5,0,0,-6.5,90.36713,140.1126)"/>
<use data-text="6" xlink:href="#font_4_5" transform="matrix(6.5,0,0,-6.5,92.167629,140.1126)"/>
<path stroke-width=".36" stroke-linecap="butt" stroke-miterlimit="3.25" stroke-linejoin="miter" fill="none" stroke="#000000" d="M97.016 132.086V130.816"/>
<path stroke-width=".36" stroke-linecap="butt" stroke-miterlimit="3.25" stroke-linejoin="miter" fill="none" stroke="#000000" d="M102.766 132.086V130.816"/>
<path stroke-width=".36" stroke-linecap="butt" stroke-miterlimit="3.25" stroke-linejoin="miter" fill="none" stroke="#000000" d="M108.512 132.086V130.816"/>
<path stroke-width=".36" stroke-linecap="butt" stroke-miterlimit="3.25" stroke-linejoin="miter" fill="none" stroke="#000000" d="M114.258 132.086V129.969"/>
<use data-text="0" xlink:href="#font_4_1" transform="matrix(6.5,0,0,-6.5,109.738979,140.1126)"/>
<use data-text="." xlink:href="#font_4_2" transform="matrix(6.5,0,0,-6.5,113.352977,140.1126)"/>
<use data-text="8" xlink:href="#font_4_6" transform="matrix(6.5,0,0,-6.5,115.15347,140.1126)"/>
<path stroke-width=".36" stroke-linecap="butt" stroke-miterlimit="3.25" stroke-linejoin="miter" fill="none" stroke="#000000" d="M120.004 132.086V130.816"/>
<path stroke-width=".36" stroke-linecap="butt" stroke-miterlimit="3.25" stroke-linejoin="miter" fill="none" stroke="#000000" d="M125.75 132.086V130.816"/>
<path stroke-width=".36" stroke-linecap="butt" stroke-miterlimit="3.25" stroke-linejoin="miter" fill="none" stroke="#000000" d="M131.496 132.086V130.816"/>
<path stroke-width=".36" stroke-linecap="butt" stroke-miterlimit="3.25" stroke-linejoin="miter" fill="none" stroke="#000000" d="M137.242 132.086V129.969"/>
<use data-text="1" xlink:href="#font_4_7" transform="matrix(6.5,0,0,-6.5,132.72483,140.1126)"/>
<use data-text="." xlink:href="#font_4_2" transform="matrix(6.5,0,0,-6.5,136.33882,140.1126)"/>
<use data-text="0" xlink:href="#font_4_1" transform="matrix(6.5,0,0,-6.5,138.13933,140.1126)"/>
<path stroke-width=".36" stroke-linecap="butt" stroke-miterlimit="3.25" stroke-linejoin="miter" fill="none" stroke="#000000" d="M142.988 132.086V130.816"/>
<path stroke-width=".36" stroke-linecap="butt" stroke-miterlimit="3.25" stroke-linejoin="miter" fill="none" stroke="#000000" d="M148.734 132.086V130.816"/>
<path stroke-width=".36" stroke-linecap="butt" stroke-miterlimit="3.25" stroke-linejoin="miter" fill="none" stroke="#000000" d="M154.48 132.086V130.816"/>
<path stroke-width=".36" stroke-linecap="butt" stroke-miterlimit="3.25" stroke-linejoin="miter" fill="none" stroke="#000000" d="M160.23 132.086V129.969"/>
<use data-text="1" xlink:href="#font_4_7" transform="matrix(6.5,0,0,-6.5,155.71068,140.1126)"/>
<use data-text="." xlink:href="#font_4_2" transform="matrix(6.5,0,0,-6.5,159.32468,140.1126)"/>
<use data-text="2" xlink:href="#font_4_3" transform="matrix(6.5,0,0,-6.5,161.12519,140.1126)"/>
<path stroke-width=".36" stroke-linecap="butt" stroke-miterlimit="3.25" stroke-linejoin="miter" fill="none" stroke="#000000" d="M165.977 132.086V130.816"/>
<path stroke-width=".36" stroke-linecap="butt" stroke-miterlimit="3.25" stroke-linejoin="miter" fill="none" stroke="#000000" d="M171.723 132.086V130.816"/>
<path stroke-width=".36" stroke-linecap="butt" stroke-miterlimit="3.25" stroke-linejoin="miter" fill="none" stroke="#000000" d="M177.469 132.086V130.816"/>
<path stroke-width=".36" stroke-linecap="butt" stroke-miterlimit="3.25" stroke-linejoin="miter" fill="none" stroke="#000000" d="M183.215 132.086V129.969"/>
<use data-text="1" xlink:href="#font_4_7" transform="matrix(6.5,0,0,-6.5,178.69652,140.1126)"/>
<use data-text="." xlink:href="#font_4_2" transform="matrix(6.5,0,0,-6.5,182.31052,140.1126)"/>
<use data-text="4" xlink:href="#font_4_4" transform="matrix(6.5,0,0,-6.5,184.11103,140.1126)"/>
<path stroke-width=".36" stroke-linecap="butt" stroke-miterlimit="3.25" stroke-linejoin="miter" fill="none" stroke="#000000" d="M188.961 132.086V130.816"/>
<path stroke-width=".36" stroke-linecap="butt" stroke-miterlimit="3.25" stroke-linejoin="miter" fill="none" stroke="#000000" d="M194.707 132.086V130.816"/>
<path stroke-width=".36" stroke-linecap="butt" stroke-miterlimit="3.25" stroke-linejoin="miter" fill="none" stroke="#000000" d="M18.723 132.086H198.301"/>
<use data-text="s" xlink:href="#font_4_8" transform="matrix(6.5,0,0,-6.5,204.05893,134.33292)"/>
<path stroke-width=".36" stroke-linecap="butt" stroke-miterlimit="3.25" stroke-linejoin="miter" fill="none" stroke="#000000" d="M22.313 132.086H24.43"/>
<path stroke-width=".36" stroke-linecap="butt" stroke-miterlimit="3.25" stroke-linejoin="miter" fill="none" stroke="#000000" d="M22.313 127.648H23.586"/>
<path stroke-width=".36" stroke-linecap="butt" stroke-miterlimit="3.25" stroke-linejoin="miter" fill="none" stroke="#000000" d="M22.313 123.207H23.586"/>
<path stroke-width=".36" stroke-linecap="butt" stroke-miterlimit="3.25" stroke-linejoin="miter" fill="none" stroke="#000000" d="M22.313 118.77H23.586"/>
<path stroke-width=".36" stroke-linecap="butt" stroke-miterlimit="3.25" stroke-linejoin="miter" fill="none" stroke="#000000" d="M22.313 114.328H23.586"/>
<path stroke-width=".36" stroke-linecap="butt" stroke-miterlimit="3.25" stroke-linejoin="miter" fill="none" stroke="#000000" d="M22.313 109.891H24.43"/>
<use data-text="0" xlink:href="#font_4_1" transform="matrix(6.5,0,0,-6.5,11.117644,112.13598)"/>
<use data-text="." xlink:href="#font_4_2" transform="matrix(6.5,0,0,-6.5,14.731645,112.13598)"/>
<use data-text="1" xlink:href="#font_4_7" transform="matrix(6.5,0,0,-6.5,16.532145,112.13598)"/>
<path stroke-width=".36" stroke-linecap="butt" stroke-miterlimit="3.25" stroke-linejoin="miter" fill="none" stroke="#000000" d="M22.313 105.449H23.586"/>
<path stroke-width=".36" stroke-linecap="butt" stroke-miterlimit="3.25" stroke-linejoin="miter" fill="none" stroke="#000000" d="M22.313 101.012H23.586"/>
<path stroke-width=".36" stroke-linecap="butt" stroke-miterlimit="3.25" stroke-linejoin="miter" fill="none" stroke="#000000" d="M22.313 96.57H23.586"/>
<path stroke-width=".36" stroke-linecap="butt" stroke-miterlimit="3.25" stroke-linejoin="miter" fill="none" stroke="#000000" d="M22.313 92.133H23.586"/>
<path stroke-width=".36" stroke-linecap="butt" stroke-miterlimit="3.25" stroke-linejoin="miter" fill="none" stroke="#000000" d="M22.313 87.691H24.43"/>
<use data-text="0" xlink:href="#font_4_1" transform="matrix(6.5,0,0,-6.5,11.117644,89.93905)"/>
<use data-text="." xlink:href="#font_4_2" transform="matrix(6.5,0,0,-6.5,14.731645,89.93905)"/>
<use data-text="2" xlink:href="#font_4_3" transform="matrix(6.5,0,0,-6.5,16.532145,89.93905)"/>
<path stroke-width=".36" stroke-linecap="butt" stroke-miterlimit="3.25" stroke-linejoin="miter" fill="none" stroke="#000000" d="M22.313 83.254H23.586"/>
<path stroke-width=".36" stroke-linecap="butt" stroke-miterlimit="3.25" stroke-linejoin="miter" fill="none" stroke="#000000" d="M22.313 78.813H23.586"/>
<path stroke-width=".36" stroke-linecap="butt" stroke-miterlimit="3.25" stroke-linejoin="miter" fill="none" stroke="#000000" d="M22.313 74.375H23.586"/>
<path stroke-width=".36" stroke-linecap="butt" stroke-miterlimit="3.25" stroke-linejoin="miter" fill="none" stroke="#000000" d="M22.313 69.934H23.586"/>
<path stroke-width=".36" stroke-linecap="butt" stroke-miterlimit="3.25" stroke-linejoin="miter" fill="none" stroke="#000000" d="M22.313 65.496H24.43"/>
<use data-text="0" xlink:href="#font_4_1" transform="matrix(6.5,0,0,-6.5,11.117644,67.74212)"/>
<use data-text="." xlink:href="#font_4_2" transform="matrix(6.5,0,0,-6.5,14.731645,67.74212)"/>
<use data-text="3" xlink:href="#font_4_9" transform="matrix(6.5,0,0,-6.5,16.532145,67.74212)"/>
<path stroke-width=".36" stroke-linecap="butt" stroke-miterlimit="3.25" stroke-linejoin="miter" fill="none" stroke="#000000" d="M22.313 61.055H23.586"/>
<path stroke-width=".36" stroke-linecap="butt" stroke-miterlimit="3.25" stroke-linejoin="miter" fill="none" stroke="#000000" d="M22.313 56.617H23.586"/>
<path stroke-width=".36" stroke-linecap="butt" stroke-miterlimit="3.25" stroke-linejoin="miter" fill="none" stroke="#000000" d="M22.313 52.176H23.586"/>
<path stroke-width=".36" stroke-linecap="butt" stroke-miterlimit="3.25" stroke-linejoin="miter" fill="none" stroke="#000000" d="M22.313 47.738H23.586"/>
<path stroke-width=".36" stroke-linecap="butt" stroke-miterlimit="3.25" stroke-linejoin="miter" fill="none" stroke="#000000" d="M22.313 43.297H24.43"/>
<use data-text="0" xlink:href="#font_4_1" transform="matrix(6.5,0,0,-6.5,11.117644,45.54519)"/>
<use data-text="." xlink:href="#font_4_2" transform="matrix(6.5,0,0,-6.5,14.731645,45.54519)"/>
<use data-text="4" xlink:href="#font_4_4" transform="matrix(6.5,0,0,-6.5,16.532145,45.54519)"/>
<path stroke-width=".36" stroke-linecap="butt" stroke-miterlimit="3.25" stroke-linejoin="miter" fill="none" stroke="#000000" d="M22.313 38.859H23.586"/>
<path stroke-width=".36" stroke-linecap="butt" stroke-miterlimit="3.25" stroke-linejoin="miter" fill="none" stroke="#000000" d="M22.313 34.422H23.586"/>
<path stroke-width=".36" stroke-linecap="butt" stroke-miterlimit="3.25" stroke-linejoin="miter" fill="none" stroke="#000000" d="M22.313 29.98H23.586"/>
<path stroke-width=".36" stroke-linecap="butt" stroke-miterlimit="3.25" stroke-linejoin="miter" fill="none" stroke="#000000" d="M22.313 25.543H23.586"/>
<path stroke-width=".36" stroke-linecap="butt" stroke-miterlimit="3.25" stroke-linejoin="miter" fill="none" stroke="#000000" d="M22.313 132.086V21.102"/>
<use data-text="1" xlink:href="#font_4_7" transform="matrix(6.5,0,0,-6.5,15.202239,15.408574)"/>
<use data-text="/" xlink:href="#font_5_1" transform="matrix(6.5,0,0,-6.5,18.816239,15.408574)"/>
<use data-text="p" xlink:href="#font_6_1" transform="matrix(6.5,0,0,-6.5,20.68174,15.408574)"/>
<use data-text="s" xlink:href="#font_6_2" transform="matrix(4.6,0,0,-4.6,24.304778,16.60125)"/>
<use data-text="*" xlink:href="#font_5_2" transform="matrix(4.3,0,0,-4.3,26.971516,12.71209)"/>
<g clip-path="url(#clip_7)">
<path stroke-width="1.44" stroke-linecap="square" stroke-miterlimit="3.25" stroke-linejoin="miter" fill="none" stroke="#5e81b5" d="M235.324 129.867H235.359L235.395 129.863 235.469 129.859 235.613 129.855 235.898 129.844 236.477 129.824 237.723 129.773 238.887 129.723 240.031 129.672 241.27 129.617 242.426 129.563 243.68 129.496 244.91 129.434 246.059 129.371 247.301 129.297 248.465 129.227 249.602 129.152 250.836 129.066 251.992 128.984 253.242 128.891 254.469 128.789 255.613 128.691 256.852 128.578 258.012 128.465 259.266 128.336 260.5 128.195 261.648 128.059 262.895 127.898 264.059 127.734 265.199 127.563 266.438 127.359 267.594 127.148 268.844 126.906 270.074 126.637 271.219 126.363 272.465 126.031 273.625 125.688 274.762 125.309 275.996 124.84 277.148 124.344 278.395 123.723 279.563 123.047 279.578 123.035 279.598 123.023 279.633 123.004 279.703 122.957 279.848 122.863 280.133 122.672 280.707 122.27 280.723 122.254 280.742 122.238 280.781 122.211 280.859 122.152 281.016 122.031 281.324 121.785 281.945 121.254 281.965 121.238 282.016 121.188 282.09 121.121 282.234 120.988 282.523 120.707 283.102 120.102 283.121 120.078 283.141 120.059 283.18 120.012 283.258 119.926 283.414 119.746 283.73 119.367 283.75 119.344 283.77 119.316 283.809 119.27 284.043 118.965 284.355 118.535 284.512 118.316 284.664 118.086 284.973 117.609 285.012 117.547 285.047 117.484 285.125 117.355 285.281 117.094 285.586 116.543 285.605 116.512 285.625 116.477 285.66 116.41 285.73 116.273 285.875 115.992 286.16 115.398 286.18 115.359 286.199 115.324 286.234 115.246 286.305 115.086 286.449 114.762 286.734 114.074 286.754 114.023 286.773 113.977 286.813 113.879 286.891 113.676 287.047 113.262 287.359 112.375 287.438 112.141 287.516 111.898 287.668 111.398 287.98 110.324 288 110.258 288.016 110.191 288.055 110.055 288.125 109.781 288.273 109.211 288.563 107.98 288.582 107.898 288.598 107.816 288.637 107.652 288.707 107.313 288.852 106.609 289.145 105.07 289.16 104.973 289.18 104.871 289.215 104.668 289.285 104.25 289.43 103.375 289.445 103.262 289.465 103.148 289.5 102.914 289.57 102.441 289.715 101.449 289.73 101.32 289.75 101.188 289.785 100.926 289.855 100.387 290 99.246 290.281 96.703 290.301 96.516 290.359 95.941 290.438 95.148 290.594 93.457 290.613 93.23 290.633 93.008 290.668 92.547 290.746 91.598 290.902 89.551 290.922 89.281 290.941 89.008 290.98 88.449 291.055 87.289 291.211 84.773 291.23 84.438 291.25 84.098 291.289 83.406 291.363 81.957 291.52 78.785 291.539 78.387 291.555 77.984 291.594 77.16 291.664 75.438 291.684 74.988 291.699 74.535 291.734 73.602 291.809 71.645 291.828 71.133 291.844 70.613 291.879 69.551 291.953 67.305 292.098 62.293 292.113 61.613 292.133 60.918 292.168 59.488 292.242 56.445 292.258 55.645 292.277 54.824 292.313 53.137 292.387 49.523 292.402 48.57 292.422 47.59 292.457 45.566 292.531 41.211 292.547 40.051 292.566 38.863 292.602 36.391 292.672 31.035 292.695 29.43 292.715 27.773 292.754 24.297 292.773 22.469 292.789 21.102"/>
</g>
<g clip-path="url(#clip_8)">
<path stroke-width="1.44" stroke-linecap="square" stroke-miterlimit="3.25" stroke-linejoin="miter" fill="none" stroke="#e19c24" d="M235.324 129.867H235.395L235.469 129.863 235.613 129.859 235.898 129.855 236.477 129.844 237.625 129.824 240.121 129.773 242.453 129.723 244.734 129.672 247.215 129.617 249.527 129.563 252.035 129.496 254.496 129.434 256.789 129.371 259.277 129.297 261.602 129.227 263.879 129.152 266.352 129.066 268.656 128.984 271.156 128.891 273.609 128.789 275.898 128.691 278.383 128.578 280.699 128.465 283.211 128.336 285.676 128.195 287.973 128.059 290.465 127.898 292.793 127.734 295.074 127.563 297.551 127.359 299.863 127.148 302.367 126.906 304.824 126.637 307.117 126.363 309.602 126.031 311.922 125.688 314.199 125.309 316.668 124.84 318.973 124.344 321.469 123.723 323.801 123.047 323.871 123.023 323.941 123.004 324.086 122.957 324.371 122.863 324.941 122.672 326.086 122.27 326.164 122.238 326.242 122.211 326.395 122.152 326.707 122.031 327.324 121.785 328.566 121.254 328.637 121.223 328.711 121.188 329.145 120.988 329.723 120.707 330.879 120.102 330.918 120.078 330.957 120.059 331.035 120.012 331.195 119.926 331.508 119.746 332.133 119.367 332.172 119.344 332.211 119.316 332.289 119.27 332.449 119.168 332.762 118.965 333.387 118.535 333.543 118.426 333.695 118.316 334.004 118.086 334.621 117.609 334.656 117.578 334.773 117.484 334.926 117.355 335.234 117.094 335.852 116.543 335.887 116.512 335.922 116.477 335.992 116.41 336.137 116.273 336.426 115.992 337 115.398 337.035 115.359 337.07 115.324 337.141 115.246 337.285 115.086 337.574 114.762 338.148 114.074 338.188 114.023 338.227 113.977 338.305 113.879 338.457 113.676 338.77 113.262 339.391 112.375 339.547 112.141 339.703 111.898 340.016 111.398 340.637 110.324 340.676 110.258 340.711 110.191 340.781 110.055 340.93 109.781 341.219 109.211 341.801 107.98 341.871 107.816 341.945 107.652 342.09 107.313 342.383 106.609 342.965 105.07 343 104.973 343.105 104.668 343.246 104.25 343.531 103.375 343.566 103.262 343.605 103.148 343.676 102.914 343.816 102.441 344.102 101.449 344.137 101.32 344.172 101.188 344.246 100.926 344.387 100.387 344.672 99.246 345.242 96.703 345.281 96.516 345.398 95.941 345.551 95.148 345.859 93.457 345.898 93.23 345.938 93.008 346.016 92.547 346.168 91.598 346.48 89.551 346.516 89.281 346.555 89.008 346.633 88.449 346.789 87.289 347.098 84.773 347.137 84.438 347.176 84.098 347.25 83.406 347.406 81.957 347.715 78.785 347.75 78.387 347.789 77.984 347.859 77.16 348.004 75.438 348.039 74.988 348.074 74.535 348.148 73.602 348.293 71.645 348.328 71.133 348.363 70.613 348.438 69.551 348.582 67.305 348.867 62.293 348.906 61.613 348.941 60.918 349.012 59.488 349.156 56.445 349.195 55.645 349.23 54.824 349.301 53.137 349.445 49.523 349.48 48.57 349.52 47.59 349.59 45.566 349.734 41.211 349.77 40.051 349.805 38.863 349.879 36.391 350.023 31.035 350.063 29.43 350.102 27.773 350.184 24.297 350.223 22.469 350.254 21.102"/>
</g>
<g clip-path="url(#clip_9)">
<path stroke-width="1.44" stroke-linecap="square" stroke-miterlimit="3.25" stroke-linejoin="miter" fill="none" stroke="#8fb032" d="M235.324 129.867H235.434L235.539 129.863 235.754 129.859 236.188 129.855 237.051 129.844 238.777 129.824 242.52 129.773 246.016 129.723 249.441 129.672 253.16 129.617 256.629 129.563 260.387 129.496 264.078 129.434 267.523 129.371 271.254 129.297 274.742 129.227 278.156 129.152 281.863 129.066 285.324 128.984 289.074 128.891 292.754 128.789 296.188 128.691 299.91 128.578 303.387 128.465 307.152 128.336 310.848 128.195 314.297 128.059 318.039 127.898 321.527 127.734 324.953 127.563 328.664 127.359 332.129 127.148 335.887 126.906 339.574 126.637 343.012 126.363 346.742 126.031 350.223 125.688 353.637 125.309 357.34 124.84 360.797 124.344 364.539 123.723 368.039 123.047 368.094 123.035 368.145 123.023 368.254 123.004 368.469 122.957 368.895 122.863 369.754 122.672 371.469 122.27 371.527 122.254 371.582 122.238 371.699 122.211 371.934 122.152 372.398 122.031 373.328 121.785 375.297 121.223 375.402 121.188 375.621 121.121 376.055 120.988 376.922 120.707 378.66 120.102 378.719 120.078 378.777 120.059 378.895 120.012 379.129 119.926 379.598 119.746 380.539 119.367 380.598 119.344 380.656 119.316 380.773 119.27 381.008 119.168 381.48 118.965 382.422 118.535 382.477 118.508 382.652 118.426 382.883 118.316 383.344 118.086 384.266 117.609 384.383 117.547 384.496 117.484 384.73 117.355 385.191 117.094 386.113 116.543 386.168 116.512 386.223 116.477 386.328 116.41 386.543 116.273 386.977 115.992 387.836 115.398 387.891 115.359 387.945 115.324 388.051 115.246 388.266 115.086 388.699 114.762 389.559 114.074 389.617 114.023 389.676 113.977 389.793 113.879 390.027 113.676 390.492 113.262 391.426 112.375 391.66 112.141 391.895 111.898 392.359 111.398 393.293 110.324 393.402 110.191 393.73 109.781 394.168 109.211 395.039 107.98 395.258 107.652 395.473 107.313 395.91 106.609 396.781 105.07 396.836 104.973 396.891 104.871 396.996 104.668 397.211 104.25 397.637 103.375 397.691 103.262 397.742 103.148 397.852 102.914 398.063 102.441 398.492 101.449 398.547 101.32 398.598 101.188 398.707 100.926 398.918 100.387 399.348 99.246 400.203 96.703 400.258 96.516 400.434 95.941 400.664 95.148 401.129 93.457 401.188 93.23 401.246 93.008 401.359 92.547 401.594 91.598 402.055 89.551 402.113 89.281 402.172 89.008 402.289 88.449 402.52 87.289 402.984 84.773 403.043 84.438 403.098 84.098 403.215 83.406 403.445 81.957 403.91 78.785 403.965 78.387 404.02 77.984 404.129 77.16 404.344 75.438 404.398 74.988 404.453 74.535 404.559 73.602 404.777 71.645 404.832 71.133 404.883 70.613 404.992 69.551 405.207 67.305 405.641 62.293 405.695 61.613 405.75 60.918 405.859 59.488 406.074 56.445 406.129 55.645 406.184 54.824 406.289 53.137 406.508 49.523 406.563 48.57 406.613 47.59 406.723 45.566 406.941 41.211 406.992 40.051 407.047 38.863 407.156 36.391 407.371 31.035 407.434 29.43 407.492 27.773 407.613 24.297 407.676 22.469 407.719 21.102"/>
</g>
<path stroke-width=".36" stroke-linecap="butt" stroke-miterlimit="3.25" stroke-linejoin="miter" fill="none" stroke="#000000" d="M235.324 132.086V129.969"/>
<use data-text="0" xlink:href="#font_4_1" transform="matrix(6.5,0,0,-6.5,230.80615,140.1126)"/>
<use data-text="." xlink:href="#font_4_2" transform="matrix(6.5,0,0,-6.5,234.42015,140.1126)"/>
<use data-text="0" xlink:href="#font_4_1" transform="matrix(6.5,0,0,-6.5,236.22066,140.1126)"/>
<path stroke-width=".36" stroke-linecap="butt" stroke-miterlimit="3.25" stroke-linejoin="miter" fill="none" stroke="#000000" d="M241.188 132.086V130.816"/>
<path stroke-width=".36" stroke-linecap="butt" stroke-miterlimit="3.25" stroke-linejoin="miter" fill="none" stroke="#000000" d="M247.051 132.086V130.816"/>
<path stroke-width=".36" stroke-linecap="butt" stroke-miterlimit="3.25" stroke-linejoin="miter" fill="none" stroke="#000000" d="M252.914 132.086V130.816"/>
<path stroke-width=".36" stroke-linecap="butt" stroke-miterlimit="3.25" stroke-linejoin="miter" fill="none" stroke="#000000" d="M258.777 132.086V129.969"/>
<use data-text="0" xlink:href="#font_4_1" transform="matrix(6.5,0,0,-6.5,254.26114,140.1126)"/>
<use data-text="." xlink:href="#font_4_2" transform="matrix(6.5,0,0,-6.5,257.87516,140.1126)"/>
<use data-text="2" xlink:href="#font_4_3" transform="matrix(6.5,0,0,-6.5,259.67567,140.1126)"/>
<path stroke-width=".36" stroke-linecap="butt" stroke-miterlimit="3.25" stroke-linejoin="miter" fill="none" stroke="#000000" d="M264.645 132.086V130.816"/>
<path stroke-width=".36" stroke-linecap="butt" stroke-miterlimit="3.25" stroke-linejoin="miter" fill="none" stroke="#000000" d="M270.508 132.086V130.816"/>
<path stroke-width=".36" stroke-linecap="butt" stroke-miterlimit="3.25" stroke-linejoin="miter" fill="none" stroke="#000000" d="M276.371 132.086V130.816"/>
<path stroke-width=".36" stroke-linecap="butt" stroke-miterlimit="3.25" stroke-linejoin="miter" fill="none" stroke="#000000" d="M282.234 132.086V129.969"/>
<use data-text="0" xlink:href="#font_4_1" transform="matrix(6.5,0,0,-6.5,277.7161,140.1126)"/>
<use data-text="." xlink:href="#font_4_2" transform="matrix(6.5,0,0,-6.5,281.3301,140.1126)"/>
<use data-text="4" xlink:href="#font_4_4" transform="matrix(6.5,0,0,-6.5,283.1306,140.1126)"/>
<path stroke-width=".36" stroke-linecap="butt" stroke-miterlimit="3.25" stroke-linejoin="miter" fill="none" stroke="#000000" d="M288.098 132.086V130.816"/>
<path stroke-width=".36" stroke-linecap="butt" stroke-miterlimit="3.25" stroke-linejoin="miter" fill="none" stroke="#000000" d="M293.961 132.086V130.816"/>
<path stroke-width=".36" stroke-linecap="butt" stroke-miterlimit="3.25" stroke-linejoin="miter" fill="none" stroke="#000000" d="M299.824 132.086V130.816"/>
<path stroke-width=".36" stroke-linecap="butt" stroke-miterlimit="3.25" stroke-linejoin="miter" fill="none" stroke="#000000" d="M305.688 132.086V129.969"/>
<use data-text="0" xlink:href="#font_4_1" transform="matrix(6.5,0,0,-6.5,301.17109,140.1126)"/>
<use data-text="." xlink:href="#font_4_2" transform="matrix(6.5,0,0,-6.5,304.7851,140.1126)"/>
<use data-text="6" xlink:href="#font_4_5" transform="matrix(6.5,0,0,-6.5,306.5856,140.1126)"/>
<path stroke-width=".36" stroke-linecap="butt" stroke-miterlimit="3.25" stroke-linejoin="miter" fill="none" stroke="#000000" d="M311.555 132.086V130.816"/>
<path stroke-width=".36" stroke-linecap="butt" stroke-miterlimit="3.25" stroke-linejoin="miter" fill="none" stroke="#000000" d="M317.418 132.086V130.816"/>
<path stroke-width=".36" stroke-linecap="butt" stroke-miterlimit="3.25" stroke-linejoin="miter" fill="none" stroke="#000000" d="M323.281 132.086V130.816"/>
<path stroke-width=".36" stroke-linecap="butt" stroke-miterlimit="3.25" stroke-linejoin="miter" fill="none" stroke="#000000" d="M329.145 132.086V129.969"/>
<use data-text="0" xlink:href="#font_4_1" transform="matrix(6.5,0,0,-6.5,324.62608,140.1126)"/>
<use data-text="." xlink:href="#font_4_2" transform="matrix(6.5,0,0,-6.5,328.24009,140.1126)"/>
<use data-text="8" xlink:href="#font_4_6" transform="matrix(6.5,0,0,-6.5,330.0406,140.1126)"/>
<path stroke-width=".36" stroke-linecap="butt" stroke-miterlimit="3.25" stroke-linejoin="miter" fill="none" stroke="#000000" d="M335.008 132.086V130.816"/>
<path stroke-width=".36" stroke-linecap="butt" stroke-miterlimit="3.25" stroke-linejoin="miter" fill="none" stroke="#000000" d="M340.871 132.086V130.816"/>
<path stroke-width=".36" stroke-linecap="butt" stroke-miterlimit="3.25" stroke-linejoin="miter" fill="none" stroke="#000000" d="M346.734 132.086V130.816"/>
<path stroke-width=".36" stroke-linecap="butt" stroke-miterlimit="3.25" stroke-linejoin="miter" fill="none" stroke="#000000" d="M352.598 132.086V129.969"/>
<use data-text="1" xlink:href="#font_4_7" transform="matrix(6.5,0,0,-6.5,348.08103,140.1126)"/>
<use data-text="." xlink:href="#font_4_2" transform="matrix(6.5,0,0,-6.5,351.69505,140.1126)"/>
<use data-text="0" xlink:href="#font_4_1" transform="matrix(6.5,0,0,-6.5,353.49555,140.1126)"/>
<path stroke-width=".36" stroke-linecap="butt" stroke-miterlimit="3.25" stroke-linejoin="miter" fill="none" stroke="#000000" d="M358.461 132.086V130.816"/>
<path stroke-width=".36" stroke-linecap="butt" stroke-miterlimit="3.25" stroke-linejoin="miter" fill="none" stroke="#000000" d="M364.328 132.086V130.816"/>
<path stroke-width=".36" stroke-linecap="butt" stroke-miterlimit="3.25" stroke-linejoin="miter" fill="none" stroke="#000000" d="M370.191 132.086V130.816"/>
<path stroke-width=".36" stroke-linecap="butt" stroke-miterlimit="3.25" stroke-linejoin="miter" fill="none" stroke="#000000" d="M376.055 132.086V129.969"/>
<use data-text="1" xlink:href="#font_4_7" transform="matrix(6.5,0,0,-6.5,371.536,140.1126)"/>
<use data-text="." xlink:href="#font_4_2" transform="matrix(6.5,0,0,-6.5,375.15003,140.1126)"/>
<use data-text="2" xlink:href="#font_4_3" transform="matrix(6.5,0,0,-6.5,376.95054,140.1126)"/>
<path stroke-width=".36" stroke-linecap="butt" stroke-miterlimit="3.25" stroke-linejoin="miter" fill="none" stroke="#000000" d="M381.918 132.086V130.816"/>
<path stroke-width=".36" stroke-linecap="butt" stroke-miterlimit="3.25" stroke-linejoin="miter" fill="none" stroke="#000000" d="M387.781 132.086V130.816"/>
<path stroke-width=".36" stroke-linecap="butt" stroke-miterlimit="3.25" stroke-linejoin="miter" fill="none" stroke="#000000" d="M393.645 132.086V130.816"/>
<path stroke-width=".36" stroke-linecap="butt" stroke-miterlimit="3.25" stroke-linejoin="miter" fill="none" stroke="#000000" d="M399.508 132.086V129.969"/>
<use data-text="1" xlink:href="#font_4_7" transform="matrix(6.5,0,0,-6.5,394.99098,140.1126)"/>
<use data-text="." xlink:href="#font_4_2" transform="matrix(6.5,0,0,-6.5,398.60499,140.1126)"/>
<use data-text="4" xlink:href="#font_4_4" transform="matrix(6.5,0,0,-6.5,400.4055,140.1126)"/>
<path stroke-width=".36" stroke-linecap="butt" stroke-miterlimit="3.25" stroke-linejoin="miter" fill="none" stroke="#000000" d="M405.371 132.086V130.816"/>
<path stroke-width=".36" stroke-linecap="butt" stroke-miterlimit="3.25" stroke-linejoin="miter" fill="none" stroke="#000000" d="M411.238 132.086V130.816"/>
<path stroke-width=".36" stroke-linecap="butt" stroke-miterlimit="3.25" stroke-linejoin="miter" fill="none" stroke="#000000" d="M231.734 132.086H411.309"/>
<use data-text="s" xlink:href="#font_4_8" transform="matrix(6.5,0,0,-6.5,417.0695,134.33292)"/>
<path stroke-width=".36" stroke-linecap="butt" stroke-miterlimit="3.25" stroke-linejoin="miter" fill="none" stroke="#000000" d="M235.324 132.086H237.441"/>
<path stroke-width=".36" stroke-linecap="butt" stroke-miterlimit="3.25" stroke-linejoin="miter" fill="none" stroke="#000000" d="M235.324 126.539H236.594"/>
<path stroke-width=".36" stroke-linecap="butt" stroke-miterlimit="3.25" stroke-linejoin="miter" fill="none" stroke="#000000" d="M235.324 120.988H236.594"/>
<path stroke-width=".36" stroke-linecap="butt" stroke-miterlimit="3.25" stroke-linejoin="miter" fill="none" stroke="#000000" d="M235.324 115.438H236.594"/>
<path stroke-width=".36" stroke-linecap="butt" stroke-miterlimit="3.25" stroke-linejoin="miter" fill="none" stroke="#000000" d="M235.324 109.891H237.441"/>
<use data-text="2" xlink:href="#font_4_3" transform="matrix(6.5,0,0,-6.5,225.93413,112.13598)"/>
<use data-text="0" xlink:href="#font_4_1" transform="matrix(6.5,0,0,-6.5,229.54813,112.13598)"/>
<path stroke-width=".36" stroke-linecap="butt" stroke-miterlimit="3.25" stroke-linejoin="miter" fill="none" stroke="#000000" d="M235.324 104.34H236.594"/>
<path stroke-width=".36" stroke-linecap="butt" stroke-miterlimit="3.25" stroke-linejoin="miter" fill="none" stroke="#000000" d="M235.324 98.793H236.594"/>
<path stroke-width=".36" stroke-linecap="butt" stroke-miterlimit="3.25" stroke-linejoin="miter" fill="none" stroke="#000000" d="M235.324 93.242H236.594"/>
<path stroke-width=".36" stroke-linecap="butt" stroke-miterlimit="3.25" stroke-linejoin="miter" fill="none" stroke="#000000" d="M235.324 87.691H237.441"/>
<use data-text="4" xlink:href="#font_4_4" transform="matrix(6.5,0,0,-6.5,225.93413,89.93905)"/>
<use data-text="0" xlink:href="#font_4_1" transform="matrix(6.5,0,0,-6.5,229.54813,89.93905)"/>
<path stroke-width=".36" stroke-linecap="butt" stroke-miterlimit="3.25" stroke-linejoin="miter" fill="none" stroke="#000000" d="M235.324 82.145H236.594"/>
<path stroke-width=".36" stroke-linecap="butt" stroke-miterlimit="3.25" stroke-linejoin="miter" fill="none" stroke="#000000" d="M235.324 76.594H236.594"/>
<path stroke-width=".36" stroke-linecap="butt" stroke-miterlimit="3.25" stroke-linejoin="miter" fill="none" stroke="#000000" d="M235.324 71.043H236.594"/>
<path stroke-width=".36" stroke-linecap="butt" stroke-miterlimit="3.25" stroke-linejoin="miter" fill="none" stroke="#000000" d="M235.324 65.496H237.441"/>
<use data-text="6" xlink:href="#font_4_5" transform="matrix(6.5,0,0,-6.5,225.93413,67.74212)"/>
<use data-text="0" xlink:href="#font_4_1" transform="matrix(6.5,0,0,-6.5,229.54813,67.74212)"/>
<path stroke-width=".36" stroke-linecap="butt" stroke-miterlimit="3.25" stroke-linejoin="miter" fill="none" stroke="#000000" d="M235.324 59.945H236.594"/>
<path stroke-width=".36" stroke-linecap="butt" stroke-miterlimit="3.25" stroke-linejoin="miter" fill="none" stroke="#000000" d="M235.324 54.398H236.594"/>
<path stroke-width=".36" stroke-linecap="butt" stroke-miterlimit="3.25" stroke-linejoin="miter" fill="none" stroke="#000000" d="M235.324 48.848H236.594"/>
<path stroke-width=".36" stroke-linecap="butt" stroke-miterlimit="3.25" stroke-linejoin="miter" fill="none" stroke="#000000" d="M235.324 43.297H237.441"/>
<use data-text="8" xlink:href="#font_4_6" transform="matrix(6.5,0,0,-6.5,225.93413,45.545194)"/>
<use data-text="0" xlink:href="#font_4_1" transform="matrix(6.5,0,0,-6.5,229.54813,45.545194)"/>
<path stroke-width=".36" stroke-linecap="butt" stroke-miterlimit="3.25" stroke-linejoin="miter" fill="none" stroke="#000000" d="M235.324 37.75H236.594"/>
<path stroke-width=".36" stroke-linecap="butt" stroke-miterlimit="3.25" stroke-linejoin="miter" fill="none" stroke="#000000" d="M235.324 32.199H236.594"/>
<path stroke-width=".36" stroke-linecap="butt" stroke-miterlimit="3.25" stroke-linejoin="miter" fill="none" stroke="#000000" d="M235.324 26.652H236.594"/>
<path stroke-width=".36" stroke-linecap="butt" stroke-miterlimit="3.25" stroke-linejoin="miter" fill="none" stroke="#000000" d="M235.324 21.102H237.441"/>
<use data-text="1" xlink:href="#font_4_7" transform="matrix(6.5,0,0,-6.5,222.31914,23.348263)"/>
<use data-text="0" xlink:href="#font_4_1" transform="matrix(6.5,0,0,-6.5,225.93314,23.348263)"/>
<use data-text="0" xlink:href="#font_4_1" transform="matrix(6.5,0,0,-6.5,229.54714,23.348263)"/>
<path stroke-width=".36" stroke-linecap="butt" stroke-miterlimit="3.25" stroke-linejoin="miter" fill="none" stroke="#000000" d="M235.324 132.086V21.102"/>
<use data-text="p" xlink:href="#font_6_1" transform="matrix(6.5,0,0,-6.5,230.98992,15.408574)"/>
<use data-text="s" xlink:href="#font_6_2" transform="matrix(4.6,0,0,-4.6,234.6049,16.60125)"/>
<use data-text="*" xlink:href="#font_5_2" transform="matrix(4.3,0,0,-4.3,237.27164,12.71209)"/>
<g clip-path="url(#clip_10)">
<path stroke-width="1.152" stroke-linecap="square" stroke-miterlimit="3.25" stroke-linejoin="miter" fill="none" stroke="#5e81b5" d="M148.574 179.488H161.824"/>
</g>
<use data-text="d" xlink:href="#font_4_10" transform="matrix(9.35,0,0,-9.35,167.08,181.9877)"/>
<use data-text="=" xlink:href="#font_5_3" transform="matrix(9.35,0,0,-9.35,174.8779,181.9877)"/>
<use data-text="1" xlink:href="#font_4_7" transform="matrix(9.35,0,0,-9.35,182.92826,181.9877)"/>
<g clip-path="url(#clip_11)">
<path stroke-width="1.152" stroke-linecap="square" stroke-miterlimit="3.25" stroke-linejoin="miter" fill="none" stroke="#e19c24" d="M196.199 179.488H209.449"/>
</g>
<use data-text="d" xlink:href="#font_4_10" transform="matrix(9.35,0,0,-9.35,214.70377,181.9877)"/>
<use data-text="=" xlink:href="#font_5_3" transform="matrix(9.35,0,0,-9.35,222.50168,181.9877)"/>
<use data-text="2" xlink:href="#font_4_3" transform="matrix(9.35,0,0,-9.35,230.55204,181.9877)"/>
<g clip-path="url(#clip_12)">
<path stroke-width="1.152" stroke-linecap="square" stroke-miterlimit="3.25" stroke-linejoin="miter" fill="none" stroke="#8fb032" d="M243.824 179.488H257.07"/>
</g>
<use data-text="d" xlink:href="#font_4_10" transform="matrix(9.35,0,0,-9.35,262.3275,181.9877)"/>
<use data-text="=" xlink:href="#font_5_3" transform="matrix(9.35,0,0,-9.35,270.12544,181.9877)"/>
<use data-text="3" xlink:href="#font_4_9" transform="matrix(9.35,0,0,-9.35,278.17579,181.9877)"/>
<path stroke-width="1" stroke-linecap="square" stroke-miterlimit="10" stroke-linejoin="miter" fill="none" stroke="#000000" d="M147.5 168.219C146.547 168.219 145.629 168.598 144.953 169.273 144.277 169.949 143.898 170.863 143.898 171.816V185.816C143.898 186.773 144.277 187.688 144.953 188.363 145.629 189.039 146.547 189.418 147.5 189.418H284.5C285.453 189.418 286.371 189.039 287.047 188.363 287.723 187.688 288.102 186.773 288.102 185.816V171.816C288.102 170.863 287.723 169.949 287.047 169.273 286.371 168.598 285.453 168.219 284.5 168.219ZM147.5 168.219"/>
</g>
</svg>
