<svg xmlns="http://www.w3.org/2000/svg" xmlns:xlink="http://www.w3.org/1999/xlink" xmlns:inkscape="http://www.inkscape.org/namespaces/inkscape" version="1.1" width="478" height="257" viewBox="0 0 478 257">
<defs>
<path id="font_1_1" d="M.3725586 0H.28466798V.5600586C.26350913 .5398763 .23575847 .51969406 .20141602 .49951173 .16707357 .47932945 .13623047 .46419273 .10888672 .45410157V.5390625C.15804036 .5621745 .20100911 .59016928 .23779297 .6230469 .2745768 .6559245 .3006185 .6878255 .31591798 .71875H.3725586V0Z"/>
<path id="font_1_2" d="M.50341799 .084472659V0H.030273438C.029622397 .021148682 .033040365 .041483564 .040527345 .06100464 .052571615 .09321085 .07185873 .124928798 .09838867 .15615845 .12491862 .1873881 .1632487 .22350057 .2133789 .26449586 .29117839 .3282369 .34375 .37872825 .37109376 .41596986 .3984375 .45321147 .41210938 .48841859 .41210938 .5215912 .41210938 .5563914 .3996582 .5857442 .37475587 .60964968 .34985353 .6335551 .3173828 .6455078 .27734376 .6455078 .23502605 .6455078 .20117188 .6328125 .17578125 .6074219 .15039063 .58203127 .13753255 .546875 .13720703 .5019531L.046875 .5112457C.053059896 .5787811 .07633463 .630249 .11669922 .6656494 .1570638 .7010498 .21126302 .71875 .27929688 .71875 .34798179 .71875 .40234376 .69970199 .4423828 .66160586 .48242188 .6235097 .5024414 .57629397 .5024414 .5199585 .5024414 .4913025 .49658204 .46313478 .48486329 .43545533 .47314454 .40777589 .45369468 .3786316 .42651368 .34802247 .39933268 .3174235 .35416667 .27542115 .29101563 .22201538 .23828125 .17779541 .20442708 .14779663 .18945313 .13201905 .17447917 .116251628 .16210938 .10040283 .15234375 .084472659H.50341799Z"/>
<path id="font_1_3" d="M.041992189 .19042969 .12988281 .20214844C.13997396 .15234375 .15714519 .11645508 .18139649 .09448242 .20564778 .072509769 .2351888 .061523439 .27001954 .061523439 .3113607 .061523439 .3462728 .07582092 .37475587 .10441589 .40323893 .13301087 .41748048 .1684316 .41748048 .2106781 .41748048 .25098167 .40429688 .2842102 .3779297 .31036378 .3515625 .3365275 .31803385 .34960938 .27734376 .34960938 .2607422 .34960938 .24007161 .34635417 .21533203 .33984376L.22509766 .4169922C.23095703 .41634117 .23567708 .41601563 .23925781 .41601563 .27669273 .41601563 .31038413 .42569987 .34033204 .44506837 .37027995 .46443687 .3852539 .4942932 .3852539 .53463748 .3852539 .56658938 .37434898 .59305319 .35253907 .61402896 .33072917 .63501486 .30257163 .6455078 .2680664 .6455078 .23388672 .6455078 .20540364 .6347656 .18261719 .61328127 .15983074 .5917969 .1451823 .5595703 .13867188 .51660159L.05078125 .53222659C.061523439 .591451 .0859375 .63734439 .12402344 .6699066 .16210938 .7024689 .20947266 .71875 .26611329 .71875 .30517579 .71875 .34114585 .71039327 .37402345 .6936798 .40690104 .67696639 .43204753 .6541646 .4494629 .62527468 .46687828 .59639486 .47558595 .5657247 .47558595 .53326418 .47558595 .5024312 .46728517 .47435508 .4506836 .44903565 .43408204 .4237264 .40950523 .40360514 .37695313 .38867188 .41927085 .37890626 .45214845 .35864259 .47558595 .32788087 .49902345 .29711915 .5107422 .2586263 .5107422 .21240235 .5107422 .14990235 .48795573 .09692383 .4423828 .053466798 .3968099 .010009766 .33919273-.01171875 .26953126-.01171875 .20670574-.01171875 .15454102 .007044474 .11303711 .044570924 .0715332 .082097377 .047851564 .13071697 .041992189 .19042969Z"/>
<path id="font_1_4" d="M.3232422 0V.17138672H.0126953129V.25195313L.33935548 .7158203H.4111328V.25195313H.5078125V.17138672H.4111328V0H.3232422M.3232422 .25195313V.57470706L.099121097 .25195313H.3232422Z"/>
<path id="font_1_5" d="M.041503908 .18847656 .13378906 .19628906C.140625 .15151978 .15649414 .117863979 .18139649 .095321658 .20629883 .07278951 .23632813 .061523439 .27148438 .061523439 .3138021 .061523439 .34960938 .077448528 .37890626 .109298709 .40820313 .14115906 .42285157 .18341573 .42285157 .23606873 .42285157 .28612773 .4087728 .32562257 .38061524 .35455323 .35245768 .3834839 .31559245 .39794923 .27001954 .39794923 .24169922 .39794923 .21614583 .39156596 .19335938 .37879945 .17057292 .36603294 .15266927 .34946696 .13964844 .32910157L.057128908 .33984376 .12646485 .70703127H.48242188V.62402346H.19677735L.15820313 .43115235C.20117188 .46077476 .24625652 .47558595 .29345704 .47558595 .35595704 .47558595 .4086914 .45391337 .45166017 .41056825 .4946289 .36723329 .5161133 .31151835 .5161133 .24342346 .5161133 .17857361 .49723307 .122528079 .45947267 .075286868 .41357423 .017283122 .35091148-.01171875 .27148438-.01171875 .2063802-.01171875 .15323894 .006556193 .11206055 .04310608 .070882167 .07965597 .04736328 .1281128 .041503908 .18847656Z"/>
<path id="font_1_6" d="M.4975586 .5400543 .41015626 .5332031C.40234376 .5675557 .39127604 .59251406 .37695313 .608078 .3531901 .6330312 .32389323 .6455078 .2890625 .6455078 .26106773 .6455078 .23649089 .637736 .21533203 .6221924 .18766277 .602122 .16585286 .57282 .14990235 .5342865 .13395183 .49575297 .12565105 .4408671 .125 .3696289 .14615886 .40185548 .17203777 .42578126 .20263672 .44140626 .23323567 .45703126 .26529948 .46484376 .29882813 .46484376 .35742188 .46484376 .40730796 .44327799 .44848634 .40014649 .4896647 .35701499 .5102539 .30126954 .5102539 .23291016 .5102539 .18798828 .50056967 .14624024 .48120118 .107666019 .46183268 .0690918 .43522135 .03955078 .4013672 .019042969 .36751304-.0014648438 .32910157-.01171875 .2861328-.01171875 .21289063-.01171875 .15315755 .015197754 .106933597 .06903076 .060709638 .12287394 .037597658 .2116038 .037597658 .33522035 .037597658 .47347514 .06315104 .57399496 .11425781 .6367798 .15885417 .6914266 .21891277 .71875 .2944336 .71875 .3507487 .71875 .39689128 .70292159 .43286134 .67126467 .4688314 .6396077 .49039714 .595871 .4975586 .5400543M.13867188 .23287964C.13867188 .20269776 .1451009 .17381287 .15795899 .14622498 .17081706 .118637088 .18880208 .09762064 .21191406 .08317566 .23502605 .068740848 .25927735 .061523439 .28466798 .061523439 .32177735 .061523439 .35367839 .07645162 .3803711 .10630798 .4070638 .13616435 .42041017 .17673238 .42041017 .22801209 .42041017 .27734886 .40722657 .31621299 .38085938 .3446045 .3544922 .3730062 .32128907 .38720704 .28125 .38720704 .24153646 .38720704 .20784505 .3730062 .18017578 .3446045 .15250652 .31621299 .13867188 .27897135 .13867188 .23287964Z"/>
<clipPath id="clip_2">
<path d="M2 242H414.719V244H2Z"/>
</clipPath>
<path id="font_1_7" d="M.041503908 .35327149C.041503908 .43784587 .05021159 .50591537 .06762695 .55747988 .08504232 .6090444 .11092123 .6488139 .14526367 .67678835 .17960613 .70476278 .22281902 .71875 .27490235 .71875 .3133138 .71875 .34700523 .711024 .37597657 .6955719 .4049479 .6801198 .4288737 .6578369 .4477539 .62872317 .46663413 .5996094 .4814453 .56414797 .4921875 .52233889 .5029297 .48053996 .5083008 .42418418 .5083008 .35327149 .5083008 .26934815 .49967448 .2016042 .48242188 .15003968 .46516929 .098475139 .43937174 .058624269 .4050293 .03048706 .37068687 .0023498536 .3273112-.01171875 .27490235-.01171875 .20589192-.01171875 .1516927 .013005574 .11230469 .062454225 .065104167 .12198385 .041503908 .21892293 .041503908 .35327149M.13183594 .35351563C.13183594 .23639934 .14558919 .15845235 .1730957 .11967468 .20060222 .08090719 .23453777 .061523439 .27490235 .061523439 .31526695 .061523439 .34920249 .08098856 .37670899 .11991882 .40421549 .15884908 .41796876 .23671468 .41796876 .35351563 .41796876 .47095744 .40421549 .5489807 .37670899 .58758547 .34920249 .6262004 .3149414 .6455078 .27392579 .6455078 .2335612 .6455078 .20133464 .62847396 .1772461 .5944061 .14697266 .5509288 .13183594 .47063194 .13183594 .35351563Z"/>
<path id="font_1_8" d="M.09082031 0V.10058594H.19091797V0H.09082031Z"/>
<path id="font_1_9" d="M.17675781 .38916017C.14029949 .40246583 .11328125 .42145286 .095703128 .44612123 .078125 .47078959 .06933594 .5003255 .06933594 .534729 .06933594 .5866597 .08805338 .63031008 .12548828 .66567996 .16292317 .70106 .21272786 .71875 .27490235 .71875 .33740235 .71875 .3876953 .7006531 .42578126 .6644592 .4638672 .6282756 .48291017 .5842183 .48291017 .5322876 .48291017 .4991862 .47420249 .4703827 .4567871 .44587709 .43937174 .42137147 .4129232 .40246583 .3774414 .38916017 .42138673 .3748169 .45483399 .3516744 .4777832 .31973268 .5007324 .28780113 .51220706 .24966939 .51220706 .20533753 .51220706 .1440684 .4905599 .09257507 .44726563 .050857545 .40397135 .009140015 .34700523-.01171875 .2763672-.01171875 .20572917-.01171875 .14876302 .009221395 .10546875 .051101686 .06217448 .09298197 .040527345 .14521282 .040527345 .20779419 .040527345 .25439454 .052327474 .29342143 .075927738 .32487489 .09952799 .35632835 .13313802 .37775675 .17675781 .38916017M.15917969 .53707888C.15917969 .5035197 .17008464 .47608949 .19189453 .4547882 .21370442 .4334971 .24202474 .42285157 .27685548 .42285157 .31070964 .42285157 .3384603 .4334208 .36010743 .45455934 .38175456 .47569786 .39257813 .501592 .39257813 .5322418 .39257813 .5641937 .38142906 .5910594 .35913087 .61283877 .33683268 .6346181 .30908204 .6455078 .2758789 .6455078 .24235027 .6455078 .21451824 .6348572 .19238281 .6135559 .17024739 .59226486 .15917969 .56677249 .15917969 .53707888M.13085938 .20776367C.13085938 .18273926 .13680013 .15852864 .14868164 .13513184 .16056316 .11173502 .17822266 .09361776 .20166016 .08078003 .22509766 .0679423 .25032554 .061523439 .27734376 .061523439 .31933595 .061523439 .3540039 .07500712 .38134767 .10197449 .4086914 .12895203 .42236329 .16323853 .42236329 .20483399 .42236329 .24708049 .40828453 .28201295 .38012696 .30963136 .3519694 .33725993 .31673179 .35107423 .27441407 .35107423 .23307292 .35107423 .19881185 .3374227 .17163086 .31011964 .14444988 .28282676 .13085938 .24870809 .13085938 .20776367Z"/>
<clipPath id="clip_3">
<path d="M11 1.199H12V256H11Z"/>
</clipPath>
<clipPath id="clip_4">
<path d="M422.16 103H436.801V105H422.16Z"/>
</clipPath>
<path id="font_1_10" d="M.049804689-.04296875 .1352539-.055664064C.13883464-.08203125 .14876302-.10123698 .16503906-.11328125 .18684896-.1295573 .21663411-.13769531 .25439454-.13769531 .29508464-.13769531 .3264974-.12953694 .3486328-.113220218 .37076823-.09691366 .3857422-.07407633 .3935547-.044708253 .39811198-.026774088 .40022788 .010904948 .39990235 .06832886 .36149089 .022776286 .3136393 0 .25634767 0 .1850586 0 .12988281 .025716147 .09082031 .07714844 .051757814 .12858074 .032226564 .19026692 .032226564 .26220704 .032226564 .3116862 .041178388 .35734049 .05908203 .39916993 .07698568 .44099937 .10294596 .47330729 .13696289 .49609376 .17097982 .5188802 .2109375 .53027346 .25683595 .53027346 .31803385 .53027346 .3684896 .5053711 .40820313 .4555664V.5185547H.4892578V.070007327C.4892578-.010772705 .48103843-.06801859 .4645996-.10173035 .4481608-.1354421 .42211915-.16206868 .3864746-.1816101 .35083009-.2011617 .30696617-.2109375 .2548828-.2109375 .19303386-.2109375 .1430664-.19698079 .10498047-.16906739 .06689453-.14115398 .048502607-.099121097 .049804689-.04296875M.122558597 .26853944C.122558597 .20067851 .1360677 .15116374 .16308594 .11999512 .19010417 .0888265 .22395833 .07324219 .26464845 .07324219 .30501304 .07324219 .3388672 .08874512 .36621095 .11975098 .3935547 .15075684 .40722657 .19938152 .40722657 .265625 .40722657 .3289388 .3931478 .3766683 .36499024 .40881349 .33683268 .44095866 .30289714 .45703126 .2631836 .45703126 .2241211 .45703126 .19091797 .4412028 .16357422 .4095459 .13623047 .377889 .122558597 .33088685 .122558597 .26853944Z"/>
<path id="font_5_1" d="M.296875-.20996094H.23388672C.20784505-.17675781 .1841634-.14168294 .1628418-.10473633 .14152019-.06778971 .12320963-.029459635 .107910159 .010253906 .09261068 .04996745 .08081055 .090657558 .072509769 .13232422 .064208988 .17399089 .060058595 .21614583 .060058595 .25878907 .060058595 .30208335 .06429037 .34448243 .072753909 .38598634 .081217449 .42749024 .09309896 .4679362 .10839844 .5073242 .123697917 .5467122 .14200847 .5848796 .16333008 .6218262 .18465169 .65877279 .20817058 .69417318 .23388672 .72802737H.296875C.27376304 .6902669 .25309245 .6530762 .23486328 .6164551 .21663411 .579834 .20133464 .5425618 .18896485 .5046387 .17659505 .46671549 .16715496 .42765299 .16064453 .38745118 .15413411 .34724937 .1508789 .3046875 .1508789 .25976563 .1508789 .21809896 .15437825 .17675781 .16137696 .13574219 .16837566 .09472656 .17822266 .05444336 .19091797 .014892578 .20361328-.024658204 .21891277-.06323242 .2368164-.10083008 .25472007-.13842774 .2747396-.17480469 .296875-.20996094Z"/>
<path id="font_1_11" d="M.0073242189 0 .19677735 .26953126 .021484375 .5185547H.13134766L.2109375 .39697267C.22591146 .3738607 .23795574 .3544922 .24707031 .3388672 .26139323 .36035157 .2745768 .37939454 .2866211 .3959961L.37402345 .5185547H.4790039L.2998047 .27441407 .49267579 0H.38476563L.2783203 .16113281 .25 .20458985 .11376953 0H.0073242189Z"/>
<path id="font_5_2" d="M.27294923 .25878907C.27294923 .21582031 .26871745 .17358399 .2602539 .13208008 .25179038 .09057617 .23990886 .050130208 .22460938 .0107421879 .20930989-.028645834 .19099935-.06681315 .16967774-.103759769 .14835613-.14070638 .12483724-.17610677 .099121097-.20996094H.036132814C.05891927-.17285156 .079427089-.13590496 .09765625-.099121097 .115885417-.06233724 .13118489-.024902344 .14355469 .013183594 .15592449 .05126953 .16544597 .09049479 .17211914 .13085938 .17879232 .17122396 .1821289 .21354167 .1821289 .2578125 .1821289 .29947917 .17862956 .3408203 .17163086 .38183595 .16463216 .42285157 .15478516 .46313478 .14208985 .50268557 .12939453 .5422363 .11401367 .5808919 .095947269 .61865237 .07788086 .6564128 .057942708 .6928711 .036132814 .72802737H.099121097C.12516277 .6948242 .14892578 .6597493 .17041016 .62280276 .19189453 .58585616 .21020508 .54744467 .2253418 .50756838 .24047852 .46769206 .25219728 .4268392 .26049806 .38500978 .26879884 .34318034 .27294923 .30110679 .27294923 .25878907Z"/>
<path id="font_5_3" d="M.5288086 .32714845H.05517578V.4091797H.5288086V.32714845M.5288086 .109375H.05517578V.19140625H.5288086V.109375Z"/>
<clipPath id="clip_6">
<path d="M422.16 119H436.801V122H422.16Z"/>
</clipPath>
<path id="font_1_12" d="M.06591797 0V.5185547H.14501953V.4453125C.18310547 .5019531 .23811849 .53027346 .3100586 .53027346 .3413086 .53027346 .3700358 .5246582 .39624024 .51342776 .42244468 .50219729 .44205729 .48746745 .45507813 .46923829 .46809898 .45100913 .47721354 .42936198 .48242188 .40429688 .4856771 .38802085 .4873047 .35953776 .4873047 .31884767V0H.39941407V.31576539C.39941407 .35161338 .3959961 .37841798 .38916017 .3961792 .38232423 .41394044 .37019859 .42811585 .3527832 .43870545 .33536784 .44929505 .3149414 .45458985 .2915039 .45458985 .254069 .45458985 .22176107 .44269309 .19458008 .41889955 .1673991 .39511619 .1538086 .34998576 .1538086 .2835083V0H.06591797Z"/>
<clipPath id="clip_7">
<path d="M422.16 136H436.801V138H422.16Z"/>
</clipPath>
<clipPath id="clip_8">
<path d="M422.16 152H436.801V155H422.16Z"/>
</clipPath>
</defs>
<g>
<path stroke-width="1.44" stroke-linecap="square" stroke-miterlimit="3.25" stroke-linejoin="miter" fill="none" stroke="#5e81b5" d="M11.195 50.457H406.309"/>
<path stroke-width="1.44" stroke-linecap="square" stroke-miterlimit="3.25" stroke-linejoin="miter" fill="none" stroke="#e19c24" d="M11.195 243.102 11.316 242.395 11.438 241.684 12.164 237.43 13.137 231.762 15.074 220.457 18.953 198.059 27.359 151.52 35.211 112.199 35.332 111.637 35.449 111.078 35.691 109.957 36.172 107.738 37.133 103.367 39.059 94.891 39.18 94.371 39.301 93.855 39.539 92.828 40.02 90.789 40.984 86.789 42.906 79.078 43.039 78.57 43.168 78.066 43.43 77.059 43.949 75.066 44.992 71.176 47.082 63.766 47.211 63.32 47.344 62.875 47.602 61.992 48.125 60.25 49.168 56.863 51.254 50.473 51.379 50.117 51.5 49.762 51.742 49.059 52.23 47.672 53.203 44.984 55.152 39.957 55.273 39.656 55.395 39.359 55.641 38.773 56.125 37.617 57.102 35.391 59.047 31.289 59.18 31.027 59.313 30.77 59.574 30.258 60.102 29.258 61.16 27.363 61.289 27.133 61.688 26.465 62.215 25.602 63.27 23.969 63.402 23.777 63.535 23.582 63.797 23.207 64.324 22.473 65.379 21.105 65.645 20.785 65.91 20.473 66.438 19.867 67.492 18.758 67.621 18.629 67.75 18.504 68.012 18.258 68.527 17.789 68.656 17.68 68.789 17.566 69.047 17.352 69.563 16.941 69.695 16.844 70.082 16.563 70.602 16.211 70.859 16.047 71.117 15.891 71.637 15.598 71.766 15.527 71.895 15.461 72.156 15.332 72.285 15.27 72.672 15.094 72.805 15.039 73.191 14.887 73.711 14.703 73.969 14.625 74.227 14.551 74.355 14.516 74.488 14.484 74.746 14.422 75.004 14.367 75.133 14.344 75.266 14.32 75.652 14.262 75.781 14.246 75.902 14.23 76.145 14.207 76.508 14.184 76.871 14.172H77.23L77.594 14.184 77.957 14.207 78.199 14.23 78.32 14.246 78.441 14.258 78.684 14.293 78.805 14.313 78.922 14.332 79.164 14.375 79.406 14.422 79.648 14.477 79.77 14.508 79.891 14.535 80.133 14.602 80.254 14.633 80.375 14.668 80.617 14.742 80.734 14.781 80.855 14.82 81.098 14.906 81.582 15.086 81.703 15.133 82.066 15.285 82.547 15.504 83.516 15.996 83.645 16.066 83.777 16.141 84.039 16.289 84.563 16.605 85.613 17.297 85.742 17.387 85.875 17.48 86.137 17.668 86.66 18.063 87.707 18.898 87.84 19.008 87.969 19.117 88.23 19.34 88.758 19.801 89.805 20.77 91.902 22.883 92.145 23.141 92.391 23.406 92.879 23.941 93.859 25.043 95.816 27.363 99.73 32.371 107.402 42.961 115.73 54.203 115.852 54.355 115.973 54.512 116.215 54.816 116.699 55.422 117.672 56.617 119.613 58.918 119.734 59.055 119.855 59.195 120.102 59.473 120.586 60.02 121.559 61.082 123.5 63.105 123.762 63.367 124.023 63.625 124.551 64.133 125.605 65.113 125.734 65.234 125.867 65.352 126.129 65.586 126.656 66.043 127.711 66.922 127.84 67.027 127.973 67.133 128.234 67.34 128.762 67.746 129.816 68.516 129.945 68.605 130.078 68.699 130.34 68.879 130.867 69.227 131.922 69.883 132.051 69.961 132.438 70.184 132.953 70.473 133.082 70.539 133.211 70.609 133.473 70.742 133.988 71 134.246 71.125 134.504 71.246 135.02 71.473 136.055 71.891 136.313 71.984 136.57 72.074 137.09 72.246 137.605 72.402 138.25 72.578 138.637 72.672 138.766 72.699 138.898 72.73 139.156 72.785 139.285 72.809 139.414 72.836 139.801 72.906 140.188 72.965 140.309 72.984 140.672 73.031 140.789 73.043 140.91 73.059 141.273 73.094 141.395 73.102 141.516 73.113 141.633 73.121 141.875 73.137 141.996 73.141 142.117 73.148 142.238 73.152 142.355 73.156 142.477 73.16H142.598L142.719 73.164H143.078L143.199 73.16H143.32L143.684 73.148 143.805 73.141 143.922 73.137 144.406 73.105 144.527 73.094 144.645 73.082 145.008 73.047 145.25 73.016 145.488 72.984 145.73 72.953 146.094 72.895 146.211 72.875 146.453 72.828 146.934 72.734 147.418 72.625 147.898 72.508 148.031 72.473 148.16 72.438 148.422 72.363 148.945 72.207 149.074 72.164 149.207 72.125 149.469 72.039 149.988 71.855 150.121 71.805 150.25 71.758 150.512 71.66 151.035 71.449 152.082 70.996 152.211 70.934 152.344 70.871 152.602 70.746 153.125 70.488 154.172 69.938 156.262 68.695 156.383 68.621 156.508 68.543 156.75 68.383 157.238 68.059 158.215 67.387 160.164 65.941 164.066 62.707 164.598 62.238 165.125 61.762 166.184 60.793 168.297 58.797 172.527 54.625 180.828 46.313 181.313 45.844 181.797 45.379 182.766 44.461 184.703 42.668 184.945 42.449 185.672 41.805 186.641 40.957 188.578 39.336 188.707 39.23 188.84 39.125 189.102 38.914 189.625 38.5 190.676 37.699 192.777 36.199 192.906 36.109 193.039 36.023 193.301 35.848 193.828 35.508 194.875 34.852 196.977 33.672 197.098 33.609 197.223 33.543 197.465 33.422 197.957 33.18 198.938 32.727 199.059 32.672 199.184 32.621 199.426 32.516 199.918 32.313 200.898 31.941 201.141 31.855 201.387 31.773 201.879 31.613 202 31.574 202.121 31.539 202.367 31.465 202.859 31.324 203.102 31.262 203.348 31.199 203.84 31.082 204.082 31.027 204.328 30.977 204.82 30.883 204.938 30.859 205.301 30.801 205.418 30.781 205.539 30.762 205.781 30.727 205.898 30.711 206.02 30.695 206.262 30.668 206.379 30.652 206.742 30.617 206.859 30.605 206.98 30.594 207.223 30.578 207.34 30.57 207.703 30.547 207.82 30.543 208.184 30.531 208.301 30.527 208.422 30.523H209.023L209.145 30.527H209.262L209.625 30.539 209.742 30.547 209.863 30.551 210.105 30.566 210.223 30.574 210.344 30.582 210.586 30.602 210.703 30.613 210.824 30.621 211.066 30.648 211.184 30.66 211.305 30.676 211.547 30.703 211.664 30.719 211.785 30.738 212.027 30.773 212.508 30.852 212.637 30.871 212.766 30.898 213.027 30.945 213.551 31.055 213.68 31.086 213.809 31.113 214.07 31.176 214.59 31.313 214.723 31.348 214.852 31.383 215.113 31.457 215.633 31.617 216.676 31.969 216.809 32.016 216.938 32.063 217.199 32.16 217.719 32.367 218.762 32.813 218.891 32.871 219.023 32.93 219.281 33.055 219.805 33.305 220.848 33.84 221.332 34.105 221.82 34.379 222.793 34.953 224.738 36.207 224.859 36.289 224.98 36.375 225.227 36.543 225.711 36.883 226.684 37.594 228.629 39.098 228.895 39.309 229.156 39.523 229.684 39.961 230.738 40.852 232.848 42.711 237.066 46.695 245.348 54.992 246.313 55.957 247.277 56.914 249.211 58.797 249.453 59.031 249.691 59.262 250.176 59.719 251.141 60.625 253.07 62.383 253.203 62.5 253.332 62.617 253.594 62.848 254.121 63.301 255.168 64.191 257.262 65.883 257.391 65.98 257.523 66.082 257.785 66.281 258.309 66.676 259.355 67.434 261.449 68.828 261.57 68.902 261.691 68.98 261.938 69.129 262.426 69.422 263.402 69.977 263.527 70.043 263.648 70.109 263.891 70.238 264.383 70.492 265.359 70.965 265.602 71.074 265.848 71.184 266.336 71.395 266.457 71.445 266.582 71.496 266.824 71.594 267.313 71.781 267.438 71.824 267.559 71.871 267.801 71.957 268.293 72.121 269.387 72.449 269.508 72.48 269.746 72.543 270.227 72.656 270.348 72.684 270.465 72.711 270.707 72.762 271.184 72.855 271.426 72.895 271.664 72.934 271.785 72.953 271.902 72.969 272.145 73.004 272.262 73.02 272.383 73.031 272.504 73.047 272.621 73.059 272.863 73.082 273.102 73.105 273.223 73.113 273.34 73.121 273.582 73.137 273.699 73.141 273.82 73.148 273.941 73.152 274.059 73.156 274.18 73.16H274.301L274.418 73.164H274.777L274.898 73.16H275.02L275.137 73.156 275.379 73.148 275.496 73.145 275.738 73.129 275.855 73.121 276.098 73.105 276.215 73.094 276.457 73.07 276.574 73.059 276.695 73.047 276.934 73.02 277.063 73 277.195 72.984 277.453 72.945 277.586 72.926 277.973 72.855 278.105 72.832 278.234 72.809 278.492 72.754 279.016 72.637 279.273 72.574 279.535 72.504 280.055 72.359 280.184 72.32 280.313 72.277 280.574 72.195 281.094 72.02 281.352 71.926 281.613 71.828 282.133 71.621 283.172 71.164 283.301 71.105 283.434 71.043 283.691 70.914 284.211 70.648 285.254 70.078 285.496 69.938 285.738 69.793 286.223 69.492 287.191 68.859 289.133 67.445 289.375 67.258 290.102 66.672 291.074 65.848 293.012 64.074 293.277 63.824 293.539 63.566 294.066 63.043 295.117 61.969 297.219 59.68 301.426 54.645 301.551 54.488 301.672 54.332 301.918 54.02 302.41 53.391 303.391 52.117 305.355 49.504 309.281 44.105 316.984 33.434 317.113 33.258 317.246 33.082 317.508 32.73 318.027 32.039 319.074 30.668 321.16 28.012 321.293 27.852 321.422 27.691 321.684 27.371 322.207 26.738 323.25 25.5 325.34 23.164 325.824 22.648 326.313 22.141 327.289 21.168 327.41 21.047 327.531 20.93 327.773 20.699 328.262 20.242 329.238 19.371 329.359 19.266 329.48 19.164 329.723 18.957 330.211 18.559 331.188 17.805 331.43 17.625 331.672 17.449 332.16 17.113 333.137 16.484 333.27 16.406 333.398 16.328 333.664 16.176 334.191 15.887 334.324 15.816 334.457 15.75 334.719 15.617 335.25 15.371 335.379 15.313 335.512 15.254 335.91 15.09 336.039 15.039 336.305 14.941 336.57 14.848 336.832 14.762 337.359 14.602 337.492 14.566 337.625 14.535 337.887 14.469 338.02 14.441 338.152 14.41 338.418 14.359 338.547 14.336 338.68 14.316 338.813 14.293 338.945 14.273 339.078 14.258 339.207 14.242 339.34 14.227 339.605 14.203 339.738 14.195 339.867 14.188 340 14.18 340.266 14.172H340.66L340.926 14.18 341.059 14.188 341.188 14.195 341.586 14.23 341.973 14.277 342.105 14.297 342.363 14.344 342.621 14.395 342.75 14.422 342.883 14.449 343.141 14.516 343.27 14.547 343.398 14.586 343.66 14.66 343.918 14.746 344.176 14.836 344.309 14.883 344.438 14.934 344.695 15.039 344.824 15.094 344.957 15.148 345.215 15.27 345.734 15.527 345.863 15.594 345.992 15.664 346.25 15.813 346.77 16.125 346.898 16.211 347.027 16.293 347.289 16.469 347.809 16.844 348.066 17.039 348.324 17.246 348.844 17.676 349.879 18.629 350 18.746 350.121 18.867 350.363 19.113 350.848 19.625 351.816 20.73 351.938 20.879 352.059 21.023 352.301 21.324 352.781 21.945 353.75 23.266 353.871 23.441 353.992 23.613 354.234 23.969 354.719 24.699 355.684 26.242 357.621 29.668 357.75 29.914 357.883 30.164 358.145 30.672 358.668 31.711 359.719 33.891 361.816 38.648 361.945 38.965 362.078 39.281 362.34 39.922 362.863 41.23 363.914 43.945 366.012 49.777 366.133 50.133 366.254 50.492 366.5 51.215 366.988 52.68 367.969 55.699 369.926 62.078 373.844 76.168 373.965 76.625 374.082 77.086 374.324 78.012 374.805 79.883 375.762 83.703 377.684 91.633 381.523 108.617 389.855 149.984 397.629 192.789 397.902 194.336 398.172 195.883 398.715 198.984 399.801 205.215 401.969 217.77 402.242 219.348 402.512 220.926 403.055 224.086 404.141 230.414 404.273 231.207 404.41 232 404.68 233.582 405.223 236.754 405.496 238.34 405.766 239.93 406.039 241.516 406.172 242.309 406.309 243.102"/>
<path stroke-width="1.44" stroke-linecap="square" stroke-miterlimit="3.25" stroke-linejoin="miter" fill="none" stroke="#8fb032" d="M11.195 243.102 11.316 241.918 11.438 240.738 11.68 238.375 12.164 233.652 13.137 224.219 15.074 205.484 18.953 169.039 19.082 167.836 19.215 166.641 19.477 164.25 20.004 159.508 21.055 150.168 23.156 132.129 23.285 131.031 23.418 129.941 23.68 127.766 24.207 123.469 25.258 115.07 27.359 99.129 27.48 98.234 27.605 97.348 27.852 95.582 28.34 92.102 29.32 85.352 31.285 72.727 31.406 71.977 31.531 71.23 31.773 69.758 32.266 66.863 33.246 61.313 35.211 51.16 35.332 50.578 35.449 50.004 35.691 48.867 36.172 46.652 37.133 42.457 37.254 41.953 37.375 41.457 37.613 40.477 38.098 38.574 39.059 35.004 39.301 34.16 39.539 33.336 40.02 31.746 40.984 28.801 41.102 28.453 41.223 28.113 41.465 27.441 41.945 26.16 42.906 23.824 43.039 23.531 43.168 23.242 43.43 22.684 43.949 21.629 44.082 21.379 44.211 21.133 44.473 20.66 44.992 19.777 45.125 19.57 45.254 19.367 45.516 18.977 45.645 18.793 45.777 18.609 46.039 18.262 46.297 17.934 46.559 17.629 47.082 17.074 47.211 16.949 47.344 16.828 47.602 16.598 47.734 16.492 47.863 16.391 48.125 16.203 48.254 16.117 48.387 16.031 48.516 15.953 48.648 15.883 48.777 15.813 48.906 15.75 49.168 15.637 49.301 15.586 49.43 15.539 49.559 15.5 49.691 15.465 49.82 15.434 49.953 15.406 50.082 15.383 50.211 15.363 50.344 15.348 50.602 15.332H50.734L50.863 15.336 50.996 15.344 51.125 15.355 51.254 15.371 51.379 15.387 51.621 15.434 51.863 15.496 51.984 15.531 52.109 15.574 52.352 15.66 52.473 15.711 52.715 15.82 52.84 15.883 52.961 15.945 53.203 16.082 53.324 16.152 53.445 16.23 53.691 16.391 53.813 16.477 53.934 16.566 54.176 16.754 54.301 16.852 54.422 16.953 54.664 17.164 55.152 17.621 55.273 17.742 55.395 17.867 55.641 18.125 56.125 18.668 57.102 19.887 57.223 20.047 57.586 20.551 58.074 21.254 59.047 22.766 59.18 22.977 59.313 23.195 59.574 23.637 60.102 24.539 61.16 26.445 63.27 30.574 67.492 39.594 67.621 39.879 67.75 40.16 68.012 40.73 68.527 41.863 69.563 44.125 71.637 48.563 71.766 48.836 71.895 49.105 72.156 49.645 72.672 50.711 73.711 52.797 75.781 56.727 76.023 57.164 76.266 57.594 76.75 58.434 77.715 60.047 77.957 60.438 78.199 60.82 78.684 61.563 79.648 62.977 79.77 63.145 79.891 63.309 80.133 63.641 80.617 64.273 81.582 65.461 81.703 65.598 81.824 65.738 82.066 66.008 82.547 66.523 83.516 67.469 83.645 67.586 83.777 67.703 84.039 67.926 84.563 68.348 84.695 68.449 84.824 68.547 85.086 68.734 85.613 69.082 85.742 69.16 85.875 69.238 86.137 69.391 86.266 69.461 86.398 69.531 86.66 69.66 86.789 69.723 86.922 69.781 87.184 69.895 87.316 69.949 87.445 69.996 87.707 70.09 87.84 70.133 87.969 70.176 88.102 70.215 88.23 70.25 88.363 70.285 88.492 70.316 88.758 70.371 88.887 70.395 89.02 70.418 89.148 70.438 89.281 70.453 89.41 70.469 89.543 70.484 89.672 70.492 89.805 70.5 89.934 70.508 90.066 70.512H90.328L90.461 70.508 90.59 70.504 90.723 70.496 90.852 70.488 90.984 70.477 91.113 70.461 91.246 70.445 91.375 70.426 91.508 70.406 91.637 70.383 91.902 70.328 92.145 70.273 92.391 70.207 92.633 70.137 92.879 70.059 93 70.016 93.125 69.969 93.367 69.875 93.859 69.668 93.98 69.609 94.102 69.555 94.348 69.43 94.836 69.168 94.957 69.098 95.082 69.023 95.324 68.875 95.816 68.559 95.938 68.477 96.059 68.391 96.305 68.219 96.793 67.852 97.773 67.047 97.895 66.941 98.016 66.832 98.262 66.613 98.75 66.156 99.73 65.184 99.848 65.059 99.969 64.934 100.207 64.676 100.688 64.156 101.648 63.066 103.566 60.723 107.402 55.598 107.531 55.418 107.664 55.238 107.922 54.879 108.445 54.16 109.484 52.715 111.566 49.863 111.695 49.688 111.828 49.512 112.086 49.164 112.605 48.473 113.648 47.117 115.73 44.543 115.852 44.398 115.973 44.258 116.215 43.973 116.699 43.418 117.672 42.355 117.914 42.098 118.156 41.844 118.645 41.352 119.613 40.418 119.734 40.305 119.855 40.195 120.102 39.977 120.586 39.555 121.559 38.77 121.68 38.68 121.801 38.586 122.043 38.41 122.527 38.066 123.5 37.445 123.629 37.367 123.762 37.293 124.023 37.145 124.551 36.871 124.684 36.805 124.816 36.742 125.078 36.621 125.605 36.398 125.734 36.348 125.867 36.297 126.129 36.203 126.262 36.156 126.395 36.113 126.656 36.031 126.789 35.996 126.922 35.957 127.184 35.891 127.316 35.859 127.445 35.828 127.711 35.773 127.84 35.75 128.105 35.703 128.234 35.684 128.367 35.668 128.5 35.648 128.633 35.637 128.762 35.621 128.895 35.609 129.027 35.602 129.156 35.594 129.289 35.586 129.422 35.582 129.551 35.578H129.945L130.078 35.582 130.211 35.59 130.34 35.594 130.473 35.605 130.605 35.613 130.738 35.625 130.867 35.641 131.133 35.672 131.262 35.688 131.395 35.711 131.527 35.73 131.656 35.754 131.922 35.805 132.051 35.832 132.566 35.957 132.695 35.992 132.953 36.066 133.082 36.105 133.211 36.148 133.473 36.234 133.988 36.426 134.246 36.527 134.504 36.637 135.02 36.875 135.148 36.938 135.281 37 135.539 37.133 136.055 37.41 136.313 37.559 136.57 37.711 137.09 38.031 138.121 38.73 138.379 38.918 138.637 39.109 139.156 39.504 140.188 40.344 140.43 40.547 140.672 40.758 141.152 41.18 142.117 42.066 144.043 43.957 147.898 48.059 148.031 48.199 148.16 48.344 148.422 48.629 148.945 49.203 149.988 50.348 152.082 52.602 152.211 52.738 152.344 52.879 152.602 53.152 153.125 53.695 154.172 54.762 156.262 56.77 156.383 56.879 156.508 56.988 156.75 57.211 157.238 57.637 158.215 58.461 158.457 58.656 158.703 58.852 159.188 59.227 160.164 59.934 160.285 60.02 160.41 60.102 160.652 60.266 161.141 60.582 161.262 60.66 161.383 60.734 161.629 60.883 162.117 61.164 162.359 61.297 162.605 61.43 163.094 61.676 163.336 61.793 163.578 61.906 164.066 62.121 164.199 62.172 164.332 62.227 164.73 62.379 164.859 62.426 165.125 62.516 165.391 62.602 165.652 62.68 166.184 62.824 166.316 62.855 166.445 62.887 166.711 62.945 166.844 62.969 166.977 62.996 167.238 63.043 167.637 63.102 167.902 63.133 168.031 63.145 168.43 63.18 168.563 63.188 168.691 63.191 168.824 63.199 168.957 63.203H169.484L169.75 63.195 170.148 63.172 170.277 63.16 170.543 63.137 170.809 63.105 170.941 63.086 171.07 63.07 171.203 63.047 171.469 63.004 171.602 62.98 171.734 62.953 171.996 62.898 172.262 62.836 172.527 62.77 172.785 62.699 173.047 62.625 173.563 62.457 173.695 62.41 174.082 62.27 174.602 62.063 174.73 62.008 174.863 61.949 175.121 61.836 175.641 61.59 176.68 61.039 176.809 60.969 176.938 60.895 177.195 60.742 177.715 60.422 178.754 59.738 180.828 58.195 181.313 57.805 181.797 57.402 182.766 56.57 184.703 54.813 188.578 51.059 188.707 50.93 188.84 50.801 189.102 50.539 189.625 50.023 190.676 48.992 192.777 46.977 192.906 46.852 193.039 46.73 193.301 46.488 193.828 46.004 194.875 45.066 196.977 43.316 197.098 43.219 197.223 43.121 197.465 42.934 197.957 42.566 198.938 41.863 199.059 41.781 199.184 41.695 199.426 41.535 199.918 41.215 200.898 40.625 201.02 40.559 201.141 40.488 201.387 40.355 201.879 40.098 202 40.035 202.121 39.977 202.367 39.855 202.859 39.633 202.98 39.578 203.102 39.527 203.348 39.426 203.84 39.234 203.961 39.188 204.082 39.145 204.328 39.063 204.82 38.906 204.938 38.871 205.059 38.836 205.301 38.77 205.418 38.738 205.539 38.707 205.781 38.652 205.898 38.625 206.02 38.598 206.262 38.551 206.379 38.527 206.5 38.504 206.742 38.465 206.859 38.449 206.98 38.43 207.223 38.398 207.34 38.387 207.703 38.352 207.82 38.344 208.184 38.32 208.301 38.316 208.422 38.313H208.543L208.664 38.309H208.902L209.145 38.316 209.262 38.32 209.383 38.324 209.625 38.34 209.742 38.348 209.863 38.355 210.105 38.379 210.223 38.395 210.344 38.406 210.586 38.438 210.703 38.457 211.066 38.516 211.184 38.539 211.547 38.609 211.664 38.637 211.785 38.664 212.027 38.723 212.508 38.852 212.766 38.93 213.027 39.012 213.551 39.191 213.68 39.238 213.809 39.289 214.07 39.391 214.59 39.609 214.723 39.668 214.852 39.727 215.113 39.848 215.633 40.102 216.676 40.668 216.809 40.742 216.938 40.82 217.199 40.977 217.719 41.301 218.762 42 220.848 43.57 221.09 43.766 221.332 43.965 221.82 44.371 222.793 45.211 224.738 46.988 228.629 50.766 228.895 51.023 229.156 51.285 229.684 51.805 230.738 52.84 232.848 54.855 232.98 54.98 233.113 55.102 233.375 55.348 233.902 55.828 234.957 56.762 237.066 58.504 237.195 58.602 237.324 58.703 237.582 58.898 238.102 59.281 239.137 60 239.395 60.172 239.652 60.34 240.172 60.66 241.207 61.25 241.336 61.32 241.723 61.52 242.242 61.77 242.5 61.887 242.758 62 243.277 62.211 243.535 62.313 243.793 62.406 243.926 62.449 244.313 62.578 244.57 62.656 244.828 62.73 245.348 62.863 245.469 62.891 245.59 62.914 245.832 62.965 245.949 62.988 246.07 63.012 246.434 63.07 246.918 63.133 247.039 63.145 247.156 63.156 247.277 63.164 247.398 63.176 247.52 63.184 247.641 63.188 247.762 63.195 248.004 63.203H248.484L248.848 63.191 249.332 63.16 249.453 63.148 249.57 63.137 249.934 63.09 250.176 63.055 250.418 63.016 250.656 62.973 250.777 62.945 250.898 62.922 251.262 62.84 251.625 62.746 251.746 62.711 251.863 62.676 252.105 62.602 252.227 62.566 252.348 62.527 252.59 62.445 253.07 62.266 253.203 62.215 253.332 62.16 253.594 62.051 254.121 61.816 254.25 61.754 254.383 61.691 254.645 61.563 255.168 61.285 255.297 61.215 255.43 61.141 255.691 60.992 256.215 60.676 257.262 59.988 257.391 59.898 257.523 59.809 257.785 59.621 258.309 59.23 259.355 58.406 261.449 56.578 261.691 56.352 261.938 56.121 262.426 55.652 263.402 54.688 265.359 52.668 269.27 48.426 269.387 48.297 269.508 48.164 269.746 47.902 270.227 47.379 271.184 46.344 273.102 44.324 273.223 44.203 273.34 44.082 273.582 43.836 274.059 43.355 275.02 42.418 276.934 40.668 277.063 40.559 277.195 40.445 277.453 40.227 277.973 39.801 279.016 39 279.145 38.902 279.273 38.809 279.535 38.625 280.055 38.27 281.094 37.617 281.223 37.539 281.352 37.465 281.613 37.32 282.133 37.047 282.262 36.98 282.395 36.918 282.652 36.793 283.172 36.563 283.301 36.512 283.434 36.457 283.691 36.355 283.824 36.309 283.953 36.262 284.211 36.172 284.344 36.133 284.473 36.09 284.73 36.016 284.863 35.977 284.992 35.941 285.254 35.879 285.617 35.797 285.859 35.75 286.223 35.691 286.586 35.645 286.949 35.609 287.313 35.586 287.555 35.578H287.922L288.285 35.59 288.648 35.613 288.891 35.637 289.375 35.699 289.496 35.719 289.617 35.742 289.738 35.762 289.859 35.789 290.102 35.84 290.344 35.895 290.586 35.961 291.074 36.102 291.195 36.141 291.559 36.27 292.043 36.457 292.285 36.559 292.527 36.668 293.012 36.902 293.277 37.035 293.539 37.18 294.066 37.48 294.195 37.563 294.328 37.641 294.59 37.809 295.117 38.164 295.246 38.254 295.379 38.348 295.641 38.539 296.168 38.941 297.219 39.813 297.484 40.047 297.746 40.285 298.27 40.773 299.324 41.82 301.426 44.133 301.551 44.277 301.672 44.422 301.918 44.711 302.41 45.305 303.391 46.523 305.355 49.078 309.281 54.465 309.523 54.801 309.762 55.133 310.246 55.797 311.207 57.113 313.133 59.684 313.254 59.844 313.375 60 313.613 60.309 314.098 60.922 315.059 62.113 316.984 64.34 317.113 64.484 317.246 64.625 317.508 64.902 318.027 65.441 319.074 66.457 319.203 66.574 319.332 66.695 319.594 66.926 320.117 67.375 321.16 68.188 321.293 68.285 321.422 68.375 321.684 68.555 322.207 68.895 322.465 69.051 322.727 69.199 323.25 69.477 323.379 69.543 323.512 69.605 323.773 69.723 323.902 69.781 324.031 69.836 324.293 69.938 324.426 69.988 324.555 70.031 324.816 70.121 324.945 70.16 325.078 70.195 325.34 70.266 325.461 70.297 325.703 70.352 325.824 70.375 325.949 70.395 326.07 70.418 326.434 70.465 326.559 70.477 326.68 70.488 326.922 70.504 327.043 70.508 327.168 70.512H327.41L327.652 70.504 327.773 70.496 327.898 70.488 328.141 70.465 328.383 70.434 328.508 70.414 328.629 70.395 328.75 70.371 328.871 70.344 328.992 70.32 329.238 70.258 329.359 70.227 329.48 70.191 329.723 70.113 329.848 70.074 329.969 70.031 330.332 69.891 330.457 69.84 330.699 69.73 331.188 69.488 331.43 69.355 331.672 69.215 332.16 68.906 332.281 68.824 332.406 68.742 332.648 68.566 333.137 68.195 333.27 68.09 333.398 67.98 333.664 67.758 334.191 67.281 334.324 67.156 334.457 67.027 334.719 66.766 335.25 66.215 335.379 66.07 335.512 65.926 335.777 65.629 336.305 65.004 337.359 63.656 337.625 63.297 337.887 62.93 338.418 62.168 339.473 60.555 341.586 56.977 341.844 56.508 342.105 56.031 342.621 55.063 343.66 53.063 345.734 48.844 349.879 39.883 350.121 39.352 350.363 38.824 350.848 37.766 351.816 35.668 353.75 31.57 353.871 31.32 353.992 31.074 354.234 30.578 354.719 29.602 355.684 27.699 357.621 24.164 357.75 23.938 357.883 23.715 358.145 23.277 358.668 22.426 358.801 22.219 358.93 22.012 359.191 21.613 359.719 20.836 359.848 20.648 359.98 20.465 360.242 20.105 360.766 19.414 360.898 19.25 361.027 19.09 361.289 18.773 361.816 18.18 361.945 18.039 362.078 17.898 362.34 17.633 362.469 17.508 362.602 17.383 362.863 17.145 362.996 17.027 363.125 16.918 363.387 16.707 363.914 16.324 364.043 16.238 364.176 16.156 364.438 16.004 364.566 15.934 364.699 15.863 364.961 15.742 365.094 15.688 365.223 15.633 365.355 15.586 365.484 15.543 365.617 15.504 365.746 15.469 365.879 15.438 366.012 15.41 366.133 15.387 366.254 15.367 366.379 15.355 366.5 15.344 366.621 15.336 366.746 15.332H366.867L366.988 15.336 367.113 15.344 367.234 15.355 367.355 15.371 367.48 15.391 367.602 15.414 367.723 15.441 367.848 15.473 367.969 15.508 368.09 15.547 368.215 15.59 368.336 15.637 368.457 15.688 368.582 15.742 368.703 15.801 368.949 15.934 369.07 16.004 369.191 16.078 369.438 16.242 369.559 16.332 369.684 16.422 369.926 16.621 370.051 16.727 370.172 16.836 370.418 17.066 370.66 17.316 370.906 17.582 371.027 17.723 371.152 17.867 371.395 18.172 371.887 18.828 372.008 19.004 372.129 19.188 372.375 19.563 372.863 20.367 372.988 20.578 373.109 20.797 373.355 21.246 373.844 22.203 373.965 22.449 374.082 22.699 374.324 23.215 374.805 24.301 375.762 26.695 375.883 27.016 376.004 27.34 376.242 28.004 376.723 29.391 377.684 32.398 377.805 32.793 377.922 33.195 378.164 34.016 378.645 35.711 379.602 39.336 381.523 47.52 381.652 48.121 381.785 48.727 382.043 49.953 382.563 52.48 383.605 57.801 385.688 69.516 385.82 70.297 385.949 71.078 386.211 72.664 386.73 75.895 387.773 82.613 389.855 97.023 389.977 97.902 390.098 98.785 390.34 100.563 390.828 104.168 391.797 111.57 393.742 127.098 397.629 160.656 397.766 161.879 397.902 163.105 398.172 165.563 398.715 170.52 399.801 180.555 401.969 201.063 402.242 203.656 402.512 206.262 403.055 211.48 404.141 221.977 404.273 223.293 404.41 224.613 404.68 227.246 405.223 232.527 405.496 235.168 405.766 237.813 405.902 239.133 406.039 240.457 406.172 241.777 406.309 243.102"/>
<path stroke-width="1.44" stroke-linecap="square" stroke-miterlimit="3.25" stroke-linejoin="miter" fill="none" stroke="#eb6235" d="M11.195 243.102 11.316 231.289 11.438 219.516 11.68 196.223 11.801 184.773 11.922 173.504 12.164 151.633 12.285 141.094 12.406 130.859 12.648 111.418 12.77 102.258 12.891 93.504 13.137 77.285 13.258 69.855 13.379 62.891 13.5 56.41 13.621 50.418 13.742 44.918 13.863 39.914 13.984 35.406 14.105 31.391 14.227 27.867 14.348 24.824 14.469 22.258 14.59 20.148 14.711 18.488 14.832 17.262 14.953 16.453 15.074 16.039 15.195 16 15.316 16.313 15.438 16.957 15.559 17.906 15.68 19.137 15.801 20.625 15.922 22.336 16.043 24.25 16.164 26.336 16.285 28.57 16.527 33.367 17.012 43.555 17.133 46.082 17.254 48.555 17.496 53.262 17.617 55.461 17.738 57.531 17.859 59.465 17.98 61.242 18.102 62.859 18.223 64.301 18.344 65.566 18.465 66.645 18.586 67.531 18.711 68.23 18.832 68.738 18.953 69.055 19.082 69.188 19.215 69.109 19.344 68.82 19.477 68.34 19.609 67.672 19.738 66.828 19.871 65.832 20.004 64.691 20.133 63.426 20.266 62.051 20.527 59.047 21.055 52.543 21.184 50.918 21.316 49.332 21.449 47.797 21.578 46.328 21.711 44.941 21.84 43.648 21.973 42.461 22.105 41.391 22.234 40.445 22.367 39.633 22.5 38.957 22.629 38.422 22.762 38.031 22.895 37.789 23.023 37.688 23.156 37.734 23.285 37.914 23.418 38.23 23.551 38.676 23.68 39.242 23.813 39.918 23.945 40.695 24.074 41.566 24.207 42.516 24.336 43.535 24.469 44.613 24.73 46.879 25.258 51.527 25.391 52.637 25.52 53.703 25.652 54.715 25.781 55.66 25.914 56.535 26.047 57.328 26.176 58.031 26.309 58.637 26.441 59.148 26.57 59.551 26.703 59.848 26.832 60.039 26.965 60.121 27.098 60.098 27.227 59.969 27.359 59.738 27.48 59.43 27.605 59.047 27.727 58.582 27.852 58.051 27.973 57.453 28.094 56.797 28.34 55.34 28.465 54.551 28.586 53.738 28.832 52.055 29.32 48.711 29.445 47.922 29.566 47.172 29.691 46.461 29.813 45.797 29.934 45.184 30.059 44.633 30.18 44.141 30.305 43.719 30.426 43.363 30.547 43.082 30.672 42.871 30.793 42.738 30.918 42.68 31.039 42.695 31.16 42.785 31.285 42.949 31.406 43.18 31.531 43.477 31.652 43.836 31.773 44.258 31.898 44.73 32.02 45.254 32.266 46.422 32.387 47.059 32.512 47.719 32.758 49.09 33.246 51.84 33.371 52.492 33.492 53.117 33.617 53.711 33.738 54.27 33.859 54.781 33.984 55.25 34.105 55.668 34.23 56.031 34.352 56.336 34.473 56.586 34.598 56.773 34.719 56.895 34.844 56.957H34.965L35.086 56.895 35.211 56.773 35.332 56.598 35.449 56.363 35.57 56.082 35.691 55.75 35.813 55.371 35.93 54.953 36.172 54.008 36.293 53.492 36.414 52.953 36.652 51.824 37.133 49.527 37.254 48.977 37.375 48.441 37.496 47.93 37.613 47.445 37.734 46.992 37.855 46.578 37.977 46.199 38.098 45.863 38.215 45.574 38.336 45.332 38.457 45.137 38.578 44.992 38.699 44.902 38.816 44.859 38.938 44.871 39.059 44.93 39.18 45.043 39.301 45.203 39.418 45.406 39.539 45.66 39.66 45.953 39.781 46.281 39.898 46.648 40.02 47.047 40.141 47.473 40.262 47.926 40.5 48.879 40.984 50.875 41.102 51.367 41.223 51.848 41.344 52.309 41.465 52.754 41.582 53.172 41.703 53.563 41.824 53.918 41.945 54.242 42.066 54.531 42.184 54.777 42.305 54.984 42.426 55.148 42.547 55.27 42.668 55.344 42.785 55.371 42.906 55.355 43.039 55.289 43.168 55.172 43.297 55.004 43.43 54.785 43.559 54.527 43.688 54.223 43.82 53.883 43.949 53.508 44.082 53.105 44.211 52.676 44.473 51.758 44.992 49.844 45.125 49.375 45.254 48.926 45.387 48.492 45.516 48.086 45.645 47.707 45.777 47.359 45.906 47.051 46.039 46.777 46.168 46.547 46.297 46.363 46.43 46.219 46.559 46.125 46.691 46.078H46.82L46.949 46.125 47.082 46.215 47.211 46.355 47.344 46.535 47.473 46.758 47.602 47.016 47.734 47.313 47.863 47.637 48.125 48.371 48.254 48.77 48.387 49.184 48.648 50.039 49.168 51.734 49.301 52.129 49.43 52.5 49.559 52.848 49.691 53.168 49.82 53.457 49.953 53.715 50.082 53.934 50.211 54.113 50.344 54.25 50.473 54.348 50.602 54.402 50.734 54.418 50.863 54.387 50.996 54.316 51.125 54.203 51.254 54.051 51.379 53.871 51.5 53.664 51.621 53.43 51.742 53.168 51.863 52.883 51.984 52.574 52.23 51.906 52.352 51.555 52.473 51.195 52.715 50.465 52.84 50.102 52.961 49.742 53.203 49.051 53.324 48.727 53.445 48.422 53.57 48.137 53.691 47.875 53.813 47.641 53.934 47.434 54.055 47.254 54.176 47.105 54.301 46.988 54.422 46.906 54.543 46.855 54.664 46.844 54.785 46.859 54.906 46.914 55.031 46.996 55.152 47.113 55.273 47.262 55.395 47.438 55.516 47.645 55.641 47.871 55.762 48.125 55.883 48.398 56.125 48.992 56.246 49.313 56.371 49.637 56.613 50.309 57.102 51.613 57.223 51.918 57.344 52.207 57.465 52.477 57.586 52.727 57.707 52.953 57.832 53.156 57.953 53.336 58.074 53.484 58.195 53.605 58.316 53.695 58.438 53.754 58.563 53.781 58.684 53.777 58.805 53.742 58.926 53.68 59.047 53.586 59.18 53.449 59.313 53.281 59.445 53.086 59.574 52.859 59.707 52.609 59.84 52.336 60.102 51.738 60.234 51.418 60.367 51.086 60.633 50.418 60.762 50.082 60.895 49.754 61.16 49.129 61.289 48.84 61.422 48.57 61.555 48.32 61.688 48.098 61.82 47.898 61.949 47.73 62.082 47.594 62.215 47.488 62.348 47.418 62.477 47.379 62.609 47.375 62.742 47.402 62.875 47.469 63.008 47.563 63.137 47.691 63.27 47.848 63.402 48.031 63.535 48.242 63.664 48.477 63.797 48.73 63.93 49 64.063 49.289 64.324 49.895 64.457 50.203 64.59 50.516 64.852 51.133 64.984 51.43 65.117 51.711 65.379 52.23 65.512 52.461 65.645 52.672 65.777 52.852 65.91 53.008 66.039 53.133 66.172 53.23 66.305 53.297 66.438 53.328 66.566 53.332 66.699 53.301 66.832 53.242 66.965 53.152 67.098 53.031 67.227 52.883 67.359 52.711 67.492 52.512 67.621 52.297 67.75 52.063 68.012 51.551 68.527 50.422 68.656 50.137 68.789 49.855 68.918 49.582 69.047 49.32 69.176 49.07 69.305 48.836 69.434 48.621 69.563 48.426 69.695 48.25 69.824 48.102 69.953 47.977 70.082 47.879 70.211 47.813 70.34 47.77 70.473 47.758 70.602 47.773 70.73 47.816 70.859 47.891 70.988 47.988 71.117 48.113 71.25 48.262 71.379 48.434 71.508 48.629 71.637 48.84 71.766 49.066 71.895 49.309 72.156 49.82 72.285 50.086 72.672 50.895 72.805 51.152 72.934 51.406 73.063 51.648 73.191 51.875 73.32 52.09 73.449 52.281 73.578 52.457 73.711 52.609 73.84 52.738 73.969 52.84 74.098 52.922 74.227 52.973 74.355 52.996H74.488L74.617 52.969 74.746 52.914 74.875 52.832 75.004 52.727 75.133 52.598 75.266 52.445 75.395 52.273 75.523 52.082 75.781 51.652 75.902 51.438 76.023 51.211 76.387 50.508 76.508 50.27 76.75 49.805 76.871 49.582 76.992 49.367 77.109 49.164 77.23 48.973 77.352 48.793 77.473 48.633 77.594 48.488 77.715 48.363 77.836 48.262 77.957 48.176 78.078 48.113 78.199 48.07 78.32 48.051 78.441 48.055 78.563 48.078 78.684 48.125 78.805 48.191 78.922 48.281 79.043 48.391 79.164 48.516 79.285 48.66 79.406 48.824 79.648 49.188 79.77 49.387 79.891 49.594 80.133 50.031 80.254 50.254 80.375 50.48 80.617 50.926 80.734 51.141 80.855 51.352 80.977 51.551 81.098 51.742 81.219 51.922 81.34 52.082 81.461 52.23 81.582 52.363 81.703 52.477 81.824 52.57 81.945 52.645 82.066 52.699 82.188 52.73 82.309 52.742 82.426 52.734 82.547 52.707 82.668 52.656 82.789 52.586 82.91 52.492 83.031 52.387 83.152 52.258 83.273 52.117 83.395 51.961 83.516 51.789 83.645 51.59 83.777 51.383 84.039 50.938 84.172 50.707 84.301 50.473 84.563 50.012 84.695 49.789 84.824 49.574 84.957 49.367 85.086 49.176 85.219 48.996 85.348 48.836 85.48 48.691 85.613 48.566 85.742 48.465 85.875 48.383 86.004 48.324 86.137 48.289 86.266 48.277 86.398 48.289 86.527 48.324 86.66 48.379 86.789 48.461 86.922 48.563 87.055 48.684 87.184 48.824 87.316 48.984 87.445 49.156 87.707 49.543 87.84 49.75 87.969 49.965 88.23 50.406 88.363 50.629 88.492 50.848 88.758 51.27 88.887 51.469 89.02 51.652 89.148 51.828 89.281 51.984 89.41 52.125 89.543 52.246 89.672 52.348 89.805 52.43 89.934 52.488 90.066 52.527 90.199 52.543 90.328 52.535 90.461 52.504 90.59 52.453 90.723 52.379 90.852 52.285 90.984 52.168 91.113 52.039 91.246 51.891 91.375 51.727 91.508 51.547 91.637 51.359 91.902 50.957 92.023 50.762 92.145 50.563 92.391 50.168 92.512 49.973 92.633 49.785 92.879 49.43 93 49.266 93.125 49.113 93.246 48.977 93.367 48.852 93.492 48.742 93.613 48.648 93.734 48.574 93.859 48.52 93.98 48.48 94.102 48.461 94.223 48.457 94.348 48.477 94.469 48.512 94.59 48.566 94.715 48.641 94.836 48.73 94.957 48.836 95.082 48.957 95.203 49.09 95.324 49.238 95.449 49.395 95.57 49.563 95.816 49.922 96.059 50.297 96.305 50.68 96.426 50.867 96.547 51.051 96.793 51.395 96.914 51.555 97.039 51.703 97.16 51.844 97.281 51.965 97.406 52.074 97.527 52.168 97.648 52.246 97.773 52.305 97.895 52.348 98.016 52.375 98.141 52.379 98.262 52.367 98.383 52.34 98.504 52.289 98.629 52.227 98.75 52.145 98.871 52.047 98.996 51.938 99.117 51.809 99.238 51.672 99.363 51.523 99.484 51.363 99.73 51.023 99.848 50.848 99.969 50.672 100.207 50.309 100.449 49.957 100.688 49.625 100.809 49.469 100.93 49.324 101.047 49.188 101.168 49.063 101.289 48.953 101.406 48.855 101.527 48.773 101.648 48.707 101.766 48.656 101.887 48.621 102.008 48.605H102.129L102.246 48.621 102.367 48.652 102.488 48.703 102.605 48.766 102.727 48.848 102.848 48.941 102.965 49.051 103.086 49.172 103.207 49.301 103.324 49.445 103.566 49.754 103.688 49.918 103.805 50.09 104.047 50.434 104.164 50.605 104.285 50.777 104.523 51.109 104.645 51.27 104.766 51.418 104.887 51.559 105.004 51.688 105.125 51.809 105.246 51.914 105.363 52.008 105.484 52.086 105.605 52.148 105.723 52.195 105.844 52.23 105.965 52.246H106.086L106.203 52.23 106.324 52.195 106.445 52.148 106.563 52.086 106.684 52.008 106.805 51.914 106.922 51.809 107.043 51.691 107.164 51.566 107.402 51.281 107.531 51.113 107.664 50.941 107.922 50.578 108.055 50.398 108.184 50.215 108.445 49.863 108.574 49.699 108.703 49.539 108.836 49.391 108.965 49.254 109.094 49.133 109.223 49.023 109.355 48.93 109.484 48.852 109.613 48.793 109.746 48.75 109.875 48.727 110.004 48.723 110.137 48.738 110.266 48.77 110.395 48.82 110.527 48.887 110.656 48.969 110.785 49.07 110.914 49.184 111.047 49.313 111.176 49.453 111.305 49.602 111.566 49.926 111.695 50.098 111.828 50.273 112.086 50.625 112.219 50.801 112.348 50.969 112.605 51.289 112.738 51.438 112.867 51.574 112.996 51.699 113.129 51.809 113.258 51.906 113.387 51.988 113.52 52.051 113.648 52.098 113.777 52.129 113.906 52.137 114.039 52.133 114.168 52.105 114.297 52.066 114.43 52.004 114.559 51.93 114.688 51.84 114.82 51.734 114.949 51.613 115.078 51.48 115.211 51.34 115.34 51.188 115.469 51.031 115.73 50.695 115.852 50.539 115.973 50.379 116.215 50.063 116.336 49.91 116.457 49.762 116.699 49.488 116.82 49.367 116.945 49.254 117.066 49.152 117.188 49.063 117.309 48.988 117.43 48.926 117.551 48.875 117.672 48.844 117.793 48.824H117.914L118.035 48.836 118.156 48.863 118.277 48.906 118.398 48.961 118.523 49.031 118.645 49.117 118.766 49.211 118.887 49.32 119.008 49.438 119.129 49.563 119.25 49.699 119.371 49.84 119.613 50.141 119.734 50.293 119.855 50.449 120.102 50.758 120.223 50.91 120.344 51.055 120.586 51.328 120.707 51.453 120.828 51.57 120.949 51.676 121.07 51.77 121.191 51.848 121.313 51.918 121.434 51.973 121.559 52.012 121.68 52.035 121.801 52.047 121.922 52.043 122.043 52.023 122.164 51.992 122.285 51.945 122.406 51.883 122.527 51.809 122.648 51.723 122.77 51.621 122.891 51.512 123.012 51.395 123.137 51.266 123.258 51.133 123.5 50.844 123.629 50.684 123.762 50.52 124.023 50.191 124.156 50.031 124.289 49.879 124.551 49.59 124.684 49.461 124.816 49.34 124.945 49.234 125.078 49.141 125.211 49.063 125.34 48.996 125.473 48.949 125.605 48.918 125.734 48.906 125.867 48.91 126 48.93 126.129 48.965 126.262 49.02 126.395 49.086 126.527 49.168 126.656 49.266 126.789 49.379 126.922 49.5 127.184 49.773 127.316 49.918 127.445 50.074 127.711 50.391 127.84 50.551 127.973 50.711 128.234 51.02 128.367 51.164 128.5 51.301 128.633 51.426 128.762 51.543 128.895 51.648 129.027 51.742 129.156 51.816 129.289 51.879 129.422 51.926 129.551 51.957 129.684 51.973 129.816 51.969 129.945 51.949 130.078 51.914 130.211 51.863 130.34 51.797 130.473 51.715 130.605 51.621 130.738 51.512 130.867 51.395 131 51.266 131.133 51.129 131.395 50.836 131.922 50.211 132.051 50.063 132.18 49.918 132.309 49.777 132.438 49.645 132.566 49.52 132.695 49.406 132.824 49.305 132.953 49.215 133.082 49.137 133.211 49.074 133.34 49.027 133.473 48.996 133.602 48.977H133.73L133.859 48.988 133.988 49.02 134.117 49.063 134.246 49.121 134.375 49.195 134.504 49.281 134.633 49.379 134.762 49.488 134.891 49.605 135.02 49.734 135.148 49.871 135.281 50.012 136.055 50.902 136.184 51.043 136.313 51.176 136.441 51.305 136.57 51.422 136.699 51.527 136.828 51.621 136.957 51.707 137.09 51.773 137.219 51.832 137.348 51.871 137.477 51.898 137.605 51.91 137.734 51.902 137.863 51.883 137.992 51.852 138.121 51.801 138.25 51.738 138.379 51.66 138.508 51.57 138.637 51.469 138.766 51.359 138.898 51.238 139.156 50.973 139.285 50.832 139.414 50.688 139.672 50.391 139.93 50.102 140.188 49.824 140.309 49.707 140.43 49.594 140.551 49.488 140.672 49.391 140.789 49.305 140.91 49.23 141.031 49.168 141.152 49.113 141.273 49.074 141.395 49.047 141.516 49.035 141.633 49.031 141.754 49.047 141.875 49.07 141.996 49.109 142.117 49.156 142.238 49.219 142.355 49.293 142.477 49.375 142.598 49.469 142.719 49.574 142.84 49.684 143.078 49.922 143.199 50.051 143.32 50.184 143.563 50.453 144.043 50.98 144.164 51.102 144.285 51.219 144.406 51.328 144.527 51.43 144.645 51.52 144.766 51.602 144.887 51.676 145.008 51.734 145.129 51.785 145.25 51.82 145.367 51.844 145.488 51.855 145.609 51.852 145.73 51.84 145.852 51.813 145.973 51.773 146.094 51.719 146.211 51.656 146.332 51.582 146.453 51.5 146.574 51.406 146.695 51.305 146.934 51.078 147.176 50.828 147.418 50.566 147.898 50.043 148.031 49.906 148.16 49.777 148.293 49.656 148.422 49.547 148.551 49.441 148.684 49.352 148.813 49.273 148.945 49.207 149.074 49.152 149.207 49.113 149.336 49.09 149.469 49.082 149.598 49.086 149.727 49.105 149.859 49.141 149.988 49.191 150.121 49.25 150.25 49.328 150.383 49.414 150.512 49.512 150.645 49.621 150.773 49.738 151.035 49.996 151.164 50.133 151.297 50.273 151.559 50.555 151.688 50.695 151.82 50.832 152.082 51.094 152.211 51.215 152.344 51.328 152.473 51.434 152.602 51.523 152.734 51.605 152.863 51.676 152.996 51.73 153.125 51.77 153.258 51.797 153.387 51.813 153.52 51.809 153.648 51.793 153.781 51.762 153.91 51.719 154.039 51.66 154.172 51.586 154.301 51.504 154.434 51.41 154.563 51.305 154.695 51.191 154.824 51.07 154.957 50.941 155.215 50.672 155.348 50.531 155.477 50.391 155.738 50.117 156 49.855 156.262 49.621 156.383 49.523 156.508 49.438 156.629 49.355 156.75 49.289 156.871 49.23 156.992 49.184 157.117 49.152 157.238 49.129 157.359 49.121 157.48 49.125 157.605 49.141 157.727 49.168 157.848 49.207 157.969 49.262 158.09 49.324 158.215 49.398 158.336 49.48 158.457 49.574 158.703 49.785 158.824 49.898 158.945 50.02 159.188 50.27 159.313 50.395 159.434 50.523 159.676 50.777 159.801 50.902 159.922 51.02 160.164 51.238 160.285 51.34 160.41 51.43 160.531 51.512 160.652 51.582 160.773 51.645 160.898 51.695 161.02 51.734 161.141 51.758 161.262 51.773H161.383L161.508 51.766 161.629 51.742 161.75 51.707 161.871 51.66 161.996 51.602 162.117 51.531 162.238 51.453 162.359 51.363 162.48 51.27 162.605 51.164 162.727 51.055 162.848 50.938 163.094 50.691 163.215 50.566 163.336 50.438 163.578 50.188 163.703 50.063 163.824 49.945 164.066 49.723 164.199 49.613 164.332 49.516 164.465 49.426 164.598 49.348 164.73 49.281 164.859 49.227 164.992 49.188 165.125 49.164 165.258 49.152 165.391 49.156 165.523 49.176 165.652 49.207 165.785 49.254 165.918 49.313 166.051 49.383 166.184 49.469 166.316 49.563 166.445 49.664 166.711 49.898 166.844 50.023 166.977 50.156 167.238 50.426 167.371 50.563 167.504 50.695 167.77 50.957 167.902 51.078 168.031 51.195 168.164 51.301 168.297 51.398 168.43 51.484 168.563 51.563 168.691 51.625 168.824 51.676 168.957 51.715 169.09 51.738 169.223 51.746 169.355 51.742 169.484 51.723 169.617 51.688 169.75 51.641 169.883 51.582 170.016 51.508 170.148 51.426 170.277 51.332 170.41 51.227 170.543 51.117 170.676 50.996 170.941 50.742 171.07 50.605 171.203 50.473 171.469 50.203 171.602 50.074 171.734 49.949 171.863 49.828 171.996 49.715 172.129 49.609 172.262 49.516 172.395 49.43 172.527 49.355 172.656 49.293 172.785 49.246 172.914 49.211 173.047 49.188 173.176 49.18 173.305 49.184 173.434 49.203 173.563 49.234 173.695 49.281 173.824 49.336 173.953 49.406 174.082 49.488 174.211 49.578 174.344 49.676 174.602 49.898 174.73 50.02 174.863 50.148 175.25 50.535 175.379 50.668 175.641 50.918 175.77 51.039 175.898 51.152 176.027 51.258 176.16 51.355 176.289 51.441 176.418 51.52 176.547 51.582 176.68 51.637 176.809 51.68 176.938 51.707 177.066 51.719 177.195 51.723 177.328 51.711 177.457 51.684 177.586 51.645 177.715 51.594 177.848 51.531 177.977 51.457 178.105 51.371 178.234 51.273 178.363 51.172 178.496 51.059 178.754 50.82 178.883 50.695 179.402 50.176 179.531 50.051 179.793 49.816 179.922 49.707 180.051 49.609 180.18 49.516 180.313 49.438 180.441 49.367 180.57 49.309 180.699 49.262 180.828 49.227 180.949 49.207 181.07 49.199 181.191 49.203 181.313 49.219 181.434 49.246 181.555 49.285 181.676 49.332 181.797 49.391 181.918 49.461 182.039 49.539 182.16 49.625 182.281 49.719 182.402 49.82 182.523 49.926 182.766 50.156 182.887 50.273 183.008 50.395 183.25 50.633 183.492 50.867 183.734 51.086 183.855 51.188 183.977 51.281 184.098 51.367 184.219 51.445 184.34 51.516 184.461 51.574 184.582 51.621 184.703 51.66 184.824 51.688 184.945 51.699 185.066 51.703 185.188 51.695 185.309 51.676 185.43 51.648 185.551 51.605 185.672 51.555 185.793 51.492 185.914 51.418 186.035 51.34 186.156 51.25 186.277 51.152 186.398 51.051 186.641 50.828 186.762 50.715 186.883 50.594 187.125 50.355 187.367 50.121 187.609 49.898 187.73 49.793 187.852 49.695 187.973 49.605 188.094 49.523 188.215 49.449 188.336 49.383 188.457 49.328 188.578 49.285 188.707 49.246 188.84 49.227 188.973 49.215 189.102 49.219 189.234 49.238 189.363 49.27 189.496 49.313 189.625 49.367 189.758 49.438 189.891 49.516 190.02 49.605 190.152 49.703 190.281 49.809 190.414 49.922 190.676 50.168 190.809 50.293 190.938 50.422 191.203 50.68 191.332 50.805 191.465 50.926 191.727 51.152 191.859 51.258 191.988 51.352 192.121 51.434 192.25 51.508 192.383 51.57 192.516 51.621 192.645 51.656 192.777 51.68 192.906 51.691 193.039 51.688 193.172 51.672 193.301 51.645 193.434 51.602 193.563 51.547 193.695 51.48 193.828 51.402 193.957 51.316 194.09 51.219 194.352 51 194.484 50.883 194.613 50.758 194.875 50.504 195.141 50.246 195.402 50 195.531 49.883 195.664 49.773 195.797 49.668 195.926 49.574 196.059 49.492 196.188 49.414 196.32 49.352 196.453 49.301 196.582 49.262 196.715 49.238 196.844 49.227H196.977L197.098 49.242 197.223 49.266 197.344 49.301 197.465 49.348 197.59 49.406 197.711 49.473 197.836 49.551 197.957 49.637 198.078 49.727 198.203 49.828 198.445 50.047 198.938 50.516 199.059 50.637 199.184 50.754 199.426 50.98 199.551 51.086 199.672 51.184 199.793 51.277 199.918 51.363 200.039 51.438 200.164 51.508 200.285 51.563 200.406 51.609 200.531 51.645 200.652 51.672 200.773 51.684H200.898L201.02 51.676 201.141 51.652 201.266 51.617 201.387 51.574 201.512 51.52 201.633 51.453 201.754 51.379 201.879 51.297 202 51.207 202.121 51.109 202.367 50.895 202.859 50.426 202.98 50.305 203.102 50.188 203.348 49.961 203.469 49.855 203.594 49.754 203.715 49.66 203.84 49.57 203.961 49.492 204.082 49.426 204.207 49.363 204.328 49.316 204.449 49.277 204.574 49.25 204.695 49.234 204.82 49.23 204.938 49.238 205.059 49.254 205.18 49.285 205.301 49.324 205.418 49.375 205.539 49.434 205.66 49.504 205.781 49.582 205.898 49.668 206.02 49.762 206.262 49.965 206.742 50.422 206.859 50.539 206.98 50.656 207.223 50.879 207.34 50.988 207.461 51.09 207.703 51.277 207.82 51.363 207.941 51.438 208.063 51.504 208.184 51.559 208.301 51.605 208.422 51.641 208.543 51.664 208.664 51.68 208.781 51.684 208.902 51.676 209.023 51.656 209.145 51.625 209.262 51.582 209.383 51.531 209.504 51.469 209.625 51.398 209.742 51.32 209.863 51.234 210.105 51.039 210.223 50.934 210.344 50.824 210.586 50.598 210.703 50.48 210.824 50.363 211.066 50.133 211.184 50.02 211.305 49.914 211.547 49.715 211.664 49.625 211.785 49.543 211.906 49.469 212.027 49.402 212.145 49.348 212.266 49.305 212.387 49.27 212.508 49.246 212.637 49.23H212.766L212.898 49.246 213.027 49.27 213.156 49.309 213.289 49.359 213.418 49.422 213.551 49.496 213.68 49.582 213.809 49.676 214.07 49.887 214.199 50 214.332 50.121 214.59 50.371 214.723 50.5 214.852 50.625 215.113 50.871 215.242 50.988 215.375 51.102 215.504 51.207 215.633 51.305 215.766 51.391 215.895 51.469 216.023 51.535 216.156 51.59 216.285 51.633 216.418 51.664 216.547 51.68 216.676 51.684 216.809 51.676 216.938 51.652 217.066 51.621 217.199 51.57 217.328 51.512 217.457 51.441 217.59 51.359 217.719 51.27 217.852 51.172 217.98 51.063 218.242 50.832 218.762 50.328 218.891 50.199 219.023 50.078 219.152 49.957 219.281 49.844 219.414 49.738 219.543 49.637 219.676 49.547 219.805 49.465 219.934 49.395 220.066 49.336 220.195 49.289 220.324 49.254 220.457 49.234 220.586 49.227 220.715 49.23 220.848 49.246 220.969 49.277 221.09 49.316 221.211 49.363 221.332 49.426 221.453 49.496 221.578 49.574 221.699 49.66 221.941 49.855 222.063 49.965 222.305 50.191 222.793 50.664 222.914 50.781 223.035 50.895 223.156 51.004 223.277 51.109 223.402 51.207 223.523 51.297 223.645 51.383 223.766 51.457 223.887 51.523 224.008 51.578 224.129 51.621 224.254 51.656 224.375 51.68 224.496 51.691H224.617L224.738 51.68 224.859 51.656 224.98 51.621 225.102 51.578 225.227 51.523 225.348 51.457 225.469 51.383 225.59 51.297 225.711 51.207 225.832 51.109 225.953 51.004 226.199 50.781 226.684 50.305 226.926 50.07 227.051 49.961 227.172 49.852 227.293 49.75 227.414 49.656 227.535 49.566 227.656 49.488 227.777 49.418 227.902 49.355 228.023 49.305 228.145 49.266 228.266 49.238 228.387 49.219 228.508 49.215 228.629 49.223 228.762 49.242 228.895 49.273 229.027 49.32 229.156 49.379 229.289 49.445 229.422 49.527 229.555 49.621 229.684 49.719 229.816 49.828 229.949 49.945 230.211 50.191 230.738 50.711 230.871 50.836 231.004 50.957 231.133 51.074 231.266 51.184 231.398 51.285 231.531 51.379 231.66 51.461 231.793 51.535 231.926 51.594 232.059 51.641 232.188 51.676 232.32 51.699 232.453 51.703 232.586 51.699 232.715 51.68 232.848 51.645 232.98 51.598 233.113 51.539 233.242 51.469 233.375 51.387 233.508 51.297 233.641 51.195 233.902 50.969 234.168 50.719 234.43 50.457 234.695 50.199 234.957 49.949 235.09 49.832 235.219 49.719 235.352 49.617 235.484 49.523 235.617 49.441 235.746 49.371 235.879 49.309 236.012 49.262 236.145 49.227 236.273 49.207 236.406 49.199 236.539 49.207 236.672 49.227 236.801 49.262 236.934 49.309 237.066 49.367 237.195 49.438 237.324 49.52 237.453 49.609 237.582 49.711 237.715 49.816 237.844 49.934 238.102 50.176 238.617 50.691 238.75 50.816 238.879 50.941 239.137 51.168 239.266 51.273 239.395 51.367 239.523 51.453 239.652 51.527 239.785 51.59 239.914 51.645 240.043 51.684 240.172 51.707 240.301 51.723 240.43 51.719 240.559 51.707 240.688 51.68 240.82 51.641 240.949 51.586 241.078 51.523 241.207 51.445 241.336 51.359 241.465 51.266 241.723 51.047 241.855 50.93 241.984 50.805 242.5 50.289 242.758 50.035 242.891 49.914 243.02 49.797 243.148 49.688 243.277 49.586 243.406 49.496 243.535 49.414 243.664 49.344 243.793 49.285 243.926 49.238 244.055 49.207 244.184 49.188 244.313 49.18 244.441 49.188 244.57 49.207 244.699 49.238 244.828 49.285 244.961 49.344 245.09 49.414 245.219 49.496 245.348 49.59 245.469 49.684 245.59 49.785 245.832 50.004 246.313 50.484 246.434 50.609 246.555 50.73 246.797 50.965 246.918 51.074 247.039 51.18 247.156 51.281 247.277 51.371 247.398 51.453 247.52 51.527 247.641 51.59 247.762 51.645 247.883 51.688 248.004 51.719 248.125 51.738 248.246 51.746 248.363 51.742 248.484 51.727 248.605 51.699 248.727 51.66 248.848 51.609 248.969 51.547 249.09 51.477 249.211 51.398 249.332 51.309 249.453 51.211 249.691 50.996 249.813 50.883 250.176 50.52 250.418 50.27 250.656 50.027 250.898 49.801 251.141 49.598 251.262 49.508 251.383 49.43 251.504 49.355 251.625 49.293 251.746 49.242 251.863 49.203 251.984 49.176 252.105 49.156 252.227 49.152 252.348 49.16 252.469 49.18 252.59 49.211 252.711 49.254 252.832 49.309 252.953 49.371 253.07 49.445 253.203 49.535 253.332 49.637 253.594 49.863 253.727 49.988 253.855 50.117 254.121 50.387 254.25 50.523 254.383 50.66 254.645 50.922 254.773 51.047 254.906 51.168 255.035 51.277 255.168 51.383 255.297 51.473 255.43 51.555 255.559 51.625 255.691 51.684 255.82 51.727 255.953 51.758 256.082 51.773H256.215L256.344 51.762 256.477 51.734 256.605 51.695 256.738 51.641 256.867 51.574 257 51.496 257.129 51.406 257.262 51.305 257.391 51.195 257.523 51.078 257.785 50.824 257.914 50.688 258.047 50.551 258.309 50.277 258.438 50.141 258.699 49.879 258.832 49.758 258.961 49.645 259.094 49.539 259.223 49.441 259.355 49.359 259.484 49.285 259.617 49.227 259.746 49.176 259.879 49.145 260.008 49.125 260.141 49.121 260.27 49.129 260.402 49.156 260.531 49.191 260.664 49.246 260.793 49.309 260.926 49.387 261.055 49.477 261.188 49.578 261.316 49.688 261.449 49.805 261.57 49.922 261.691 50.043 261.938 50.297 262.059 50.43 262.184 50.559 262.426 50.816 262.547 50.941 262.672 51.059 262.793 51.176 262.914 51.281 263.039 51.383 263.16 51.473 263.281 51.555 263.402 51.629 263.527 51.688 263.648 51.738 263.77 51.773 263.891 51.797 264.016 51.813 264.137 51.809 264.258 51.797 264.383 51.77 264.504 51.73 264.625 51.68 264.746 51.617 264.871 51.543 264.992 51.461 265.113 51.367 265.238 51.266 265.359 51.156 265.48 51.039 265.602 50.918 265.848 50.66 265.969 50.531 266.094 50.398 266.336 50.133 266.457 50.008 266.582 49.883 266.703 49.766 266.824 49.652 266.945 49.551 267.07 49.453 267.191 49.367 267.313 49.289 267.438 49.227 267.559 49.172 267.68 49.129 267.801 49.102 267.926 49.086 268.047 49.082 268.168 49.09 268.293 49.113 268.414 49.148 268.535 49.195 268.656 49.254 268.781 49.324 268.902 49.406 269.023 49.5 269.145 49.598 269.27 49.707 269.387 49.82 269.508 49.941 269.746 50.191 269.988 50.457 270.227 50.719 270.348 50.848 270.465 50.973 270.586 51.094 270.707 51.207 270.824 51.316 270.945 51.418 271.066 51.512 271.184 51.594 271.305 51.664 271.426 51.727 271.543 51.777 271.664 51.816 271.785 51.84 271.902 51.855H272.023L272.145 51.844 272.262 51.816 272.383 51.781 272.504 51.73 272.621 51.672 272.742 51.602 272.863 51.52 272.98 51.426 273.102 51.324 273.223 51.215 273.34 51.102 273.582 50.852 274.059 50.32 274.18 50.188 274.301 50.059 274.539 49.805 274.66 49.688 274.777 49.578 274.898 49.477 275.02 49.383 275.137 49.301 275.258 49.227 275.379 49.164 275.496 49.113 275.617 49.074 275.738 49.047 275.855 49.035H275.977L276.098 49.047 276.215 49.07 276.336 49.109 276.457 49.16 276.574 49.219 276.695 49.293 276.813 49.379 276.934 49.473 277.063 49.582 277.195 49.703 277.453 49.969 277.973 50.555 278.105 50.699 278.234 50.848 278.363 50.988 278.492 51.125 278.625 51.254 278.754 51.375 278.883 51.484 279.016 51.586 279.145 51.672 279.273 51.746 279.402 51.809 279.535 51.855 279.664 51.891 279.793 51.906H279.922L280.055 51.895 280.184 51.863 280.313 51.82 280.441 51.762 280.574 51.688 280.703 51.602 280.832 51.504 280.965 51.395 281.094 51.273 281.223 51.145 281.352 51.008 281.613 50.719 281.742 50.57 281.871 50.418 282.133 50.117 282.262 49.973 282.395 49.828 282.523 49.695 282.652 49.57 282.781 49.453 282.914 49.344 283.043 49.25 283.172 49.168 283.301 49.098 283.434 49.047 283.563 49.004 283.691 48.98 283.824 48.973 283.953 48.98 284.082 49.004 284.211 49.043 284.344 49.098 284.473 49.168 284.602 49.25 284.73 49.348 284.863 49.453 284.992 49.57 285.254 49.836 285.375 49.969 285.496 50.109 285.738 50.395 285.98 50.684 286.223 50.961 286.344 51.098 286.465 51.227 286.586 51.348 286.707 51.461 286.828 51.566 286.949 51.66 287.07 51.742 287.191 51.813 287.313 51.871 287.434 51.918 287.555 51.949 287.676 51.969 287.797 51.973 287.922 51.961 288.043 51.938 288.164 51.902 288.285 51.848 288.406 51.785 288.527 51.707 288.648 51.621 288.77 51.52 288.891 51.41 289.133 51.168 289.254 51.035 289.375 50.895 289.617 50.605 289.738 50.457 289.859 50.313 290.102 50.02 290.223 49.879 290.344 49.746 290.465 49.617 290.586 49.496 290.711 49.383 290.832 49.281 290.953 49.188 291.074 49.109 291.195 49.043 291.316 48.988 291.438 48.945 291.559 48.918 291.68 48.906H291.801L291.922 48.922 292.043 48.953 292.164 49 292.285 49.055 292.406 49.129 292.527 49.211 292.648 49.305 292.77 49.414 292.891 49.527 293.012 49.652 293.145 49.797 293.277 49.949 293.539 50.266 293.672 50.43 293.801 50.594 294.066 50.918 294.195 51.074 294.328 51.223 294.461 51.363 294.59 51.492 294.723 51.613 294.852 51.719 294.984 51.813 295.117 51.895 295.246 51.957 295.379 52.004 295.512 52.035 295.641 52.047 295.773 52.043 295.906 52.023 296.035 51.984 296.168 51.93 296.301 51.855 296.43 51.77 296.563 51.668 296.695 51.555 296.824 51.426 296.957 51.289 297.219 50.984 297.352 50.824 297.484 50.66 297.746 50.324 297.875 50.156 298.008 49.992 298.27 49.68 298.402 49.535 298.535 49.398 298.664 49.277 298.797 49.164 298.93 49.066 299.059 48.984 299.191 48.918 299.324 48.871 299.453 48.836 299.586 48.824H299.719L299.848 48.848 299.98 48.887 300.113 48.941 300.242 49.016 300.375 49.102 300.508 49.207 300.637 49.324 300.77 49.453 300.898 49.594 301.031 49.746 301.164 49.902 301.426 50.238 301.551 50.398 301.672 50.563 301.918 50.883 302.039 51.035 302.164 51.188 302.41 51.465 302.531 51.59 302.652 51.707 302.777 51.809 302.898 51.898 303.023 51.977 303.145 52.039 303.266 52.086 303.391 52.121 303.512 52.137H303.637L303.758 52.121 303.883 52.09 304.004 52.043 304.125 51.98 304.25 51.906 304.371 51.813 304.496 51.711 304.617 51.594 304.742 51.469 304.863 51.332 304.984 51.184 305.109 51.031 305.355 50.711 305.477 50.547 305.602 50.379 305.844 50.047 305.969 49.887 306.09 49.734 306.336 49.441 306.457 49.313 306.582 49.191 306.703 49.082 306.828 48.984 306.949 48.902 307.074 48.836 307.195 48.785 307.316 48.746 307.441 48.727 307.563 48.723 307.688 48.734 307.809 48.766 307.934 48.809 308.055 48.871 308.176 48.949 308.301 49.039 308.422 49.145 308.547 49.262 308.668 49.391 308.793 49.527 308.914 49.676 309.035 49.832 309.281 50.164 309.523 50.5 309.762 50.832 309.883 50.996 310.004 51.156 310.246 51.453 310.367 51.59 310.484 51.719 310.605 51.832 310.727 51.934 310.848 52.023 310.969 52.102 311.086 52.16 311.207 52.207 311.328 52.234 311.449 52.246 311.57 52.242 311.688 52.223 311.809 52.188 311.93 52.133 312.051 52.066 312.172 51.984 312.289 51.887 312.41 51.777 312.531 51.656 312.652 51.52 312.773 51.379 312.891 51.227 313.133 50.898 313.254 50.73 313.375 50.559 313.613 50.207 313.734 50.035 313.855 49.867 314.098 49.547 314.215 49.398 314.336 49.258 314.457 49.129 314.578 49.012 314.699 48.91 314.816 48.82 314.938 48.742 315.059 48.684 315.18 48.641 315.301 48.613 315.418 48.602 315.539 48.609 315.66 48.633 315.781 48.672 315.902 48.73 316.02 48.805 316.141 48.891 316.262 48.992 316.383 49.109 316.504 49.238 316.625 49.379 316.742 49.531 316.984 49.855 317.113 50.043 317.246 50.234 317.508 50.625 317.637 50.82 317.766 51.012 318.027 51.375 318.16 51.543 318.289 51.703 318.422 51.844 318.551 51.977 318.68 52.09 318.813 52.184 318.941 52.262 319.074 52.32 319.203 52.359 319.332 52.379 319.465 52.375 319.594 52.352 319.727 52.309 319.855 52.246 319.988 52.164 320.117 52.059 320.246 51.941 320.379 51.805 320.508 51.656 320.641 51.492 320.77 51.316 320.898 51.129 321.16 50.738 321.293 50.535 321.422 50.332 321.684 49.93 321.813 49.738 321.945 49.551 322.207 49.203 322.336 49.051 322.465 48.91 322.598 48.789 322.727 48.684 322.859 48.598 322.988 48.531 323.121 48.484 323.25 48.461 323.379 48.457 323.512 48.477 323.641 48.516 323.773 48.578 323.902 48.656 324.031 48.758 324.164 48.879 324.293 49.016 324.426 49.168 324.555 49.336 324.816 49.703 324.945 49.902 325.078 50.109 325.34 50.531 325.582 50.922 325.824 51.301 325.949 51.477 326.07 51.648 326.191 51.805 326.313 51.953 326.434 52.086 326.559 52.203 326.68 52.305 326.801 52.391 326.922 52.457 327.043 52.504 327.168 52.531 327.289 52.543 327.41 52.531 327.531 52.504 327.652 52.453 327.773 52.387 327.898 52.301 328.02 52.195 328.141 52.074 328.262 51.941 328.383 51.789 328.508 51.625 328.75 51.27 328.871 51.074 328.992 50.875 329.238 50.469 329.48 50.055 329.723 49.656 329.848 49.465 329.969 49.285 330.09 49.113 330.211 48.957 330.332 48.813 330.457 48.68 330.578 48.566 330.699 48.473 330.82 48.395 330.941 48.336 331.066 48.297 331.188 48.277H331.309L331.43 48.301 331.551 48.344 331.672 48.406 331.797 48.488 331.918 48.59 332.039 48.707 332.16 48.844 332.281 48.992 332.406 49.16 332.648 49.523 332.77 49.723 332.891 49.93 333.137 50.355 333.27 50.59 333.398 50.82 333.664 51.277 333.797 51.492 333.93 51.699 334.059 51.891 334.191 52.066 334.324 52.227 334.457 52.371 334.59 52.488 334.719 52.586 334.852 52.664 334.984 52.715 335.117 52.742H335.25L335.379 52.719 335.512 52.668 335.645 52.594 335.777 52.496 335.91 52.375 336.039 52.234 336.172 52.074 336.305 51.891 336.438 51.695 336.57 51.484 336.832 51.027 337.359 50.051 337.492 49.809 337.625 49.574 337.758 49.348 337.887 49.133 338.02 48.934 338.152 48.746 338.285 48.578 338.418 48.434 338.547 48.309 338.68 48.207 338.813 48.129 338.945 48.078 339.078 48.051H339.207L339.34 48.078 339.473 48.133 339.605 48.211 339.738 48.316 339.867 48.445 340 48.598 340.133 48.77 340.266 48.961 340.527 49.391 340.66 49.629 340.793 49.875 341.059 50.387 341.586 51.406 341.715 51.641 341.844 51.863 341.973 52.07 342.105 52.262 342.234 52.438 342.363 52.59 342.492 52.719 342.621 52.828 342.75 52.91 342.883 52.965 343.012 52.996 343.141 53 343.27 52.973 343.398 52.922 343.531 52.848 343.66 52.742 343.789 52.617 343.918 52.465 344.047 52.289 344.176 52.098 344.309 51.887 344.438 51.66 344.695 51.164 344.824 50.902 344.957 50.637 345.215 50.098 345.344 49.832 345.473 49.57 345.734 49.074 345.863 48.848 345.992 48.637 346.121 48.441 346.25 48.27 346.383 48.117 346.512 47.992 346.641 47.895 346.77 47.82 346.898 47.773 347.027 47.758 347.16 47.77 347.289 47.809 347.418 47.879 347.547 47.973 347.676 48.098 347.809 48.246 347.938 48.418 348.066 48.613 348.195 48.832 348.324 49.063 348.453 49.313 348.586 49.578 348.844 50.133 349.102 50.703 349.363 51.27 349.492 51.543 349.621 51.809 349.879 52.293 350 52.496 350.121 52.68 350.242 52.844 350.363 52.984 350.484 53.105 350.605 53.199 350.727 53.27 350.848 53.316 350.969 53.332 351.09 53.324 351.211 53.289 351.332 53.23 351.453 53.145 351.574 53.031 351.695 52.895 351.816 52.734 351.938 52.551 352.059 52.352 352.18 52.129 352.301 51.895 352.422 51.645 352.539 51.379 352.781 50.828 353.266 49.688 353.387 49.414 353.508 49.145 353.75 48.645 353.871 48.414 353.992 48.207 354.113 48.016 354.234 47.848 354.355 47.703 354.477 47.582 354.598 47.488 354.719 47.422 354.84 47.383 354.961 47.371 355.078 47.391 355.199 47.438 355.32 47.512 355.441 47.613 355.563 47.742 355.684 47.898 355.805 48.078 355.926 48.277 356.047 48.5 356.168 48.742 356.289 49.004 356.41 49.277 356.652 49.859 356.773 50.16 356.895 50.469 357.137 51.082 357.258 51.387 357.379 51.68 357.621 52.238 357.75 52.516 357.883 52.773 358.012 53.004 358.145 53.211 358.273 53.391 358.406 53.535 358.535 53.648 358.668 53.73 358.801 53.773 358.93 53.781 359.063 53.754 359.191 53.691 359.324 53.59 359.453 53.457 359.586 53.289 359.719 53.09 359.848 52.859 359.98 52.605 360.109 52.32 360.242 52.02 360.371 51.695 360.504 51.359 360.766 50.652 360.898 50.293 361.027 49.93 361.289 49.223 361.422 48.887 361.551 48.563 361.684 48.258 361.816 47.977 361.945 47.719 362.078 47.492 362.207 47.293 362.34 47.129 362.469 47 362.602 46.91 362.73 46.855 362.863 46.844 362.996 46.867 363.125 46.93 363.258 47.035 363.387 47.176 363.52 47.352 363.648 47.566 363.781 47.809 363.914 48.086 364.043 48.391 364.176 48.715 364.438 49.43 364.961 50.984 365.094 51.379 365.223 51.762 365.355 52.133 365.484 52.488 365.617 52.824 365.746 53.137 365.879 53.422 366.012 53.676 366.133 53.883 366.254 54.059 366.379 54.199 366.5 54.309 366.621 54.379 366.746 54.414 366.867 54.41 366.988 54.371 367.113 54.293 367.234 54.18 367.355 54.027 367.48 53.844 367.602 53.625 367.723 53.375 367.848 53.094 367.969 52.785 368.09 52.457 368.215 52.105 368.457 51.352 368.949 49.742 369.07 49.344 369.191 48.949 369.316 48.566 369.438 48.203 369.559 47.855 369.684 47.531 369.805 47.234 369.926 46.965 370.051 46.727 370.172 46.52 370.293 46.352 370.418 46.223 370.539 46.133 370.66 46.082 370.785 46.074 370.906 46.105 371.027 46.18 371.152 46.297 371.273 46.453 371.395 46.648 371.52 46.879 371.641 47.148 371.762 47.449 371.887 47.781 372.008 48.145 372.129 48.527 372.375 49.355 372.863 51.145 372.988 51.594 373.109 52.035 373.355 52.879 373.477 53.27 373.598 53.641 373.723 53.98 373.844 54.293 373.965 54.563 374.082 54.801 374.203 54.996 374.324 55.156 374.445 55.273 374.563 55.344 374.684 55.371 374.805 55.355 374.922 55.293 375.043 55.188 375.164 55.039 375.285 54.844 375.402 54.609 375.523 54.336 375.645 54.023 375.762 53.676 375.883 53.293 376.004 52.887 376.242 51.996 376.723 50.039 376.965 49.039 377.203 48.078 377.324 47.625 377.441 47.188 377.563 46.781 377.684 46.406 377.805 46.063 377.922 45.758 378.043 45.492 378.164 45.27 378.281 45.094 378.402 44.965 378.523 44.887 378.645 44.855 378.762 44.879 378.883 44.953 379.004 45.078 379.125 45.254 379.242 45.477 379.363 45.75 379.484 46.066 379.602 46.43 379.723 46.828 379.844 47.27 380.082 48.238 380.203 48.766 380.324 49.309 380.563 50.441 380.684 51.02 380.805 51.594 381.043 52.727 381.164 53.273 381.281 53.801 381.523 54.766 381.652 55.234 381.785 55.656 381.914 56.027 382.043 56.344 382.176 56.594 382.305 56.785 382.434 56.91 382.563 56.965 382.695 56.949 382.824 56.863 382.953 56.707 383.086 56.48 383.215 56.188 383.344 55.832 383.477 55.41 383.605 54.934 383.734 54.398 383.867 53.816 384.125 52.531 384.258 51.84 384.387 51.125 384.648 49.656 384.777 48.918 384.906 48.188 385.168 46.781 385.297 46.125 385.43 45.504 385.559 44.93 385.688 44.406 385.82 43.941 385.949 43.547 386.078 43.219 386.211 42.965 386.34 42.789 386.469 42.695 386.602 42.684 386.73 42.754 386.859 42.914 386.992 43.156 387.121 43.48 387.25 43.883 387.383 44.363 387.512 44.918 387.641 45.539 387.773 46.223 387.902 46.965 388.031 47.75 388.293 49.441 388.422 50.324 388.555 51.223 388.813 53.023 388.945 53.906 389.074 54.766 389.203 55.59 389.336 56.371 389.465 57.098 389.594 57.766 389.727 58.363 389.855 58.887 389.977 59.297 390.098 59.629 390.219 59.879 390.34 60.043 390.461 60.121 390.582 60.105 390.707 60 390.828 59.801 390.949 59.512 391.07 59.129 391.191 58.66 391.313 58.105 391.434 57.465 391.555 56.754 391.676 55.965 391.797 55.113 391.922 54.207 392.043 53.246 392.285 51.203 392.77 46.898 392.891 45.836 393.012 44.797 393.137 43.793 393.258 42.836 393.379 41.93 393.5 41.094 393.621 40.328 393.742 39.648 393.863 39.055 393.984 38.563 394.105 38.176 394.227 37.895 394.348 37.73 394.473 37.688 394.594 37.766 394.715 37.965 394.836 38.293 394.957 38.742 395.078 39.313 395.199 40.004 395.32 40.809 395.441 41.727 395.563 42.75 395.688 43.867 395.809 45.078 395.93 46.363 396.172 49.137 396.656 55.129 396.777 56.645 396.902 58.133 397.145 60.992 397.266 62.328 397.387 63.586 397.508 64.746 397.629 65.801 397.766 66.832 397.902 67.695 398.035 68.375 398.172 68.859 398.309 69.129 398.441 69.18 398.578 69.004 398.715 68.59 398.852 67.941 398.984 67.051 399.121 65.922 399.258 64.559 399.391 62.969 399.527 61.164 399.664 59.152 399.801 56.953 399.934 54.586 400.07 52.066 400.34 46.676 400.477 43.859 400.613 40.996 400.883 35.277 401.02 32.488 401.156 29.789 401.289 27.227 401.426 24.832 401.563 22.645 401.699 20.699 401.832 19.043 401.969 17.703 402.105 16.723 402.242 16.137 402.375 15.977 402.512 16.27 402.648 17.055 402.781 18.355 402.918 20.191 403.055 22.594 403.191 25.574 403.324 29.152 403.461 33.336 403.598 38.137 403.73 43.559 403.867 49.602 404.004 56.262 404.141 63.531 404.273 71.406 404.41 79.863 404.68 98.453 404.816 108.539 404.953 119.113 405.223 141.586 405.359 153.414 405.496 165.582 405.766 190.75 405.902 203.66 406.039 216.723 406.172 229.887 406.309 243.102"/>
<path stroke-width=".36" stroke-linecap="butt" stroke-miterlimit="3.25" stroke-linejoin="miter" fill="none" stroke="#000000" d="M11.195 243.102V239.102"/>
<path stroke-width=".36" stroke-linecap="butt" stroke-miterlimit="3.25" stroke-linejoin="miter" fill="none" stroke="#000000" d="M23.773 243.102V240.703"/>
<path stroke-width=".36" stroke-linecap="butt" stroke-miterlimit="3.25" stroke-linejoin="miter" fill="none" stroke="#000000" d="M36.348 243.102V240.703"/>
<path stroke-width=".36" stroke-linecap="butt" stroke-miterlimit="3.25" stroke-linejoin="miter" fill="none" stroke="#000000" d="M48.926 243.102V240.703"/>
<path stroke-width=".36" stroke-linecap="butt" stroke-miterlimit="3.25" stroke-linejoin="miter" fill="none" stroke="#000000" d="M61.504 243.102V240.703"/>
<path stroke-width=".36" stroke-linecap="butt" stroke-miterlimit="3.25" stroke-linejoin="miter" fill="none" stroke="#000000" d="M74.078 243.102V239.102"/>
<use data-text="1" xlink:href="#font_1_1" transform="matrix(6.5,0,0,-6.5,72.272518,251.12784)"/>
<path stroke-width=".36" stroke-linecap="butt" stroke-miterlimit="3.25" stroke-linejoin="miter" fill="none" stroke="#000000" d="M86.656 243.102V240.703"/>
<path stroke-width=".36" stroke-linecap="butt" stroke-miterlimit="3.25" stroke-linejoin="miter" fill="none" stroke="#000000" d="M99.234 243.102V240.703"/>
<path stroke-width=".36" stroke-linecap="butt" stroke-miterlimit="3.25" stroke-linejoin="miter" fill="none" stroke="#000000" d="M111.809 243.102V240.703"/>
<path stroke-width=".36" stroke-linecap="butt" stroke-miterlimit="3.25" stroke-linejoin="miter" fill="none" stroke="#000000" d="M124.387 243.102V240.703"/>
<path stroke-width=".36" stroke-linecap="butt" stroke-miterlimit="3.25" stroke-linejoin="miter" fill="none" stroke="#000000" d="M136.965 243.102V239.102"/>
<use data-text="2" xlink:href="#font_1_2" transform="matrix(6.5,0,0,-6.5,135.15665,251.12784)"/>
<path stroke-width=".36" stroke-linecap="butt" stroke-miterlimit="3.25" stroke-linejoin="miter" fill="none" stroke="#000000" d="M149.539 243.102V240.703"/>
<path stroke-width=".36" stroke-linecap="butt" stroke-miterlimit="3.25" stroke-linejoin="miter" fill="none" stroke="#000000" d="M162.117 243.102V240.703"/>
<path stroke-width=".36" stroke-linecap="butt" stroke-miterlimit="3.25" stroke-linejoin="miter" fill="none" stroke="#000000" d="M174.695 243.102V240.703"/>
<path stroke-width=".36" stroke-linecap="butt" stroke-miterlimit="3.25" stroke-linejoin="miter" fill="none" stroke="#000000" d="M187.27 243.102V240.703"/>
<path stroke-width=".36" stroke-linecap="butt" stroke-miterlimit="3.25" stroke-linejoin="miter" fill="none" stroke="#000000" d="M199.848 243.102V239.102"/>
<use data-text="3" xlink:href="#font_1_3" transform="matrix(6.5,0,0,-6.5,198.04076,251.12784)"/>
<path stroke-width=".36" stroke-linecap="butt" stroke-miterlimit="3.25" stroke-linejoin="miter" fill="none" stroke="#000000" d="M212.426 243.102V240.703"/>
<path stroke-width=".36" stroke-linecap="butt" stroke-miterlimit="3.25" stroke-linejoin="miter" fill="none" stroke="#000000" d="M225 243.102V240.703"/>
<path stroke-width=".36" stroke-linecap="butt" stroke-miterlimit="3.25" stroke-linejoin="miter" fill="none" stroke="#000000" d="M237.578 243.102V240.703"/>
<path stroke-width=".36" stroke-linecap="butt" stroke-miterlimit="3.25" stroke-linejoin="miter" fill="none" stroke="#000000" d="M250.156 243.102V240.703"/>
<path stroke-width=".36" stroke-linecap="butt" stroke-miterlimit="3.25" stroke-linejoin="miter" fill="none" stroke="#000000" d="M262.73 243.102V239.102"/>
<use data-text="4" xlink:href="#font_1_4" transform="matrix(6.5,0,0,-6.5,260.9249,251.12784)"/>
<path stroke-width=".36" stroke-linecap="butt" stroke-miterlimit="3.25" stroke-linejoin="miter" fill="none" stroke="#000000" d="M275.309 243.102V240.703"/>
<path stroke-width=".36" stroke-linecap="butt" stroke-miterlimit="3.25" stroke-linejoin="miter" fill="none" stroke="#000000" d="M287.887 243.102V240.703"/>
<path stroke-width=".36" stroke-linecap="butt" stroke-miterlimit="3.25" stroke-linejoin="miter" fill="none" stroke="#000000" d="M300.461 243.102V240.703"/>
<path stroke-width=".36" stroke-linecap="butt" stroke-miterlimit="3.25" stroke-linejoin="miter" fill="none" stroke="#000000" d="M313.039 243.102V240.703"/>
<path stroke-width=".36" stroke-linecap="butt" stroke-miterlimit="3.25" stroke-linejoin="miter" fill="none" stroke="#000000" d="M325.617 243.102V239.102"/>
<use data-text="5" xlink:href="#font_1_5" transform="matrix(6.5,0,0,-6.5,323.80903,251.12784)"/>
<path stroke-width=".36" stroke-linecap="butt" stroke-miterlimit="3.25" stroke-linejoin="miter" fill="none" stroke="#000000" d="M338.191 243.102V240.703"/>
<path stroke-width=".36" stroke-linecap="butt" stroke-miterlimit="3.25" stroke-linejoin="miter" fill="none" stroke="#000000" d="M350.77 243.102V240.703"/>
<path stroke-width=".36" stroke-linecap="butt" stroke-miterlimit="3.25" stroke-linejoin="miter" fill="none" stroke="#000000" d="M363.348 243.102V240.703"/>
<path stroke-width=".36" stroke-linecap="butt" stroke-miterlimit="3.25" stroke-linejoin="miter" fill="none" stroke="#000000" d="M375.922 243.102V240.703"/>
<path stroke-width=".36" stroke-linecap="butt" stroke-miterlimit="3.25" stroke-linejoin="miter" fill="none" stroke="#000000" d="M388.5 243.102V239.102"/>
<use data-text="6" xlink:href="#font_1_6" transform="matrix(6.5,0,0,-6.5,386.69316,251.12784)"/>
<path stroke-width=".36" stroke-linecap="butt" stroke-miterlimit="3.25" stroke-linejoin="miter" fill="none" stroke="#000000" d="M401.078 243.102V240.703"/>
<path stroke-width=".36" stroke-linecap="butt" stroke-miterlimit="3.25" stroke-linejoin="miter" fill="none" stroke="#000000" d="M413.652 243.102V240.703"/>
<g clip-path="url(#clip_2)">
<path stroke-width=".36" stroke-linecap="butt" stroke-miterlimit="3.25" stroke-linejoin="miter" fill="none" stroke="#000000" d="M2.965 243.102H414.539"/>
</g>
<path stroke-width=".36" stroke-linecap="butt" stroke-miterlimit="3.25" stroke-linejoin="miter" fill="none" stroke="#000000" d="M11.195 252.734H13.598"/>
<path stroke-width=".36" stroke-linecap="butt" stroke-miterlimit="3.25" stroke-linejoin="miter" fill="none" stroke="#000000" d="M11.195 243.102H15.195"/>
<path stroke-width=".36" stroke-linecap="butt" stroke-miterlimit="3.25" stroke-linejoin="miter" fill="none" stroke="#000000" d="M11.195 233.469H13.598"/>
<path stroke-width=".36" stroke-linecap="butt" stroke-miterlimit="3.25" stroke-linejoin="miter" fill="none" stroke="#000000" d="M11.195 223.836H13.598"/>
<path stroke-width=".36" stroke-linecap="butt" stroke-miterlimit="3.25" stroke-linejoin="miter" fill="none" stroke="#000000" d="M11.195 214.203H13.598"/>
<path stroke-width=".36" stroke-linecap="butt" stroke-miterlimit="3.25" stroke-linejoin="miter" fill="none" stroke="#000000" d="M11.195 204.574H15.195"/>
<use data-text="0" xlink:href="#font_1_7" transform="matrix(6.5,0,0,-6.5,0,206.81912)"/>
<use data-text="." xlink:href="#font_1_8" transform="matrix(6.5,0,0,-6.5,3.6140004,206.81912)"/>
<use data-text="2" xlink:href="#font_1_2" transform="matrix(6.5,0,0,-6.5,5.4145,206.81912)"/>
<path stroke-width=".36" stroke-linecap="butt" stroke-miterlimit="3.25" stroke-linejoin="miter" fill="none" stroke="#000000" d="M11.195 194.941H13.598"/>
<path stroke-width=".36" stroke-linecap="butt" stroke-miterlimit="3.25" stroke-linejoin="miter" fill="none" stroke="#000000" d="M11.195 185.309H13.598"/>
<path stroke-width=".36" stroke-linecap="butt" stroke-miterlimit="3.25" stroke-linejoin="miter" fill="none" stroke="#000000" d="M11.195 175.676H13.598"/>
<path stroke-width=".36" stroke-linecap="butt" stroke-miterlimit="3.25" stroke-linejoin="miter" fill="none" stroke="#000000" d="M11.195 166.043H15.195"/>
<use data-text="0" xlink:href="#font_1_7" transform="matrix(6.5,0,0,-6.5,0,168.2901)"/>
<use data-text="." xlink:href="#font_1_8" transform="matrix(6.5,0,0,-6.5,3.6140004,168.2901)"/>
<use data-text="4" xlink:href="#font_1_4" transform="matrix(6.5,0,0,-6.5,5.4145,168.2901)"/>
<path stroke-width=".36" stroke-linecap="butt" stroke-miterlimit="3.25" stroke-linejoin="miter" fill="none" stroke="#000000" d="M11.195 156.41H13.598"/>
<path stroke-width=".36" stroke-linecap="butt" stroke-miterlimit="3.25" stroke-linejoin="miter" fill="none" stroke="#000000" d="M11.195 146.777H13.598"/>
<path stroke-width=".36" stroke-linecap="butt" stroke-miterlimit="3.25" stroke-linejoin="miter" fill="none" stroke="#000000" d="M11.195 137.148H13.598"/>
<path stroke-width=".36" stroke-linecap="butt" stroke-miterlimit="3.25" stroke-linejoin="miter" fill="none" stroke="#000000" d="M11.195 127.516H15.195"/>
<use data-text="0" xlink:href="#font_1_7" transform="matrix(6.5,0,0,-6.5,0,129.76108)"/>
<use data-text="." xlink:href="#font_1_8" transform="matrix(6.5,0,0,-6.5,3.6140004,129.76108)"/>
<use data-text="6" xlink:href="#font_1_6" transform="matrix(6.5,0,0,-6.5,5.4145,129.76108)"/>
<path stroke-width=".36" stroke-linecap="butt" stroke-miterlimit="3.25" stroke-linejoin="miter" fill="none" stroke="#000000" d="M11.195 117.883H13.598"/>
<path stroke-width=".36" stroke-linecap="butt" stroke-miterlimit="3.25" stroke-linejoin="miter" fill="none" stroke="#000000" d="M11.195 108.25H13.598"/>
<path stroke-width=".36" stroke-linecap="butt" stroke-miterlimit="3.25" stroke-linejoin="miter" fill="none" stroke="#000000" d="M11.195 98.617H13.598"/>
<path stroke-width=".36" stroke-linecap="butt" stroke-miterlimit="3.25" stroke-linejoin="miter" fill="none" stroke="#000000" d="M11.195 88.984H15.195"/>
<use data-text="0" xlink:href="#font_1_7" transform="matrix(6.5,0,0,-6.5,0,91.232059)"/>
<use data-text="." xlink:href="#font_1_8" transform="matrix(6.5,0,0,-6.5,3.6140004,91.232059)"/>
<use data-text="8" xlink:href="#font_1_9" transform="matrix(6.5,0,0,-6.5,5.4145,91.232059)"/>
<path stroke-width=".36" stroke-linecap="butt" stroke-miterlimit="3.25" stroke-linejoin="miter" fill="none" stroke="#000000" d="M11.195 79.352H13.598"/>
<path stroke-width=".36" stroke-linecap="butt" stroke-miterlimit="3.25" stroke-linejoin="miter" fill="none" stroke="#000000" d="M11.195 69.723H13.598"/>
<path stroke-width=".36" stroke-linecap="butt" stroke-miterlimit="3.25" stroke-linejoin="miter" fill="none" stroke="#000000" d="M11.195 60.09H13.598"/>
<path stroke-width=".36" stroke-linecap="butt" stroke-miterlimit="3.25" stroke-linejoin="miter" fill="none" stroke="#000000" d="M11.195 50.457H15.195"/>
<use data-text="1" xlink:href="#font_1_1" transform="matrix(6.5,0,0,-6.5,0,52.70303)"/>
<use data-text="." xlink:href="#font_1_8" transform="matrix(6.5,0,0,-6.5,3.6140004,52.70303)"/>
<use data-text="0" xlink:href="#font_1_7" transform="matrix(6.5,0,0,-6.5,5.4145,52.70303)"/>
<path stroke-width=".36" stroke-linecap="butt" stroke-miterlimit="3.25" stroke-linejoin="miter" fill="none" stroke="#000000" d="M11.195 40.824H13.598"/>
<path stroke-width=".36" stroke-linecap="butt" stroke-miterlimit="3.25" stroke-linejoin="miter" fill="none" stroke="#000000" d="M11.195 31.191H13.598"/>
<path stroke-width=".36" stroke-linecap="butt" stroke-miterlimit="3.25" stroke-linejoin="miter" fill="none" stroke="#000000" d="M11.195 21.559H13.598"/>
<path stroke-width=".36" stroke-linecap="butt" stroke-miterlimit="3.25" stroke-linejoin="miter" fill="none" stroke="#000000" d="M11.195 11.926H15.195"/>
<use data-text="1" xlink:href="#font_1_1" transform="matrix(6.5,0,0,-6.5,0,14.174007)"/>
<use data-text="." xlink:href="#font_1_8" transform="matrix(6.5,0,0,-6.5,3.6140004,14.174007)"/>
<use data-text="2" xlink:href="#font_1_2" transform="matrix(6.5,0,0,-6.5,5.4145,14.174007)"/>
<path stroke-width=".36" stroke-linecap="butt" stroke-miterlimit="3.25" stroke-linejoin="miter" fill="none" stroke="#000000" d="M11.195 2.297H13.598"/>
<g clip-path="url(#clip_3)">
<path stroke-width=".36" stroke-linecap="butt" stroke-miterlimit="3.25" stroke-linejoin="miter" fill="none" stroke="#000000" d="M11.195 255.82V1.453"/>
</g>
<g clip-path="url(#clip_4)">
<path stroke-width="1.44" stroke-linecap="square" stroke-miterlimit="3.25" stroke-linejoin="miter" fill="none" stroke="#5e81b5" d="M423.063 103.852H436.023"/>
</g>
<use data-text="g" xlink:href="#font_1_10" transform="matrix(9.35,0,0,-9.35,441.424,106.35289)"/>
<use data-text="(" xlink:href="#font_5_1" transform="matrix(9.35,0,0,-9.35,446.62263,106.35289)"/>
<use data-text="x" xlink:href="#font_1_11" transform="matrix(9.35,0,0,-9.35,449.73619,106.35289)"/>
<use data-text=")" xlink:href="#font_5_2" transform="matrix(9.35,0,0,-9.35,454.41117,106.35289)"/>
<use data-text="=" xlink:href="#font_5_3" transform="matrix(9.35,0,0,-9.35,460.12403,106.35289)"/>
<use data-text="1" xlink:href="#font_1_1" transform="matrix(9.35,0,0,-9.35,468.17439,106.35289)"/>
<g clip-path="url(#clip_6)">
<path stroke-width="1.44" stroke-linecap="square" stroke-miterlimit="3.25" stroke-linejoin="miter" fill="none" stroke="#e19c24" d="M423.063 120.34H436.023"/>
</g>
<use data-text="n" xlink:href="#font_1_12" transform="matrix(9.35,0,0,-9.35,441.424,122.84089)"/>
<use data-text="=" xlink:href="#font_5_3" transform="matrix(9.35,0,0,-9.35,446.62263,122.84089)"/>
<use data-text="5" xlink:href="#font_1_5" transform="matrix(9.35,0,0,-9.35,452.07368,122.84089)"/>
<g clip-path="url(#clip_7)">
<path stroke-width="1.44" stroke-linecap="square" stroke-miterlimit="3.25" stroke-linejoin="miter" fill="none" stroke="#8fb032" d="M423.063 136.828H436.023"/>
</g>
<use data-text="n" xlink:href="#font_1_12" transform="matrix(9.35,0,0,-9.35,441.424,139.32889)"/>
<use data-text="=" xlink:href="#font_5_3" transform="matrix(9.35,0,0,-9.35,446.62263,139.32889)"/>
<use data-text="1" xlink:href="#font_1_1" transform="matrix(9.35,0,0,-9.35,452.07368,139.32889)"/>
<use data-text="0" xlink:href="#font_1_7" transform="matrix(9.35,0,0,-9.35,457.27229,139.32889)"/>
<g clip-path="url(#clip_8)">
<path stroke-width="1.44" stroke-linecap="square" stroke-miterlimit="3.25" stroke-linejoin="miter" fill="none" stroke="#eb6235" d="M423.063 153.316H436.023"/>
</g>
<use data-text="n" xlink:href="#font_1_12" transform="matrix(9.35,0,0,-9.35,441.424,155.8169)"/>
<use data-text="=" xlink:href="#font_5_3" transform="matrix(9.35,0,0,-9.35,446.62263,155.8169)"/>
<use data-text="1" xlink:href="#font_1_1" transform="matrix(9.35,0,0,-9.35,452.07368,155.8169)"/>
<use data-text="0" xlink:href="#font_1_7" transform="matrix(9.35,0,0,-9.35,457.27229,155.8169)"/>
<use data-text="0" xlink:href="#font_1_7" transform="matrix(9.35,0,0,-9.35,462.4709,155.8169)"/>
</g>
</svg>
