<svg xmlns="http://www.w3.org/2000/svg" xmlns:xlink="http://www.w3.org/1999/xlink" xmlns:inkscape="http://www.inkscape.org/namespaces/inkscape" version="1.1" width="834" height="241" viewBox="0 0 834 241">
<defs>
<path id="font_1_1" d="M.49121095 .5292969C.4674479 .5419922 .44303385 .5518392 .41796876 .5588379 .39290367 .5658366 .3655599 .56933596 .3359375 .56933596 .30208335 .56933596 .27197267 .5633087 .24560547 .5512543 .21923828 .5391998 .19702149 .522171 .17895508 .50016787 .16088867 .47817485 .14705403 .45170085 .13745117 .42074586 .12784831 .38980104 .123046878 .35559083 .123046878 .31811524 .123046878 .27901206 .12695313 .24398296 .13476563 .21302796 .14257813 .18207295 .15478516 .1558431 .17138672 .13433838 .18798828 .11283366 .20922852 .0963796 .23510742 .0849762 .26098634 .07357279 .2919922 .067871097 .328125 .067871097 .3343099 .067871097 .34098307 .06819662 .34814454 .068847659 .355306 .069498699 .36246745 .07039388 .3696289 .0715332 .37679038 .07267252 .38370768 .07405599 .39038087 .075683597 .39705406 .077311199 .40299479 .07910156 .40820313 .08105469V.2841797H.27783204V.35595704H.49414063V.029785157C.48079429 .02360026 .46671549 .018066407 .4519043 .013183594 .4370931 .008300781 .4219564 .004231771 .40649415 .0009765625 .3910319-.0022786458 .37565104-.0047200524 .36035157-.0063476564 .3450521-.007975261 .33024089-.0087890629 .31591798-.0087890629 .2722982-.0087890629 .23299153-.0019480387 .19799805 .011734009 .16300456 .025416056 .1332194 .04569499 .10864258 .0725708 .08406576 .09944662 .06518555 .13291931 .052001954 .17298889 .03881836 .21305847 .032226564 .2594808 .032226564 .31225587 .032226564 .36469523 .03955078 .41168214 .05419922 .45321656 .068847659 .49476115 .08943685 .52994796 .1159668 .55877688 .14249675 .5876058 .17439778 .6095937 .21166992 .6247406 .24894206 .6398875 .29003907 .64746096 .33496095 .64746096 .36360679 .64746096 .39086915 .6449382 .41674806 .6398926 .44262696 .634847 .4674479 .62679037 .49121095 .61572268V.5292969Z"/>
<path id="font_1_2" d="M.5048828 .24902344C.5048828 .2109375 .49951173 .17602539 .48876954 .14428711 .47802735 .11254883 .4625651 .085367839 .4423828 .06274414 .42220054 .04012044 .3976237 .022542319 .36865235 .010009766 .339681-.0025227864 .30680339-.0087890629 .27001954-.0087890629 .23486328-.0087890629 .20336914-.0033365887 .17553711 .0075683596 .14770508 .018473307 .12410482 .034505208 .10473633 .055664064 .085367839 .076822917 .07055664 .103027347 .060302736 .13427735 .050048829 .16552735 .044921876 .20149739 .044921876 .2421875 .044921876 .28027345 .05029297 .3150228 .061035158 .34643556 .071777347 .3778483 .087239589 .40486656 .107421878 .42749024 .12760417 .45011393 .15218099 .46769206 .18115235 .4802246 .2101237 .49275718 .2430013 .49902345 .27978517 .49902345 .3149414 .49902345 .34643556 .49357096 .37426759 .48266603 .4020996 .47176109 .42569987 .45581056 .44506837 .43481446 .46443687 .41381837 .47924806 .3876953 .48950196 .3564453 .49975587 .3251953 .5048828 .28938804 .5048828 .24902344M.41796876 .24511719C.41796876 .27539063 .41463218 .3018392 .40795899 .3244629 .4012858 .34708659 .3917643 .3659668 .37939454 .38110353 .36702476 .39624024 .3519694 .40763346 .33422853 .4152832 .31648765 .42293296 .29671226 .4267578 .27490235 .4267578 .24951172 .4267578 .2277832 .4217936 .2097168 .41186524 .19165039 .40193687 .17683919 .38867188 .1652832 .3720703 .15372722 .35546876 .14526367 .33618165 .13989258 .31420899 .13452149 .29223634 .13183594 .26920573 .13183594 .24511719 .13183594 .21484375 .13517253 .1883138 .1418457 .16552735 .14851888 .14274089 .15804036 .1237793 .17041016 .10864258 .18277996 .09350586 .1977539 .08211263 .21533203 .07446289 .23291016 .06681315 .25276695 .06298828 .27490235 .06298828 .30029298 .06298828 .32202149 .06795248 .3400879 .07788086 .3581543 .08780924 .37296549 .10107422 .38452149 .11767578 .39607749 .13427735 .40454103 .15356446 .4099121 .17553711 .4152832 .19750977 .41796876 .22070313 .41796876 .24511719Z"/>
<path id="font_1_3" d="M.053222658 .23486328C.053222658 .27652995 .05891927 .31355796 .0703125 .34594728 .08170573 .37833659 .09790039 .40568034 .118896488 .42797853 .13989258 .4502767 .16512044 .46720378 .19458008 .47875978 .22403972 .49031578 .25683595 .49609376 .29296876 .49609376 .30859376 .49609376 .3239746 .4951172 .33911134 .49316407 .35424806 .49121095 .36914063 .4881185 .38378907 .48388673V.6904297H.46923829V0H.3930664L.39013673 .09277344C.3663737 .05826823 .34065757 .032714845 .31298829 .016113282 .285319-.00048828127 .2553711-.0087890629 .22314453-.0087890629 .19514974-.0087890629 .17049153-.0029296876 .14916992 .0087890629 .12784831 .020507813 .11010742 .037027997 .095947269 .05834961 .08178711 .07967123 .071126308 .10530599 .063964847 .1352539 .056803388 .16520183 .053222658 .19840496 .053222658 .23486328M.14013672 .24023438C.14013672 .18098958 .1488444 .13680013 .16625977 .107666019 .18367513 .0785319 .20833333 .063964847 .24023438 .063964847 .26171876 .063964847 .28442384 .07356771 .3083496 .09277344 .3322754 .111979167 .35742188 .14046224 .38378907 .17822266V.40576173C.36979167 .41227214 .35432945 .41723634 .33740235 .4206543 .32047526 .42407228 .30371095 .42578126 .28710938 .42578126 .24088542 .42578126 .20483399 .41080729 .17895508 .38085938 .15307617 .35091148 .14013672 .30403648 .14013672 .24023438Z"/>
<path id="font_1_4" d="M.49609376 .44335938C.49609376 .41731773 .49121095 .39152018 .4814453 .3659668 .4716797 .34041343 .45654298 .31754557 .43603517 .29736329 .41552735 .277181 .3893229 .26082359 .35742188 .24829102 .32552085 .23575847 .2874349 .22949219 .24316406 .22949219H.1640625V0H.07714844V.6386719H.25683595C.28841148 .6386719 .3186849 .63517257 .34765626 .6281738 .3766276 .6211751 .4020996 .6098633 .42407228 .5942383 .44604493 .5786133 .46354167 .55843099 .4765625 .5336914 .48958335 .50895187 .49609376 .47884117 .49609376 .44335938M.40576173 .43945313C.40576173 .48046876 .39233399 .51188156 .36547853 .5336914 .33862306 .5555013 .30110679 .56640627 .2529297 .56640627H.1640625V.30371095H.24511719C.29654948 .30371095 .33618165 .3149414 .36401368 .33740235 .3918457 .35986329 .40576173 .39388023 .40576173 .43945313Z"/>
<path id="font_1_5" d="M.09814453 .49023438H.17578125L.17822266 .40013124C.20719402 .43488059 .23575847 .4600474 .26391603 .4756317 .29207359 .4912262 .32047526 .49902345 .3491211 .49902345 .39990235 .49902345 .43839518 .48262535 .4645996 .4498291 .49080406 .41703288 .5029297 .3683268 .50097659 .30371095H.41503907C.41601563 .34650675 .40974937 .37754823 .39624024 .39683534 .3827311 .4161326 .36295573 .42578126 .33691407 .42578126 .32552085 .42578126 .31404624 .42375184 .30249024 .419693 .29093424 .41564433 .27905274 .40916444 .2668457 .4002533 .25463868 .39134217 .24169922 .37991334 .22802735 .3659668 .21435547 .35203044 .19970703 .33517457 .18408203 .31539918V0H.09814453V.49023438Z"/>
<path id="font_1_6" d="M.4921875 .2709961C.4921875 .2589518 .49202476 .24886067 .49169923 .24072266 .4913737 .23258464 .4908854 .22493489 .49023438 .21777344H.1459961C.1459961 .16764324 .15999349 .12915039 .18798828 .10229492 .21598308 .07543945 .25634767 .06201172 .30908204 .06201172 .32340495 .06201172 .33772788 .06259155 .35205079 .06375122 .3663737 .06492106 .38020835 .06650289 .3935547 .068496707 .40690104 .070500697 .41967774 .07274882 .43188478 .07524109 .4440918 .07774353 .45540367 .0804952 .4658203 .083496097V.013671875C.44270835 .007019043 .4165853 .0016123453 .38745118-.0025482178 .35831706-.006708781 .328125-.0087890629 .296875-.0087890629 .2548828-.0087890629 .21875-.003092448 .18847656 .008300781 .15820313 .01969401 .13338216 .03621419 .11401367 .057861329 .09464518 .07950846 .080322269 .106038417 .07104492 .13745117 .061767579 .16886394 .057128908 .20442708 .057128908 .24414063 .057128908 .27864585 .062093099 .3112793 .072021488 .34204103 .08194987 .37280274 .09643555 .39982096 .115478519 .4230957 .13452149 .44637046 .15787761 .46484376 .18554688 .47851563 .21321614 .4921875 .2446289 .49902345 .27978517 .49902345 .31396485 .49902345 .34423829 .49365235 .37060548 .48291017 .39697267 .47216798 .41918946 .45694987 .43725587 .43725587 .45532228 .41756187 .46899415 .39363609 .47827149 .36547853 .48754884 .33732096 .4921875 .3058268 .4921875 .2709961M.4038086 .28320313C.40478517 .30501304 .40266929 .32495118 .39746095 .34301759 .3922526 .36108399 .38419596 .3766276 .37329103 .38964845 .36238609 .40266929 .34879557 .4128418 .33251954 .42016603 .3162435 .42749024 .29736329 .43115235 .2758789 .43115235 .25732423 .43115235 .24039714 .42757163 .22509766 .42041017 .20979817 .4132487 .19661458 .40315757 .18554688 .39013673 .17447917 .37711589 .16552735 .36149089 .1586914 .34326173 .15185547 .32503257 .1476237 .30501304 .1459961 .28320313H.4038086Z"/>
<path id="font_1_7" d="M.24511719 .41992188H.100097659V.49023438H.3310547V.07080078H.47705079V0H.083984378V.07080078H.24511719V.41992188M.27490235 .69628909C.28434245 .69628909 .2931315 .6945801 .30126954 .6911621 .30940757 .68774417 .31648765 .6829427 .32250978 .6767578 .3285319 .67057296 .33325196 .66349288 .33666993 .6555176 .3400879 .6475423 .34179688 .63883468 .34179688 .62939456 .34179688 .62027999 .3400879 .6116536 .33666993 .6035156 .33325196 .5953776 .3285319 .5882161 .32250978 .58203127 .31648765 .5758464 .30940757 .5710449 .30126954 .56762698 .2931315 .564209 .28434245 .5625 .27490235 .5625 .26546226 .5625 .2566732 .564209 .24853516 .56762698 .24039714 .5710449 .23331706 .5758464 .22729492 .58203127 .22127278 .5882161 .21655274 .5953776 .21313477 .6035156 .2097168 .6116536 .20800781 .62027999 .20800781 .62939456 .20800781 .63883468 .2097168 .6475423 .21313477 .6555176 .21655274 .66349288 .22127278 .67057296 .22729492 .6767578 .23331706 .6829427 .24039714 .68774417 .24853516 .6911621 .2566732 .6945801 .26546226 .69628909 .27490235 .69628909Z"/>
<path id="font_1_8" d="M.45898438 .018066407C.43684898 .009602864 .4141439 .0033365887 .39086915-.0007324219 .3675944-.004801432 .34358726-.0068359377 .31884767-.0068359377 .2413737-.0068359377 .181722 .014160156 .13989258 .056152345 .09806315 .09814453 .07714844 .1595052 .07714844 .24023438 .07714844 .27897135 .08317057 .3141276 .095214847 .34570313 .10725912 .37727867 .124186199 .40429688 .1459961 .4267578 .16780599 .44921876 .19384766 .46655274 .2241211 .47875978 .25439454 .4909668 .2877604 .4970703 .32421876 .4970703 .34960938 .4970703 .3733724 .49523927 .3955078 .49157716 .41764323 .4879252 .4388021 .48194377 .45898438 .4736328V.39257813C.43782554 .40381877 .41625978 .41199748 .3942871 .41711427 .37231446 .4222412 .34960938 .4248047 .32617188 .4248047 .30436198 .4248047 .2837728 .4206543 .2644043 .41235353 .24503581 .40405274 .22802735 .39208985 .2133789 .37646485 .19873047 .36083985 .18717449 .34179688 .17871094 .31933595 .17024739 .296875 .16601563 .27148438 .16601563 .24316406 .16601563 .18391927 .18041992 .13956706 .20922852 .11010742 .23803711 .08064779 .27799479 .06591797 .32910157 .06591797 .35221354 .06591797 .3745931 .06852213 .39624024 .07373047 .41788737 .078938808 .4388021 .086751308 .45898438 .09716797V.018066407Z"/>
<path id="font_1_9" d="M.47314454 .0073242189C.4539388 .0022684735 .43408204-.0013529459 .41357423-.003540039 .3930664-.0057373049 .37223307-.0068359377 .35107423-.0068359377 .28955079-.0068359377 .24365235 .007080078 .2133789 .03491211 .18310547 .06274414 .16796875 .10546875 .16796875 .16308594V.4189453H.030761719V.49023438H.16796875V.62542727L.2529297 .64746096V.49023438H.47314454V.4189453H.2529297V.16992188C.2529297 .13476563 .26228843 .10847982 .28100587 .09106445 .2997233 .073649089 .3273112 .064941409 .36376954 .064941409 .37939454 .064941409 .39648438 .066197719 .41503907 .06871033 .43359376 .071233119 .45296226 .07518514 .47314454 .080566409V.0073242189Z"/>
<path id="font_1_10" d="M.078125 .49023438H.1538086L.15722656 .4111328C.17154949 .4280599 .18538411 .44213868 .19873047 .45336915 .21207683 .4645996 .22517903 .4736328 .23803711 .48046876 .25089518 .4873047 .2639974 .4921061 .27734376 .49487306 .2906901 .49763999 .30452476 .49902345 .31884767 .49902345 .36930339 .49902345 .4074707 .48413087 .4333496 .4543457 .45922853 .42456056 .47216798 .37972007 .47216798 .31982423V0H.38720704V.31298829C.38720704 .35139976 .38004557 .37980143 .36572267 .39819337 .35139976 .4165853 .33007813 .42578126 .3017578 .42578126 .29134117 .42578126 .2811686 .42423503 .27124024 .42114259 .26131187 .41805015 .25097657 .41267906 .24023438 .4050293 .22949219 .39737956 .21785482 .38704429 .20532227 .37402345 .19278972 .3610026 .17871094 .34472657 .16308594 .3251953V0H.078125V.49023438Z"/>
<path id="font_1_11" d="M.4663086 .13378906C.4663086 .11653646 .4633789 .10107422 .45751954 .087402347 .45166017 .07373047 .4436849 .061604818 .43359376 .05102539 .4235026 .040445966 .41178385 .03141276 .3984375 .023925782 .38509117 .016438803 .3708496 .010253906 .3557129 .0053710939 .34057618 .00048828127 .32503257-.003092448 .30908204-.0053710939 .2931315-.0076497399 .2775065-.0087890629 .26220704-.0087890629 .2290039-.0087890629 .19848633-.0073242189 .1706543-.0043945314 .14282227-.0014648438 .1155599 .0032552083 .08886719 .009765625V.087890628C.11751302 .0797526 .1459961 .07356771 .1743164 .06933594 .20263672 .065104167 .23079427 .06298828 .25878907 .06298828 .29947917 .06298828 .32958985 .06852213 .3491211 .079589847 .36865235 .090657558 .37841798 .10644531 .37841798 .12695313 .37841798 .13574219 .37687174 .14363607 .3737793 .15063477 .37068687 .15763347 .36507163 .16430664 .3569336 .1706543 .34879557 .17700196 .33618165 .18359375 .3190918 .19042969 .30200196 .19726563 .27864585 .20507813 .24902344 .21386719 .22688802 .22037761 .2064616 .2277832 .18774414 .23608399 .16902669 .24438477 .15283203 .25423179 .13916016 .265625 .12548828 .27701823 .114746097 .2903646 .106933597 .30566407 .099121097 .32096354 .095214847 .33902995 .095214847 .35986329 .095214847 .37353517 .09838867 .38850913 .10473633 .40478517 .111083988 .4210612 .121907558 .4361979 .13720703 .4501953 .15250652 .46419273 .17317708 .47583009 .19921875 .48510743 .22526042 .49438478 .2578125 .49902345 .296875 .49902345 .31608073 .49902345 .33740235 .49796549 .36083985 .4958496 .38427735 .49373374 .4086914 .49007163 .43408204 .48486329V.4091797C.4073893 .4156901 .38208009 .42049156 .3581543 .42358399 .33422853 .42667643 .31347657 .42822267 .29589845 .42822267 .2747396 .42822267 .25691734 .42659507 .24243164 .42333985 .22794597 .42008464 .21622722 .41560874 .20727539 .4099121 .19832357 .40421549 .19189453 .39754234 .18798828 .38989259 .18408203 .38224284 .1821289 .37402345 .1821289 .36523438 .1821289 .3564453 .18383789 .34847007 .18725586 .3413086 .19067383 .33414714 .19702149 .32722984 .20629883 .32055665 .21557617 .31388346 .22851563 .3072103 .24511719 .3005371 .26171876 .29386393 .28336589 .2866211 .3100586 .2788086 .33902995 .27034507 .363444 .2614746 .38330079 .25219728 .40315757 .24291992 .41927085 .23258464 .43164063 .2211914 .4440104 .20979817 .45288087 .19694011 .45825196 .18261719 .46362306 .16829427 .4663086 .15201824 .4663086 .13378906Z"/>
<path id="font_1_12" d="M.49609376 .19091797C.49609376 .16031902 .49015299 .1332194 .47827149 .10961914 .46638999 .08601888 .4494629 .06608073 .42749024 .049804689 .40551759 .033528646 .37898765 .021158854 .3479004 .0126953129 .31681315 .004231771 .28222657 0 .24414063 0H.07714844V.6386719H.25976563C.40201823 .6386719 .47314454 .5868276 .47314454 .48313905 .47314454 .44858299 .46492515 .4189148 .44848634 .39413453 .43204753 .36935426 .40527345 .3509318 .36816407 .3388672 .38541667 .33561198 .40177409 .33007813 .41723634 .32226563 .43269859 .31445313 .44628907 .30436198 .4580078 .2919922 .46972657 .2796224 .4790039 .26497398 .48583985 .24804688 .49267579 .2311198 .49609376 .21207683 .49609376 .19091797M.3828125 .4714508C.3828125 .48450218 .38085938 .49682109 .37695313 .5084076 .37304688 .5199941 .36621095 .52994796 .3564453 .53826907 .3466797 .54659017 .3334961 .5531972 .31689454 .5580902 .30029298 .5629832 .27929688 .5654297 .25390626 .5654297H.1640625V.36523438H.25097657C.27083335 .36523438 .28881837 .36735536 .30493165 .3715973 .32104493 .37583924 .33487956 .3823649 .34643556 .39117433 .35799156 .39998374 .36694337 .41099549 .37329103 .4242096 .37963868 .43743388 .3828125 .45318095 .3828125 .4714508M.4038086 .18798828C.4038086 .20426433 .40039063 .21891277 .3935547 .2319336 .38671876 .24495442 .37679038 .25594078 .36376954 .26489259 .3507487 .2738444 .33487956 .28076173 .3161621 .28564454 .29744468 .29052735 .2763672 .29296876 .2529297 .29296876H.1640625V.07324219H.25585938C.30566407 .07324219 .34277345 .08251953 .3671875 .10107422 .39160157 .119628909 .4038086 .14860027 .4038086 .18798828Z"/>
<path id="font_1_13" d="M.3930664 0 .39111329 .0660553C.36442057 .03963725 .33732096 .020558676 .30981446 .00881958 .28230796-.002919515 .25341798-.0087890629 .22314453-.0087890629 .19514974-.0087890629 .17122396-.005203247 .15136719 .0019683839 .13151042 .009140015 .11515299 .01900228 .10229492 .031555177 .08943685 .044108076 .07999674 .058863325 .07397461 .07582092 .06795248 .092778529 .064941409 .111200969 .064941409 .13108826 .064941409 .18032329 .08325195 .21887715 .11987305 .24674988 .15649414 .27463279 .21061199 .28857423 .28222657 .28857423H.38378907V.33139039C.38378907 .36026 .37451173 .38337199 .35595704 .40072633 .33740235 .41808067 .30908204 .4267578 .2709961 .4267578 .24332683 .4267578 .21606446 .4236196 .18920899 .41734315 .16235352 .41107688 .13460286 .4021708 .10595703 .390625V.46728517C.11669922 .47125245 .12866211 .47513835 .1418457 .47894288 .1550293 .4827474 .16894531 .48613487 .18359375 .48910523 .19824219 .49208579 .21354167 .4944814 .22949219 .4962921 .2454427 .498113 .261556 .49902345 .27783204 .49902345 .30745445 .49902345 .33414714 .49576823 .35791017 .4892578 .3816732 .4827474 .40177409 .472819 .4182129 .45947267 .4346517 .4461263 .44726563 .42936198 .4560547 .4091797 .46484376 .3889974 .46923829 .36523438 .46923829 .33789063V0H.3930664M.38378907 .22363281H.2758789C.25472007 .22363281 .23649089 .22150676 .2211914 .21725464 .20589192 .2130127 .19335938 .2069753 .18359375 .19914246 .17382813 .19130962 .16658528 .18192037 .16186524 .17097473 .15714519 .16003926 .15478516 .14771526 .15478516 .13400269 .15478516 .12453207 .15625 .115468349 .15917969 .10681152 .16210938 .09816488 .16682942 .09049479 .17333985 .08380127 .17985027 .07710775 .1883138 .07180277 .19873047 .06788635 .20914714 .06396993 .22184246 .06201172 .2368164 .06201172 .25634767 .06201172 .2787272 .067967738 .30395509 .07987976 .32918296 .091801967 .35579429 .11066183 .38378907 .13645935V.22363281Z"/>
<path id="font_2_1" d="M.041503908 .35327149C.041503908 .43784587 .05021159 .50591537 .06762695 .55747988 .08504232 .6090444 .11092123 .6488139 .14526367 .67678835 .17960613 .70476278 .22281902 .71875 .27490235 .71875 .3133138 .71875 .34700523 .711024 .37597657 .6955719 .4049479 .6801198 .4288737 .6578369 .4477539 .62872317 .46663413 .5996094 .4814453 .56414797 .4921875 .52233889 .5029297 .48053996 .5083008 .42418418 .5083008 .35327149 .5083008 .26934815 .49967448 .2016042 .48242188 .15003968 .46516929 .098475139 .43937174 .058624269 .4050293 .03048706 .37068687 .0023498536 .3273112-.01171875 .27490235-.01171875 .20589192-.01171875 .1516927 .013005574 .11230469 .062454225 .065104167 .12198385 .041503908 .21892293 .041503908 .35327149M.13183594 .35351563C.13183594 .23639934 .14558919 .15845235 .1730957 .11967468 .20060222 .08090719 .23453777 .061523439 .27490235 .061523439 .31526695 .061523439 .34920249 .08098856 .37670899 .11991882 .40421549 .15884908 .41796876 .23671468 .41796876 .35351563 .41796876 .47095744 .40421549 .5489807 .37670899 .58758547 .34920249 .6262004 .3149414 .6455078 .27392579 .6455078 .2335612 .6455078 .20133464 .62847396 .1772461 .5944061 .14697266 .5509288 .13183594 .47063194 .13183594 .35351563Z"/>
<path id="font_2_2" d="M.50341799 .084472659V0H.030273438C.029622397 .021148682 .033040365 .041483564 .040527345 .06100464 .052571615 .09321085 .07185873 .124928798 .09838867 .15615845 .12491862 .1873881 .1632487 .22350057 .2133789 .26449586 .29117839 .3282369 .34375 .37872825 .37109376 .41596986 .3984375 .45321147 .41210938 .48841859 .41210938 .5215912 .41210938 .5563914 .3996582 .5857442 .37475587 .60964968 .34985353 .6335551 .3173828 .6455078 .27734376 .6455078 .23502605 .6455078 .20117188 .6328125 .17578125 .6074219 .15039063 .58203127 .13753255 .546875 .13720703 .5019531L.046875 .5112457C.053059896 .5787811 .07633463 .630249 .11669922 .6656494 .1570638 .7010498 .21126302 .71875 .27929688 .71875 .34798179 .71875 .40234376 .69970199 .4423828 .66160586 .48242188 .6235097 .5024414 .57629397 .5024414 .5199585 .5024414 .4913025 .49658204 .46313478 .48486329 .43545533 .47314454 .40777589 .45369468 .3786316 .42651368 .34802247 .39933268 .3174235 .35416667 .27542115 .29101563 .22201538 .23828125 .17779541 .20442708 .14779663 .18945313 .13201905 .17447917 .116251628 .16210938 .10040283 .15234375 .084472659H.50341799Z"/>
<path id="font_2_3" d="M.3232422 0V.17138672H.0126953129V.25195313L.33935548 .7158203H.4111328V.25195313H.5078125V.17138672H.4111328V0H.3232422M.3232422 .25195313V.57470706L.099121097 .25195313H.3232422Z"/>
<path id="font_2_4" d="M.4975586 .5400543 .41015626 .5332031C.40234376 .5675557 .39127604 .59251406 .37695313 .608078 .3531901 .6330312 .32389323 .6455078 .2890625 .6455078 .26106773 .6455078 .23649089 .637736 .21533203 .6221924 .18766277 .602122 .16585286 .57282 .14990235 .5342865 .13395183 .49575297 .12565105 .4408671 .125 .3696289 .14615886 .40185548 .17203777 .42578126 .20263672 .44140626 .23323567 .45703126 .26529948 .46484376 .29882813 .46484376 .35742188 .46484376 .40730796 .44327799 .44848634 .40014649 .4896647 .35701499 .5102539 .30126954 .5102539 .23291016 .5102539 .18798828 .50056967 .14624024 .48120118 .107666019 .46183268 .0690918 .43522135 .03955078 .4013672 .019042969 .36751304-.0014648438 .32910157-.01171875 .2861328-.01171875 .21289063-.01171875 .15315755 .015197754 .106933597 .06903076 .060709638 .12287394 .037597658 .2116038 .037597658 .33522035 .037597658 .47347514 .06315104 .57399496 .11425781 .6367798 .15885417 .6914266 .21891277 .71875 .2944336 .71875 .3507487 .71875 .39689128 .70292159 .43286134 .67126467 .4688314 .6396077 .49039714 .595871 .4975586 .5400543M.13867188 .23287964C.13867188 .20269776 .1451009 .17381287 .15795899 .14622498 .17081706 .118637088 .18880208 .09762064 .21191406 .08317566 .23502605 .068740848 .25927735 .061523439 .28466798 .061523439 .32177735 .061523439 .35367839 .07645162 .3803711 .10630798 .4070638 .13616435 .42041017 .17673238 .42041017 .22801209 .42041017 .27734886 .40722657 .31621299 .38085938 .3446045 .3544922 .3730062 .32128907 .38720704 .28125 .38720704 .24153646 .38720704 .20784505 .3730062 .18017578 .3446045 .15250652 .31621299 .13867188 .27897135 .13867188 .23287964Z"/>
<path id="font_2_5" d="M.17675781 .38916017C.14029949 .40246583 .11328125 .42145286 .095703128 .44612123 .078125 .47078959 .06933594 .5003255 .06933594 .534729 .06933594 .5866597 .08805338 .63031008 .12548828 .66567996 .16292317 .70106 .21272786 .71875 .27490235 .71875 .33740235 .71875 .3876953 .7006531 .42578126 .6644592 .4638672 .6282756 .48291017 .5842183 .48291017 .5322876 .48291017 .4991862 .47420249 .4703827 .4567871 .44587709 .43937174 .42137147 .4129232 .40246583 .3774414 .38916017 .42138673 .3748169 .45483399 .3516744 .4777832 .31973268 .5007324 .28780113 .51220706 .24966939 .51220706 .20533753 .51220706 .1440684 .4905599 .09257507 .44726563 .050857545 .40397135 .009140015 .34700523-.01171875 .2763672-.01171875 .20572917-.01171875 .14876302 .009221395 .10546875 .051101686 .06217448 .09298197 .040527345 .14521282 .040527345 .20779419 .040527345 .25439454 .052327474 .29342143 .075927738 .32487489 .09952799 .35632835 .13313802 .37775675 .17675781 .38916017M.15917969 .53707888C.15917969 .5035197 .17008464 .47608949 .19189453 .4547882 .21370442 .4334971 .24202474 .42285157 .27685548 .42285157 .31070964 .42285157 .3384603 .4334208 .36010743 .45455934 .38175456 .47569786 .39257813 .501592 .39257813 .5322418 .39257813 .5641937 .38142906 .5910594 .35913087 .61283877 .33683268 .6346181 .30908204 .6455078 .2758789 .6455078 .24235027 .6455078 .21451824 .6348572 .19238281 .6135559 .17024739 .59226486 .15917969 .56677249 .15917969 .53707888M.13085938 .20776367C.13085938 .18273926 .13680013 .15852864 .14868164 .13513184 .16056316 .11173502 .17822266 .09361776 .20166016 .08078003 .22509766 .0679423 .25032554 .061523439 .27734376 .061523439 .31933595 .061523439 .3540039 .07500712 .38134767 .10197449 .4086914 .12895203 .42236329 .16323853 .42236329 .20483399 .42236329 .24708049 .40828453 .28201295 .38012696 .30963136 .3519694 .33725993 .31673179 .35107423 .27441407 .35107423 .23307292 .35107423 .19881185 .3374227 .17163086 .31011964 .14444988 .28282676 .13085938 .24870809 .13085938 .20776367Z"/>
<path id="font_2_6" d="M.3725586 0H.28466798V.5600586C.26350913 .5398763 .23575847 .51969406 .20141602 .49951173 .16707357 .47932945 .13623047 .46419273 .10888672 .45410157V.5390625C.15804036 .5621745 .20100911 .59016928 .23779297 .6230469 .2745768 .6559245 .3006185 .6878255 .31591798 .71875H.3725586V0Z"/>
<path id="font_2_7" d="M.08203125 0V.7158203H.5649414V.63134768H.17675781V.41015626H.5126953V.3256836H.17675781V0H.08203125Z"/>
<path id="font_2_8" d="M.033203126 .25927735C.033203126 .355306 .059895833 .42643229 .11328125 .47265626 .15787761 .5110677 .21223958 .53027346 .2763672 .53027346 .34765626 .53027346 .40592448 .5069173 .45117188 .46020509 .49641929 .41349284 .51904299 .34895835 .51904299 .26660157 .51904299 .1998698 .5090332 .14737956 .48901368 .10913086 .46899415 .070882167 .43986003 .041178388 .40161134 .020019532 .36336265-.0011393229 .3216146-.01171875 .2763672-.01171875 .20377605-.01171875 .1451009 .011555989 .1003418 .05810547 .055582685 .104654949 .033203126 .17171224 .033203126 .25927735M.123535159 .25952149C.123535159 .19335938 .13802083 .14381917 .16699219 .11090088 .19596355 .07798258 .23242188 .061523439 .2763672 .061523439 .31998698 .061523439 .35628257 .078063968 .3852539 .11114502 .41422526 .14422608 .42871095 .19465637 .42871095 .2624359 .42871095 .32632957 .4141439 .3747355 .38500978 .4076538 .35587565 .4405721 .31966148 .45703126 .2763672 .45703126 .23242188 .45703126 .19596355 .44065348 .16699219 .40789796 .13802083 .37514244 .123535159 .3256836 .123535159 .25952149Z"/>
<path id="font_2_9" d="M.064941409 0V.5185547H.14404297V.4404297C.16422527 .4770101 .18286133 .50112918 .19995117 .51278689 .21704102 .5244446 .23583985 .53027346 .25634767 .53027346 .28597007 .53027346 .31608073 .520874 .3466797 .5020752L.31640626 .42089845C.29492188 .43359376 .2734375 .4399414 .25195313 .4399414 .23274739 .4399414 .2154948 .43415324 .20019531 .4225769 .18489583 .41101075 .17399089 .3949636 .16748047 .37443543 .15771485 .3431549 .15283203 .3089396 .15283203 .27178956V0H.064941409Z"/>
<path id="font_2_10" d="M.42089845 .16699219 .51171877 .15576172C.49739585 .10270182 .47086589 .061523439 .4321289 .032226564 .39339195 .0029296876 .34391276-.01171875 .2836914-.01171875 .20784505-.01171875 .14770508 .01163737 .103271488 .05834961 .05883789 .10506185 .036621095 .17057292 .036621095 .2548828 .036621095 .3421224 .05908203 .40983073 .104003909 .4580078 .14892578 .5061849 .20719402 .53027346 .2788086 .53027346 .34814454 .53027346 .40478517 .5067088 .44873048 .45957948 .49267579 .41246034 .51464846 .34616599 .51464846 .2606964 .51464846 .25549827 .51448568 .247701 .51416018 .23730469H.1274414C.13069661 .1805013 .14680989 .13700359 .17578125 .10681152 .20475261 .07661947 .24088542 .061523439 .2841797 .061523439 .31640626 .061523439 .34391276 .0699056 .36669923 .08666992 .3894857 .10344442 .4075521 .1302185 .42089845 .16699219M.13232422 .31054688H.421875C.41796876 .3534546 .40690104 .38563539 .38867188 .40708924 .3606771 .4403839 .3243815 .45703126 .27978517 .45703126 .23942058 .45703126 .20548503 .44374085 .17797852 .41716004 .150472 .3905894 .1352539 .35505168 .13232422 .31054688Z"/>
<path id="font_2_11" d="M.40429688 .19042969 .49072267 .17919922C.48128257 .11947632 .45711265 .07272339 .4182129 .03894043 .37931315 .005167643 .33154298-.01171875 .27490235-.01171875 .2039388-.01171875 .14689128 .011474609 .103759769 .057861329 .060628255 .10424805 .0390625 .17073567 .0390625 .25732423 .0390625 .3133138 .048339845 .3623047 .06689453 .40429688 .08544922 .44628907 .11368815 .4777832 .15161133 .4987793 .1895345 .5197754 .23079427 .53027346 .27539063 .53027346 .33170573 .53027346 .37776695 .51598617 .41357423 .4874115 .4493815 .45884706 .47233073 .4182841 .48242188 .36572267L.39697267 .35253907C.38883464 .38720704 .37443034 .4132894 .35375978 .43078614 .3330892 .44828288 .30810548 .45703126 .2788086 .45703126 .23453777 .45703126 .1985677 .4412384 .17089844 .4096527 .14322917 .37807719 .12939453 .32811485 .12939453 .25976563 .12939453 .19043987 .14274089 .1400655 .1694336 .10864258 .1961263 .07722982 .23095703 .061523439 .27392579 .061523439 .308431 .061523439 .3372396 .07206217 .36035157 .09313965 .38346354 .114217128 .39811198 .14664714 .40429688 .19042969Z"/>
<path id="font_2_12" d="M.40429688 .06402588C.37174479 .03633626 .34041343 .016789755 .31030274 .0053863527 .28019206-.0060170495 .24788411-.01171875 .2133789-.01171875 .15641277-.01171875 .11263021 .0022074383 .08203125 .030059815 .051432294 .05791219 .036132814 .09350077 .036132814 .13682556 .036132814 .16222637 .04191081 .18542989 .053466798 .20643616 .06502279 .22745259 .08015951 .24431356 .09887695 .25701905 .1175944 .26972453 .13867188 .2793325 .16210938 .2858429 .17936199 .29041038 .20540364 .29480998 .24023438 .29904176 .3111979 .30744425 .363444 .3174642 .39697267 .32910157 .3972982 .34109498 .39746095 .3487142 .39746095 .35195924 .39746095 .38763429 .38916017 .4127655 .3725586 .4273529 .35009767 .44713847 .31673179 .45703126 .27246095 .45703126 .2311198 .45703126 .20060222 .44978843 .1809082 .43530274 .16121419 .42081706 .14664714 .39518229 .13720703 .35839845L.05126953 .3701172C.05908203 .40701295 .0719401 .43680827 .08984375 .45950318 .1077474 .4821981 .1336263 .4996643 .16748047 .51190188 .20133464 .5241496 .24055989 .53027346 .28515626 .53027346 .3294271 .53027346 .36539714 .5250651 .3930664 .51464846 .4207357 .50423178 .44108073 .49112956 .45410157 .4753418 .4671224 .45955406 .47623698 .43961589 .4814453 .41552735 .484375 .40055339 .48583985 .37353517 .48583985 .33447267V.21728516C.48583985 .13557942 .48771159 .08390299 .49145509 .06225586 .49519859 .040608724 .5026042 .019856772 .5136719 0H.421875C.4127604 .018249512 .40690104 .039591474 .40429688 .06402588M.39697267 .2607422C.36507163 .24760945 .31722007 .2364502 .25341798 .2272644 .21728516 .22203572 .19173177 .21615093 .17675781 .20960999 .16178386 .20307923 .15022786 .19351705 .14208985 .18092346 .13395183 .16834004 .12988281 .15436809 .12988281 .13900757 .12988281 .115478519 .13875325 .09586588 .15649414 .08016968 .17423503 .06448364 .20019531 .056640626 .234375 .056640626 .26822917 .056640626 .29833985 .064081829 .32470704 .07896423 .35107423 .09384664 .37044273 .11420695 .3828125 .14004517 .3922526 .16000366 .39697267 .18944295 .39697267 .22836304V.2607422Z"/>
<path id="font_2_13" d="M.030761719 .15527344 .11767578 .16894531C.122558597 .13426717 .1361491 .107691448 .15844727 .08921814 .18074544 .070755008 .21191406 .061523439 .25195313 .061523439 .29231773 .061523439 .32226563 .06967672 .34179688 .08598328 .36132813 .10230001 .37109376 .12143453 .37109376 .14338684 .37109376 .16309102 .36246745 .17859395 .34521485 .18989563 .33317057 .1976471 .30322267 .20749919 .2553711 .2194519 .19091797 .23573812 .14624024 .24982707 .12133789 .26171876 .09643555 .27361045 .077555339 .29006449 .064697269 .31108094 .05183919 .33209739 .045410158 .35531108 .045410158 .38072206 .045410158 .40385438 .05069987 .4252777 .061279298 .44499208 .07185873 .46470643 .08626302 .4810791 .10449219 .4941101 .11816406 .5042114 .13680013 .5127614 .16040039 .51976016 .18400066 .526769 .20930989 .53027346 .23632813 .53027346 .27701823 .53027346 .31274415 .52437338 .34350587 .51257327 .37426759 .50078329 .39697267 .48480735 .4116211 .4646454 .42626954 .44449363 .4363607 .4175415 .44189454 .38378907L.35595704 .3720703C.35205079 .39876304 .34073893 .41959635 .32202149 .4345703 .30330406 .44954429 .27685548 .45703126 .24267578 .45703126 .2023112 .45703126 .17350261 .45038859 .15625 .43710328 .13899739 .42382813 .1303711 .40827943 .1303711 .39045716 .1303711 .37912498 .13395183 .3689219 .14111328 .35984803 .14827474 .35045878 .1595052 .34268699 .17480469 .3365326 .18359375 .33328758 .20947266 .32583619 .2524414 .31417848 .31461589 .29758708 .35799156 .28400675 .38256837 .2734375 .40714518 .26286827 .42643229 .24749756 .4404297 .22732544 .4544271 .2071635 .46142579 .18212383 .46142579 .15220642 .46142579 .12292989 .45288087 .09536234 .43579103 .069503787 .41870118 .043655397 .39404298 .02365621 .3618164 .009506226 .32958985-.0046437585 .2931315-.01171875 .2524414-.01171875 .1850586-.01171875 .13370769 .002319336 .09838867 .030395508 .063069667 .05847168 .040527345 .100097659 .030761719 .15527344Z"/>
<path id="font_2_14" d="M.2578125 .07763672 .2705078 0C.24576824-.0045572917 .22363281-.0068359377 .20410156-.0068359377 .17220052-.0068359377 .14746094-.0017903646 .12988281 .008300781 .11230469 .018391928 .0999349 .031656904 .09277344 .048095704 .08561198 .06453451 .08203125 .099121097 .08203125 .15185547V.4501953H.017578125V.5185547H.08203125V.6473236L.1694336 .7001953V.5185547H.2578125V.4501953H.1694336V.14697266C.1694336 .121907558 .17097982 .10579427 .17407227 .09863281 .17716472 .09147135 .18221028 .08577474 .18920899 .08154297 .19620769 .077311199 .20621746 .07519531 .21923828 .07519531 .2290039 .07519531 .24186199 .07600912 .2578125 .07763672Z"/>
<path id="font_2_15" d="M.40234376 0V.06542969C.36946617 .0139973959 .3211263-.01171875 .25732423-.01171875 .21598308-.01171875 .17797852-.00032552085 .14331055 .022460938 .10864258 .045247396 .08178711 .077067058 .06274414 .11791992 .043701173 .15877278 .034179689 .20572917 .034179689 .25878907 .034179689 .31054688 .04280599 .35750328 .060058595 .3996582 .077311199 .44181315 .1031901 .4741211 .13769531 .49658204 .17220052 .51904299 .21077474 .53027346 .25341798 .53027346 .28466798 .53027346 .3125 .52368167 .33691407 .51049807 .36132813 .49731446 .3811849 .48014323 .39648438 .45898438V.7158203H.48388673V0H.40234376M.12451172 .2590332C.12451172 .1928711 .13850911 .14341228 .1665039 .11065674 .1944987 .07790121 .22753906 .061523439 .265625 .061523439 .30403648 .061523439 .33666993 .077168788 .3635254 .10845947 .39038087 .13976033 .4038086 .18752034 .4038086 .2517395 .4038086 .32243858 .39013673 .3743286 .36279298 .40740968 .33544923 .44049073 .3017578 .45703126 .26171876 .45703126 .22265625 .45703126 .19002278 .4411367 .16381836 .40934754 .13761394 .37756858 .12451172 .32746379 .12451172 .2590332Z"/>
<path id="font_2_16" d="M.1616211 0 .0029296876 .5185547H.09375L.17626953 .21928406 .20703125 .107910159C.20833333 .11343384 .21728516 .14904277 .23388672 .21473694L.31640626 .5185547H.40673829L.484375 .21783448 .5102539 .118652347 .54003909 .21876526 .62890627 .5185547H.71435549L.5522461 0H.4609375L.37841798 .31071473 .35839845 .39892579 .25341798 0H.1616211Z"/>
<path id="font_2_17" d="M.06640625 .6142578V.7158203H.15429688V.6142578H.06640625M.06640625 0V.5185547H.15429688V0H.06640625Z"/>
<path id="font_2_18" d="M.06591797 0V.5185547H.14501953V.4453125C.18310547 .5019531 .23811849 .53027346 .3100586 .53027346 .3413086 .53027346 .3700358 .5246582 .39624024 .51342776 .42244468 .50219729 .44205729 .48746745 .45507813 .46923829 .46809898 .45100913 .47721354 .42936198 .48242188 .40429688 .4856771 .38802085 .4873047 .35953776 .4873047 .31884767V0H.39941407V.31576539C.39941407 .35161338 .3959961 .37841798 .38916017 .3961792 .38232423 .41394044 .37019859 .42811585 .3527832 .43870545 .33536784 .44929505 .3149414 .45458985 .2915039 .45458985 .254069 .45458985 .22176107 .44269309 .19458008 .41889955 .1673991 .39511619 .1538086 .34998576 .1538086 .2835083V0H.06591797Z"/>
<path id="font_3_1" d="M.81884768 .16210938C.81884768 .13834636 .8158366 .11515299 .80981448 .0925293 .8037923 .0699056 .79451498 .04972331 .7819824 .031982423 .7694499 .014241536 .7534993 0 .73413088-.0107421879 .7147624-.021484375 .69173178-.026855469 .66503909-.026855469 .63704428-.026855469 .61344406-.021240235 .5942383-.010009766 .57503256 .0012207031 .55948898 .015950522 .5476074 .034179689 .5357259 .052408857 .52718099 .073160808 .52197268 .09643555 .51676437 .11971029 .51416018 .14355469 .51416018 .16796875 .51416018 .19108074 .51708987 .21370442 .5229492 .23583985 .5288086 .25797526 .5378418 .27766929 .5500488 .29492188 .56225588 .31217448 .5777995 .32600913 .5966797 .33642579 .6155599 .34684245 .6380208 .35205079 .6640625 .35205079 .69140627 .35205079 .7149251 .34676109 .73461917 .33618165 .7543132 .3256022 .77034506 .31144206 .78271487 .29370118 .79508468 .2759603 .8041992 .25569663 .8100586 .23291016 .81591799 .2101237 .81884768 .18652344 .81884768 .16210938M.67578127 .72802737 .28710938-.024902344H.21386719L.60498049 .72802737H.67578127M.3779297 .5371094C.3779297 .5133464 .3749186 .49015299 .36889649 .4675293 .36287437 .4449056 .35359703 .4247233 .34106446 .40698243 .3285319 .38924156 .3125814 .375 .2932129 .3642578 .2738444 .35351563 .2508138 .34814454 .2241211 .34814454 .1961263 .34814454 .17252605 .35375978 .15332031 .36499024 .13411458 .3762207 .11857096 .39095054 .10668945 .4091797 .094807948 .42740885 .08626302 .4481608 .08105469 .47143556 .07584635 .4947103 .07324219 .5185547 .07324219 .54296877 .07324219 .56608077 .076171878 .5887044 .08203125 .61083987 .087890628 .6329753 .09692383 .65266928 .10913086 .6699219 .12133789 .6871745 .13688152 .7010091 .15576172 .7114258 .17464192 .72184249 .19710286 .7270508 .22314453 .7270508 .25048829 .7270508 .27400718 .72176107 .29370118 .71118167 .31339518 .70060226 .3294271 .6864421 .34179688 .6687012 .35416667 .65096029 .36328126 .6306966 .36914063 .60791018 .375 .5851237 .3779297 .56152346 .3779297 .5371094M.74316409 .16601563C.74316409 .17903646 .74226889 .1928711 .7404785 .20751953 .7386882 .22216797 .7351074 .23575847 .7297363 .24829102 .72436526 .26082359 .7166341 .27124024 .70654299 .27954103 .69645187 .2878418 .6829427 .2919922 .6660156 .2919922 .64908859 .2919922 .6355794 .28751628 .6254883 .27856446 .61539718 .26961265 .6077474 .25838218 .60253909 .24487305 .59733077 .23136394 .5939128 .21687825 .59228518 .20141602 .59065756 .18595378 .58984377 .171875 .58984377 .15917969 .58984377 .14648438 .59065756 .1328125 .59228518 .11816406 .5939128 .103515628 .5974121 .08992513 .6027832 .07739258 .6081543 .06486002 .61588546 .05452474 .62597659 .04638672 .6360677 .0382487 .64941409 .034179689 .6660156 .034179689 .6829427 .034179689 .6965332 .038655599 .7067871 .047607423 .717041 .056559247 .7248535 .06762695 .7302246 .08081055 .7355957 .09399414 .73909506 .10823568 .74072268 .123535159 .7423503 .13883464 .74316409 .1529948 .74316409 .16601563M.3017578 .5410156C.3017578 .55403646 .300944 .5678711 .2993164 .58251956 .2976888 .59716799 .29418946 .6107585 .28881837 .623291 .28344728 .63582357 .27571617 .64624026 .265625 .654541 .25553385 .6628418 .24202474 .6669922 .22509766 .6669922 .20817058 .6669922 .19466146 .6625163 .18457031 .65356448 .17447917 .6446126 .16682942 .63338217 .1616211 .61987307 .15641277 .60636398 .1529948 .59187826 .15136719 .576416 .14973958 .5609538 .14892578 .546875 .14892578 .5341797 .14892578 .5214844 .14973958 .5078125 .15136719 .49316407 .1529948 .47851563 .15649414 .46492515 .16186524 .45239259 .16723633 .43986003 .17496746 .42952476 .1850586 .42138673 .19514974 .4132487 .2084961 .4091797 .22509766 .4091797 .24202474 .4091797 .25553385 .4136556 .265625 .42260743 .27571617 .43155924 .28344728 .44262696 .28881837 .45581056 .29418946 .46899415 .2976888 .48331706 .2993164 .4987793 .300944 .5142415 .3017578 .5283203 .3017578 .5410156Z"/>
<path id="font_2_19" d="M-.0014648438 0 .2734375 .7158203H.37548829L.66845706 0H.5605469L.47705079 .21582031H.17773438L.099121097 0H-.0014648438M.20507813 .2939453H.4477539L.37304688 .4921875C.3502604 .5524089 .33333335 .601888 .32226563 .640625 .31315104 .59472659 .30029298 .5491536 .2836914 .50390627L.20507813 .2939453Z"/>
<path id="font_2_20" d="M.40576173 0V.076171878C.36539714 .017578125 .31054688-.01171875 .24121094-.01171875 .21061199-.01171875 .18204753-.005859375 .15551758 .005859375 .12898763 .017578125 .10929362 .03230794 .09643555 .050048829 .08357748 .06778971 .07454427 .08951823 .06933594 .115234378 .06575521 .13248699 .063964847 .15983074 .063964847 .19726563V.5185547H.15185547V.23095703C.15185547 .1850586 .15364583 .15413411 .15722656 .1381836 .16276042 .11507162 .17447917 .09692383 .19238281 .083740238 .21028646 .07055664 .23242188 .063964847 .25878907 .063964847 .28515626 .063964847 .30989585 .0707194 .3330078 .084228519 .35611979 .09773763 .3724772 .116129558 .38208009 .1394043 .39168296 .16267903 .39648438 .19645183 .39648438 .24072266V.5185547H.484375V0H.40576173Z"/>
<path id="font_2_21" d="M.063964847 0V.7158203H.15185547V0H.063964847Z"/>
<clipPath id="clip_4">
<path d="M20.398 25.441H349.92103V228.961H20.398Z"/>
</clipPath>
<clipPath id="clip_5">
<path d="M418.32 14H438V20H418.32Z"/>
</clipPath>
<clipPath id="clip_6">
<path d="M438.961 25.441H768.23806V228.961H438.961Z"/>
</clipPath>
</defs>
<g>
<use data-text="G" xlink:href="#font_1_1" transform="matrix(9.35,0,0,-9.35,166.2346,7.505737)"/>
<use data-text="o" xlink:href="#font_1_2" transform="matrix(9.35,0,0,-9.35,171.36775,7.505737)"/>
<use data-text="o" xlink:href="#font_1_2" transform="matrix(9.35,0,0,-9.35,176.5009,7.505737)"/>
<use data-text="d" xlink:href="#font_1_3" transform="matrix(9.35,0,0,-9.35,181.63405,7.505737)"/>
<use data-text="P" xlink:href="#font_1_4" transform="matrix(9.35,0,0,-9.35,191.9097,7.505737)"/>
<use data-text="r" xlink:href="#font_1_5" transform="matrix(9.35,0,0,-9.35,197.04285,7.505737)"/>
<use data-text="e" xlink:href="#font_1_6" transform="matrix(9.35,0,0,-9.35,202.176,7.505737)"/>
<use data-text="d" xlink:href="#font_1_3" transform="matrix(9.35,0,0,-9.35,207.30915,7.505737)"/>
<use data-text="i" xlink:href="#font_1_7" transform="matrix(9.35,0,0,-9.35,212.44229,7.505737)"/>
<use data-text="c" xlink:href="#font_1_8" transform="matrix(9.35,0,0,-9.35,217.57544,7.505737)"/>
<use data-text="t" xlink:href="#font_1_9" transform="matrix(9.35,0,0,-9.35,222.70859,7.505737)"/>
<use data-text="i" xlink:href="#font_1_7" transform="matrix(9.35,0,0,-9.35,227.84174,7.505737)"/>
<use data-text="o" xlink:href="#font_1_2" transform="matrix(9.35,0,0,-9.35,232.97489,7.505737)"/>
<use data-text="n" xlink:href="#font_1_10" transform="matrix(9.35,0,0,-9.35,238.10803,7.505737)"/>
<use data-text="s" xlink:href="#font_1_11" transform="matrix(9.35,0,0,-9.35,243.24118,7.505737)"/>
<use data-text="B" xlink:href="#font_1_12" transform="matrix(9.35,0,0,-9.35,587.269,7.505737)"/>
<use data-text="a" xlink:href="#font_1_13" transform="matrix(9.35,0,0,-9.35,592.40219,7.505737)"/>
<use data-text="d" xlink:href="#font_1_3" transform="matrix(9.35,0,0,-9.35,597.53536,7.505737)"/>
<use data-text="P" xlink:href="#font_1_4" transform="matrix(9.35,0,0,-9.35,607.81106,7.505737)"/>
<use data-text="r" xlink:href="#font_1_5" transform="matrix(9.35,0,0,-9.35,612.9442,7.505737)"/>
<use data-text="e" xlink:href="#font_1_6" transform="matrix(9.35,0,0,-9.35,618.0774,7.505737)"/>
<use data-text="d" xlink:href="#font_1_3" transform="matrix(9.35,0,0,-9.35,623.2106,7.505737)"/>
<use data-text="i" xlink:href="#font_1_7" transform="matrix(9.35,0,0,-9.35,628.34378,7.505737)"/>
<use data-text="c" xlink:href="#font_1_8" transform="matrix(9.35,0,0,-9.35,633.4769,7.505737)"/>
<use data-text="t" xlink:href="#font_1_9" transform="matrix(9.35,0,0,-9.35,638.6101,7.505737)"/>
<use data-text="i" xlink:href="#font_1_7" transform="matrix(9.35,0,0,-9.35,643.7433,7.505737)"/>
<use data-text="o" xlink:href="#font_1_2" transform="matrix(9.35,0,0,-9.35,648.87649,7.505737)"/>
<use data-text="n" xlink:href="#font_1_10" transform="matrix(9.35,0,0,-9.35,654.00967,7.505737)"/>
<use data-text="s" xlink:href="#font_1_11" transform="matrix(9.35,0,0,-9.35,659.1428,7.505737)"/>
<path d="M39.59 219.07C39.59 219.738 39.324 220.379 38.852 220.852 38.379 221.324 37.738 221.59 37.07 221.59 36.402 221.59 35.762 221.324 35.289 220.852 34.816 220.379 34.551 219.738 34.551 219.07 34.551 218.402 34.816 217.762 35.289 217.289 35.762 216.816 36.402 216.551 37.07 216.551 37.738 216.551 38.379 216.816 38.852 217.289 39.324 217.762 39.59 218.402 39.59 219.07ZM39.59 219.07" fill="#5e81b5" fill-rule="evenodd"/>
<path d="M56.047 198.879C56.047 199.547 55.781 200.188 55.309 200.66 54.836 201.133 54.195 201.398 53.527 201.398 52.859 201.398 52.215 201.133 51.746 200.66 51.273 200.188 51.008 199.547 51.008 198.879 51.008 198.207 51.273 197.566 51.746 197.094 52.215 196.621 52.859 196.355 53.527 196.355 54.195 196.355 54.836 196.621 55.309 197.094 55.781 197.566 56.047 198.207 56.047 198.879ZM56.047 198.879" fill="#5e81b5" fill-rule="evenodd"/>
<path d="M72.504 190.738C72.504 191.41 72.238 192.051 71.766 192.523 71.293 192.996 70.652 193.262 69.98 193.262 69.313 193.262 68.672 192.996 68.199 192.523 67.727 192.051 67.461 191.41 67.461 190.738 67.461 190.07 67.727 189.43 68.199 188.957 68.672 188.484 69.313 188.219 69.98 188.219 70.652 188.219 71.293 188.484 71.766 188.957 72.238 189.43 72.504 190.07 72.504 190.738ZM72.504 190.738" fill="#5e81b5" fill-rule="evenodd"/>
<path d="M88.957 196.965C88.957 197.633 88.691 198.273 88.219 198.746 87.746 199.219 87.105 199.484 86.438 199.484 85.77 199.484 85.129 199.219 84.656 198.746 84.184 198.273 83.918 197.633 83.918 196.965 83.918 196.297 84.184 195.652 84.656 195.18 85.129 194.711 85.77 194.445 86.438 194.445 87.105 194.445 87.746 194.711 88.219 195.18 88.691 195.652 88.957 196.297 88.957 196.965ZM88.957 196.965" fill="#5e81b5" fill-rule="evenodd"/>
<path d="M105.414 186.863C105.414 187.531 105.148 188.172 104.676 188.645 104.203 189.117 103.563 189.383 102.895 189.383 102.227 189.383 101.586 189.117 101.113 188.645 100.641 188.172 100.375 187.531 100.375 186.863 100.375 186.195 100.641 185.555 101.113 185.082 101.586 184.609 102.227 184.344 102.895 184.344 103.563 184.344 104.203 184.609 104.676 185.082 105.148 185.555 105.414 186.195 105.414 186.863ZM105.414 186.863" fill="#5e81b5" fill-rule="evenodd"/>
<path d="M121.871 161.723C121.871 162.395 121.605 163.035 121.133 163.508 120.66 163.98 120.02 164.246 119.352 164.246 118.684 164.246 118.043 163.98 117.57 163.508 117.098 163.035 116.832 162.395 116.832 161.723 116.832 161.055 117.098 160.414 117.57 159.941 118.043 159.469 118.684 159.203 119.352 159.203 120.02 159.203 120.66 159.469 121.133 159.941 121.605 160.414 121.871 161.055 121.871 161.723ZM121.871 161.723" fill="#5e81b5" fill-rule="evenodd"/>
<path d="M138.328 148.27C138.328 148.941 138.063 149.582 137.59 150.055 137.117 150.527 136.477 150.793 135.805 150.793 135.137 150.793 134.496 150.527 134.023 150.055 133.551 149.582 133.285 148.941 133.285 148.27 133.285 147.602 133.551 146.961 134.023 146.488 134.496 146.016 135.137 145.75 135.805 145.75 136.477 145.75 137.117 146.016 137.59 146.488 138.063 146.961 138.328 147.602 138.328 148.27ZM138.328 148.27" fill="#5e81b5" fill-rule="evenodd"/>
<path d="M154.781 149.461C154.781 150.129 154.516 150.77 154.043 151.242 153.57 151.715 152.93 151.98 152.262 151.98 151.594 151.98 150.953 151.715 150.48 151.242 150.008 150.77 149.742 150.129 149.742 149.461 149.742 148.793 150.008 148.152 150.48 147.68 150.953 147.207 151.594 146.941 152.262 146.941 152.93 146.941 153.57 147.207 154.043 147.68 154.516 148.152 154.781 148.793 154.781 149.461ZM154.781 149.461" fill="#5e81b5" fill-rule="evenodd"/>
<path d="M171.238 145.422C171.238 146.09 170.973 146.73 170.5 147.203 170.027 147.676 169.387 147.941 168.719 147.941 168.051 147.941 167.41 147.676 166.938 147.203 166.465 146.73 166.199 146.09 166.199 145.422 166.199 144.754 166.465 144.113 166.938 143.641 167.41 143.168 168.051 142.902 168.719 142.902 169.387 142.902 170.027 143.168 170.5 143.641 170.973 144.113 171.238 144.754 171.238 145.422ZM171.238 145.422" fill="#5e81b5" fill-rule="evenodd"/>
<path d="M187.695 127.883C187.695 128.551 187.43 129.191 186.957 129.664 186.484 130.137 185.844 130.402 185.176 130.402 184.508 130.402 183.867 130.137 183.395 129.664 182.922 129.191 182.656 128.551 182.656 127.883 182.656 127.215 182.922 126.574 183.395 126.102 183.867 125.629 184.508 125.363 185.176 125.363 185.844 125.363 186.484 125.629 186.957 126.102 187.43 126.574 187.695 127.215 187.695 127.883ZM187.695 127.883" fill="#5e81b5" fill-rule="evenodd"/>
<path d="M204.152 117.258C204.152 117.926 203.887 118.566 203.414 119.039 202.941 119.512 202.301 119.777 201.633 119.777 200.961 119.777 200.32 119.512 199.848 119.039 199.375 118.566 199.109 117.926 199.109 117.258 199.109 116.59 199.375 115.949 199.848 115.477 200.32 115.004 200.961 114.738 201.633 114.738 202.301 114.738 202.941 115.004 203.414 115.477 203.887 115.949 204.152 116.59 204.152 117.258ZM204.152 117.258" fill="#5e81b5" fill-rule="evenodd"/>
<path d="M220.605 115.316C220.605 115.984 220.34 116.625 219.867 117.098 219.395 117.57 218.754 117.836 218.086 117.836 217.418 117.836 216.777 117.57 216.305 117.098 215.832 116.625 215.566 115.984 215.566 115.316 215.566 114.648 215.832 114.008 216.305 113.535 216.777 113.063 217.418 112.797 218.086 112.797 218.754 112.797 219.395 113.063 219.867 113.535 220.34 114.008 220.605 114.648 220.605 115.316ZM220.605 115.316" fill="#5e81b5" fill-rule="evenodd"/>
<path d="M237.063 93.754C237.063 94.422 236.797 95.063 236.324 95.535 235.852 96.008 235.211 96.273 234.543 96.273 233.875 96.273 233.234 96.008 232.762 95.535 232.289 95.063 232.023 94.422 232.023 93.754 232.023 93.086 232.289 92.445 232.762 91.973 233.234 91.5 233.875 91.234 234.543 91.234 235.211 91.234 235.852 91.5 236.324 91.973 236.797 92.445 237.063 93.086 237.063 93.754ZM237.063 93.754" fill="#5e81b5" fill-rule="evenodd"/>
<path d="M253.52 81.875C253.52 82.543 253.254 83.184 252.781 83.656 252.309 84.129 251.668 84.395 251 84.395 250.332 84.395 249.691 84.129 249.219 83.656 248.746 83.184 248.48 82.543 248.48 81.875 248.48 81.207 248.746 80.563 249.219 80.09 249.691 79.617 250.332 79.352 251 79.352 251.668 79.352 252.309 79.617 252.781 80.09 253.254 80.563 253.52 81.207 253.52 81.875ZM253.52 81.875" fill="#5e81b5" fill-rule="evenodd"/>
<path d="M269.977 82.09C269.977 82.758 269.711 83.398 269.238 83.871 268.766 84.344 268.125 84.609 267.457 84.609 266.785 84.609 266.145 84.344 265.672 83.871 265.199 83.398 264.934 82.758 264.934 82.09 264.934 81.422 265.199 80.781 265.672 80.309 266.145 79.836 266.785 79.57 267.457 79.57 268.125 79.57 268.766 79.836 269.238 80.309 269.711 80.781 269.977 81.422 269.977 82.09ZM269.977 82.09" fill="#5e81b5" fill-rule="evenodd"/>
<path d="M286.43 75.199C286.43 75.867 286.164 76.508 285.691 76.98 285.223 77.453 284.578 77.719 283.91 77.719 283.242 77.719 282.602 77.453 282.129 76.98 281.656 76.508 281.391 75.867 281.391 75.199 281.391 74.531 281.656 73.891 282.129 73.418 282.602 72.945 283.242 72.68 283.91 72.68 284.578 72.68 285.223 72.945 285.691 73.418 286.164 73.891 286.43 74.531 286.43 75.199ZM286.43 75.199" fill="#5e81b5" fill-rule="evenodd"/>
<path d="M302.887 49.59C302.887 50.258 302.621 50.898 302.148 51.371 301.676 51.844 301.035 52.109 300.367 52.109 299.699 52.109 299.059 51.844 298.586 51.371 298.113 50.898 297.848 50.258 297.848 49.59 297.848 48.922 298.113 48.281 298.586 47.809 299.059 47.336 299.699 47.07 300.367 47.07 301.035 47.07 301.676 47.336 302.148 47.809 302.621 48.281 302.887 48.922 302.887 49.59ZM302.887 49.59" fill="#5e81b5" fill-rule="evenodd"/>
<path d="M319.344 40.836C319.344 41.504 319.078 42.145 318.605 42.617 318.133 43.09 317.492 43.355 316.824 43.355 316.156 43.355 315.516 43.09 315.043 42.617 314.57 42.145 314.305 41.504 314.305 40.836 314.305 40.168 314.57 39.527 315.043 39.055 315.516 38.582 316.156 38.316 316.824 38.316 317.492 38.316 318.133 38.582 318.605 39.055 319.078 39.527 319.344 40.168 319.344 40.836ZM319.344 40.836" fill="#5e81b5" fill-rule="evenodd"/>
<path d="M335.801 32.645C335.801 33.313 335.535 33.953 335.063 34.426 334.59 34.898 333.949 35.164 333.281 35.164 332.613 35.164 331.969 34.898 331.496 34.426 331.023 33.953 330.758 33.313 330.758 32.645 330.758 31.977 331.023 31.336 331.496 30.863 331.969 30.391 332.613 30.125 333.281 30.125 333.949 30.125 334.59 30.391 335.063 30.863 335.535 31.336 335.801 31.977 335.801 32.645ZM335.801 32.645" fill="#5e81b5" fill-rule="evenodd"/>
<path stroke-width=".36" stroke-linecap="butt" stroke-miterlimit="3.25" stroke-linejoin="miter" fill="none" stroke="#000000" d="M20.613 228.922V225.039"/>
<use data-text="0" xlink:href="#font_2_1" transform="matrix(7.2,0,0,-7.2,18.61172,237.5992)"/>
<path stroke-width=".36" stroke-linecap="butt" stroke-miterlimit="3.25" stroke-linejoin="miter" fill="none" stroke="#000000" d="M37.07 228.922V226.594"/>
<path stroke-width=".36" stroke-linecap="butt" stroke-miterlimit="3.25" stroke-linejoin="miter" fill="none" stroke="#000000" d="M53.527 228.922V226.594"/>
<path stroke-width=".36" stroke-linecap="butt" stroke-miterlimit="3.25" stroke-linejoin="miter" fill="none" stroke="#000000" d="M69.98 228.922V226.594"/>
<path stroke-width=".36" stroke-linecap="butt" stroke-miterlimit="3.25" stroke-linejoin="miter" fill="none" stroke="#000000" d="M86.438 228.922V225.039"/>
<use data-text="2" xlink:href="#font_2_2" transform="matrix(7.2,0,0,-7.2,82.43395,237.5992)"/>
<use data-text="0" xlink:href="#font_2_1" transform="matrix(7.2,0,0,-7.2,86.43715,237.5992)"/>
<path stroke-width=".36" stroke-linecap="butt" stroke-miterlimit="3.25" stroke-linejoin="miter" fill="none" stroke="#000000" d="M102.895 228.922V226.594"/>
<path stroke-width=".36" stroke-linecap="butt" stroke-miterlimit="3.25" stroke-linejoin="miter" fill="none" stroke="#000000" d="M119.352 228.922V226.594"/>
<path stroke-width=".36" stroke-linecap="butt" stroke-miterlimit="3.25" stroke-linejoin="miter" fill="none" stroke="#000000" d="M135.805 228.922V226.594"/>
<path stroke-width=".36" stroke-linecap="butt" stroke-miterlimit="3.25" stroke-linejoin="miter" fill="none" stroke="#000000" d="M152.262 228.922V225.039"/>
<use data-text="4" xlink:href="#font_2_3" transform="matrix(7.2,0,0,-7.2,148.25833,237.5992)"/>
<use data-text="0" xlink:href="#font_2_1" transform="matrix(7.2,0,0,-7.2,152.26154,237.5992)"/>
<path stroke-width=".36" stroke-linecap="butt" stroke-miterlimit="3.25" stroke-linejoin="miter" fill="none" stroke="#000000" d="M168.719 228.922V226.594"/>
<path stroke-width=".36" stroke-linecap="butt" stroke-miterlimit="3.25" stroke-linejoin="miter" fill="none" stroke="#000000" d="M185.176 228.922V226.594"/>
<path stroke-width=".36" stroke-linecap="butt" stroke-miterlimit="3.25" stroke-linejoin="miter" fill="none" stroke="#000000" d="M201.633 228.922V226.594"/>
<path stroke-width=".36" stroke-linecap="butt" stroke-miterlimit="3.25" stroke-linejoin="miter" fill="none" stroke="#000000" d="M218.086 228.922V225.039"/>
<use data-text="6" xlink:href="#font_2_4" transform="matrix(7.2,0,0,-7.2,214.08272,237.5992)"/>
<use data-text="0" xlink:href="#font_2_1" transform="matrix(7.2,0,0,-7.2,218.08592,237.5992)"/>
<path stroke-width=".36" stroke-linecap="butt" stroke-miterlimit="3.25" stroke-linejoin="miter" fill="none" stroke="#000000" d="M234.543 228.922V226.594"/>
<path stroke-width=".36" stroke-linecap="butt" stroke-miterlimit="3.25" stroke-linejoin="miter" fill="none" stroke="#000000" d="M251 228.922V226.594"/>
<path stroke-width=".36" stroke-linecap="butt" stroke-miterlimit="3.25" stroke-linejoin="miter" fill="none" stroke="#000000" d="M267.457 228.922V226.594"/>
<path stroke-width=".36" stroke-linecap="butt" stroke-miterlimit="3.25" stroke-linejoin="miter" fill="none" stroke="#000000" d="M283.91 228.922V225.039"/>
<use data-text="8" xlink:href="#font_2_5" transform="matrix(7.2,0,0,-7.2,279.9071,237.5992)"/>
<use data-text="0" xlink:href="#font_2_1" transform="matrix(7.2,0,0,-7.2,283.9103,237.5992)"/>
<path stroke-width=".36" stroke-linecap="butt" stroke-miterlimit="3.25" stroke-linejoin="miter" fill="none" stroke="#000000" d="M300.367 228.922V226.594"/>
<path stroke-width=".36" stroke-linecap="butt" stroke-miterlimit="3.25" stroke-linejoin="miter" fill="none" stroke="#000000" d="M316.824 228.922V226.594"/>
<path stroke-width=".36" stroke-linecap="butt" stroke-miterlimit="3.25" stroke-linejoin="miter" fill="none" stroke="#000000" d="M333.281 228.922V226.594"/>
<path stroke-width=".36" stroke-linecap="butt" stroke-miterlimit="3.25" stroke-linejoin="miter" fill="none" stroke="#000000" d="M349.734 228.922V225.039"/>
<use data-text="1" xlink:href="#font_2_6" transform="matrix(7.2,0,0,-7.2,343.72935,237.5992)"/>
<use data-text="0" xlink:href="#font_2_1" transform="matrix(7.2,0,0,-7.2,347.73255,237.5992)"/>
<use data-text="0" xlink:href="#font_2_1" transform="matrix(7.2,0,0,-7.2,351.73576,237.5992)"/>
<path stroke-width=".36" stroke-linecap="butt" stroke-miterlimit="3.25" stroke-linejoin="miter" fill="none" stroke="#000000" d="M20.613 228.922H349.734"/>
<use data-text="F" xlink:href="#font_2_7" transform="matrix(7.2,0,0,-7.2,355.4958,231.41733)"/>
<use data-text="o" xlink:href="#font_2_8" transform="matrix(7.2,0,0,-7.2,359.8878,231.41733)"/>
<use data-text="r" xlink:href="#font_2_9" transform="matrix(7.2,0,0,-7.2,363.891,231.41733)"/>
<use data-text="e" xlink:href="#font_2_10" transform="matrix(7.2,0,0,-7.2,366.2886,231.41733)"/>
<use data-text="c" xlink:href="#font_2_11" transform="matrix(7.2,0,0,-7.2,370.2918,231.41733)"/>
<use data-text="a" xlink:href="#font_2_12" transform="matrix(7.2,0,0,-7.2,373.8918,231.41733)"/>
<use data-text="s" xlink:href="#font_2_13" transform="matrix(7.2,0,0,-7.2,377.89503,231.41733)"/>
<use data-text="t" xlink:href="#font_2_14" transform="matrix(7.2,0,0,-7.2,381.49504,231.41733)"/>
<use data-text="e" xlink:href="#font_2_10" transform="matrix(7.2,0,0,-7.2,383.48945,231.41733)"/>
<use data-text="d" xlink:href="#font_2_15" transform="matrix(7.2,0,0,-7.2,387.49266,231.41733)"/>
<use data-text="w" xlink:href="#font_2_16" transform="matrix(7.2,0,0,-7.2,393.49745,231.41733)"/>
<use data-text="i" xlink:href="#font_2_17" transform="matrix(7.2,0,0,-7.2,398.69584,231.41733)"/>
<use data-text="n" xlink:href="#font_2_18" transform="matrix(7.2,0,0,-7.2,400.29423,231.41733)"/>
<use data-text="%" xlink:href="#font_3_1" transform="matrix(7.2,0,0,-7.2,406.299,231.41733)"/>
<path stroke-width=".36" stroke-linecap="butt" stroke-miterlimit="3.25" stroke-linejoin="miter" fill="none" stroke="#000000" d="M20.613 228.922H24.496"/>
<use data-text="0" xlink:href="#font_2_1" transform="matrix(7.2,0,0,-7.2,14.44957,231.41733)"/>
<path stroke-width=".36" stroke-linecap="butt" stroke-miterlimit="3.25" stroke-linejoin="miter" fill="none" stroke="#000000" d="M20.613 218.75H22.941"/>
<path stroke-width=".36" stroke-linecap="butt" stroke-miterlimit="3.25" stroke-linejoin="miter" fill="none" stroke="#000000" d="M20.613 208.582H22.941"/>
<path stroke-width=".36" stroke-linecap="butt" stroke-miterlimit="3.25" stroke-linejoin="miter" fill="none" stroke="#000000" d="M20.613 198.41H22.941"/>
<path stroke-width=".36" stroke-linecap="butt" stroke-miterlimit="3.25" stroke-linejoin="miter" fill="none" stroke="#000000" d="M20.613 188.238H24.496"/>
<use data-text="2" xlink:href="#font_2_2" transform="matrix(7.2,0,0,-7.2,10.445273,190.73563)"/>
<use data-text="0" xlink:href="#font_2_1" transform="matrix(7.2,0,0,-7.2,14.448473,190.73563)"/>
<path stroke-width=".36" stroke-linecap="butt" stroke-miterlimit="3.25" stroke-linejoin="miter" fill="none" stroke="#000000" d="M20.613 178.07H22.941"/>
<path stroke-width=".36" stroke-linecap="butt" stroke-miterlimit="3.25" stroke-linejoin="miter" fill="none" stroke="#000000" d="M20.613 167.898H22.941"/>
<path stroke-width=".36" stroke-linecap="butt" stroke-miterlimit="3.25" stroke-linejoin="miter" fill="none" stroke="#000000" d="M20.613 157.727H22.941"/>
<path stroke-width=".36" stroke-linecap="butt" stroke-miterlimit="3.25" stroke-linejoin="miter" fill="none" stroke="#000000" d="M20.613 147.559H24.496"/>
<use data-text="4" xlink:href="#font_2_3" transform="matrix(7.2,0,0,-7.2,10.445273,150.05393)"/>
<use data-text="0" xlink:href="#font_2_1" transform="matrix(7.2,0,0,-7.2,14.448473,150.05393)"/>
<path stroke-width=".36" stroke-linecap="butt" stroke-miterlimit="3.25" stroke-linejoin="miter" fill="none" stroke="#000000" d="M20.613 137.387H22.941"/>
<path stroke-width=".36" stroke-linecap="butt" stroke-miterlimit="3.25" stroke-linejoin="miter" fill="none" stroke="#000000" d="M20.613 127.219H22.941"/>
<path stroke-width=".36" stroke-linecap="butt" stroke-miterlimit="3.25" stroke-linejoin="miter" fill="none" stroke="#000000" d="M20.613 117.047H22.941"/>
<path stroke-width=".36" stroke-linecap="butt" stroke-miterlimit="3.25" stroke-linejoin="miter" fill="none" stroke="#000000" d="M20.613 106.875H24.496"/>
<use data-text="6" xlink:href="#font_2_4" transform="matrix(7.2,0,0,-7.2,10.445273,109.37221)"/>
<use data-text="0" xlink:href="#font_2_1" transform="matrix(7.2,0,0,-7.2,14.448473,109.37221)"/>
<path stroke-width=".36" stroke-linecap="butt" stroke-miterlimit="3.25" stroke-linejoin="miter" fill="none" stroke="#000000" d="M20.613 96.707H22.941"/>
<path stroke-width=".36" stroke-linecap="butt" stroke-miterlimit="3.25" stroke-linejoin="miter" fill="none" stroke="#000000" d="M20.613 86.535H22.941"/>
<path stroke-width=".36" stroke-linecap="butt" stroke-miterlimit="3.25" stroke-linejoin="miter" fill="none" stroke="#000000" d="M20.613 76.363H22.941"/>
<path stroke-width=".36" stroke-linecap="butt" stroke-miterlimit="3.25" stroke-linejoin="miter" fill="none" stroke="#000000" d="M20.613 66.195H24.496"/>
<use data-text="8" xlink:href="#font_2_5" transform="matrix(7.2,0,0,-7.2,10.445273,68.690509)"/>
<use data-text="0" xlink:href="#font_2_1" transform="matrix(7.2,0,0,-7.2,14.448473,68.690509)"/>
<path stroke-width=".36" stroke-linecap="butt" stroke-miterlimit="3.25" stroke-linejoin="miter" fill="none" stroke="#000000" d="M20.613 56.023H22.941"/>
<path stroke-width=".36" stroke-linecap="butt" stroke-miterlimit="3.25" stroke-linejoin="miter" fill="none" stroke="#000000" d="M20.613 45.855H22.941"/>
<path stroke-width=".36" stroke-linecap="butt" stroke-miterlimit="3.25" stroke-linejoin="miter" fill="none" stroke="#000000" d="M20.613 35.684H22.941"/>
<path stroke-width=".36" stroke-linecap="butt" stroke-miterlimit="3.25" stroke-linejoin="miter" fill="none" stroke="#000000" d="M20.613 25.512H24.496"/>
<use data-text="1" xlink:href="#font_2_6" transform="matrix(7.2,0,0,-7.2,6.440977,28.0088)"/>
<use data-text="0" xlink:href="#font_2_1" transform="matrix(7.2,0,0,-7.2,10.444178,28.0088)"/>
<use data-text="0" xlink:href="#font_2_1" transform="matrix(7.2,0,0,-7.2,14.447378,28.0088)"/>
<path stroke-width=".36" stroke-linecap="butt" stroke-miterlimit="3.25" stroke-linejoin="miter" fill="none" stroke="#000000" d="M20.613 228.922V25.512"/>
<use data-text="A" xlink:href="#font_2_19" transform="matrix(7.2,0,0,-7.2,.0105469,19.666926)"/>
<use data-text="c" xlink:href="#font_2_11" transform="matrix(7.2,0,0,-7.2,4.8057467,19.666926)"/>
<use data-text="t" xlink:href="#font_2_14" transform="matrix(7.2,0,0,-7.2,8.405746,19.666926)"/>
<use data-text="u" xlink:href="#font_2_20" transform="matrix(7.2,0,0,-7.2,10.4001469,19.666926)"/>
<use data-text="a" xlink:href="#font_2_12" transform="matrix(7.2,0,0,-7.2,14.403347,19.666926)"/>
<use data-text="l" xlink:href="#font_2_21" transform="matrix(7.2,0,0,-7.2,18.406548,19.666926)"/>
<use data-text="w" xlink:href="#font_2_16" transform="matrix(7.2,0,0,-7.2,22.006548,19.666926)"/>
<use data-text="i" xlink:href="#font_2_17" transform="matrix(7.2,0,0,-7.2,27.204949,19.666926)"/>
<use data-text="n" xlink:href="#font_2_18" transform="matrix(7.2,0,0,-7.2,28.803349,19.666926)"/>
<use data-text="%" xlink:href="#font_3_1" transform="matrix(7.2,0,0,-7.2,34.808149,19.666926)"/>
<g clip-path="url(#clip_4)">
<path stroke-width=".36" stroke-linecap="butt" stroke-dasharray="2.88,2.88" stroke-miterlimit="3.25" stroke-linejoin="miter" fill="none" stroke="#000000" d="M20.613 228.922 349.734 25.512"/>
</g>
<path d="M458.055 44.648C458.055 45.316 457.789 45.957 457.316 46.43 456.844 46.902 456.203 47.168 455.535 47.168 454.867 47.168 454.227 46.902 453.754 46.43 453.281 45.957 453.016 45.316 453.016 44.648 453.016 43.977 453.281 43.336 453.754 42.863 454.227 42.391 454.867 42.125 455.535 42.125 456.203 42.125 456.844 42.391 457.316 42.863 457.789 43.336 458.055 43.977 458.055 44.648ZM458.055 44.648" fill="#5e81b5" fill-rule="evenodd"/>
<path d="M474.512 47.77C474.512 48.438 474.246 49.078 473.773 49.551 473.301 50.023 472.66 50.289 471.988 50.289 471.32 50.289 470.68 50.023 470.207 49.551 469.734 49.078 469.469 48.438 469.469 47.77 469.469 47.102 469.734 46.461 470.207 45.988 470.68 45.516 471.32 45.25 471.988 45.25 472.66 45.25 473.301 45.516 473.773 45.988 474.246 46.461 474.512 47.102 474.512 47.77ZM474.512 47.77" fill="#5e81b5" fill-rule="evenodd"/>
<path d="M490.965 51.363C490.965 52.031 490.699 52.672 490.227 53.145 489.754 53.617 489.113 53.883 488.445 53.883 487.777 53.883 487.137 53.617 486.664 53.145 486.191 52.672 485.926 52.031 485.926 51.363 485.926 50.695 486.191 50.051 486.664 49.578 487.137 49.109 487.777 48.844 488.445 48.844 489.113 48.844 489.754 49.109 490.227 49.578 490.699 50.051 490.965 50.695 490.965 51.363ZM490.965 51.363" fill="#5e81b5" fill-rule="evenodd"/>
<path d="M507.422 60.98C507.422 61.648 507.156 62.289 506.684 62.762 506.211 63.234 505.57 63.5 504.902 63.5 504.234 63.5 503.594 63.234 503.121 62.762 502.648 62.289 502.383 61.648 502.383 60.98 502.383 60.313 502.648 59.672 503.121 59.199 503.594 58.727 504.234 58.461 504.902 58.461 505.57 58.461 506.211 58.727 506.684 59.199 507.156 59.672 507.422 60.313 507.422 60.98ZM507.422 60.98" fill="#5e81b5" fill-rule="evenodd"/>
<path d="M523.879 83.797C523.879 84.465 523.613 85.105 523.141 85.578 522.668 86.051 522.027 86.316 521.359 86.316 520.691 86.316 520.051 86.051 519.578 85.578 519.105 85.105 518.84 84.465 518.84 83.797 518.84 83.129 519.105 82.488 519.578 82.016 520.051 81.543 520.691 81.277 521.359 81.277 522.027 81.277 522.668 81.543 523.141 82.016 523.613 82.488 523.879 83.129 523.879 83.797ZM523.879 83.797" fill="#5e81b5" fill-rule="evenodd"/>
<path d="M540.336 83.691C540.336 84.359 540.07 85 539.598 85.473 539.125 85.945 538.484 86.211 537.813 86.211 537.145 86.211 536.504 85.945 536.031 85.473 535.559 85 535.293 84.359 535.293 83.691 535.293 83.02 535.559 82.379 536.031 81.906 536.504 81.434 537.145 81.168 537.813 81.168 538.484 81.168 539.125 81.434 539.598 81.906 540.07 82.379 540.336 83.02 540.336 83.691ZM540.336 83.691" fill="#5e81b5" fill-rule="evenodd"/>
<path d="M556.789 99.598C556.789 100.266 556.523 100.906 556.051 101.379 555.578 101.852 554.938 102.117 554.27 102.117 553.602 102.117 552.961 101.852 552.488 101.379 552.016 100.906 551.75 100.266 551.75 99.598 551.75 98.93 552.016 98.289 552.488 97.816 552.961 97.344 553.602 97.078 554.27 97.078 554.938 97.078 555.578 97.344 556.051 97.816 556.523 98.289 556.789 98.93 556.789 99.598ZM556.789 99.598" fill="#5e81b5" fill-rule="evenodd"/>
<path d="M573.246 103.141C573.246 103.809 572.98 104.449 572.508 104.922 572.035 105.395 571.395 105.66 570.727 105.66 570.059 105.66 569.418 105.395 568.945 104.922 568.473 104.449 568.207 103.809 568.207 103.141 568.207 102.473 568.473 101.832 568.945 101.359 569.418 100.887 570.059 100.621 570.727 100.621 571.395 100.621 572.035 100.887 572.508 101.359 572.98 101.832 573.246 102.473 573.246 103.141ZM573.246 103.141" fill="#5e81b5" fill-rule="evenodd"/>
<path d="M589.703 114.496C589.703 115.168 589.438 115.809 588.965 116.281 588.492 116.754 587.852 117.02 587.184 117.02 586.516 117.02 585.875 116.754 585.402 116.281 584.93 115.809 584.664 115.168 584.664 114.496 584.664 113.828 584.93 113.188 585.402 112.715 585.875 112.242 586.516 111.977 587.184 111.977 587.852 111.977 588.492 112.242 588.965 112.715 589.438 113.188 589.703 113.828 589.703 114.496ZM589.703 114.496" fill="#5e81b5" fill-rule="evenodd"/>
<path d="M606.16 130.59C606.16 131.258 605.895 131.902 605.422 132.371 604.949 132.844 604.309 133.109 603.641 133.109 602.969 133.109 602.328 132.844 601.855 132.371 601.383 131.902 601.117 131.258 601.117 130.59 601.117 129.922 601.383 129.281 601.855 128.809 602.328 128.336 602.969 128.07 603.641 128.07 604.309 128.07 604.949 128.336 605.422 128.809 605.895 129.281 606.16 129.922 606.16 130.59ZM606.16 130.59" fill="#5e81b5" fill-rule="evenodd"/>
<path d="M622.613 130.254C622.613 130.922 622.348 131.563 621.875 132.035 621.402 132.508 620.762 132.773 620.094 132.773 619.426 132.773 618.785 132.508 618.313 132.035 617.84 131.563 617.574 130.922 617.574 130.254 617.574 129.586 617.84 128.945 618.313 128.473 618.785 128 619.426 127.734 620.094 127.734 620.762 127.734 621.402 128 621.875 128.473 622.348 128.945 622.613 129.586 622.613 130.254ZM622.613 130.254" fill="#5e81b5" fill-rule="evenodd"/>
<path d="M639.07 156.664C639.07 157.332 638.805 157.973 638.332 158.445 637.859 158.918 637.219 159.184 636.551 159.184 635.883 159.184 635.242 158.918 634.77 158.445 634.297 157.973 634.031 157.332 634.031 156.664 634.031 155.996 634.297 155.355 634.77 154.883 635.242 154.41 635.883 154.145 636.551 154.145 637.219 154.145 637.859 154.41 638.332 154.883 638.805 155.355 639.07 155.996 639.07 156.664ZM639.07 156.664" fill="#5e81b5" fill-rule="evenodd"/>
<path d="M655.527 155.035C655.527 155.703 655.262 156.344 654.789 156.816 654.316 157.289 653.676 157.555 653.008 157.555 652.34 157.555 651.699 157.289 651.227 156.816 650.754 156.344 650.488 155.703 650.488 155.035 650.488 154.367 650.754 153.727 651.227 153.254 651.699 152.781 652.34 152.516 653.008 152.516 653.676 152.516 654.316 152.781 654.789 153.254 655.262 153.727 655.527 154.367 655.527 155.035ZM655.527 155.035" fill="#5e81b5" fill-rule="evenodd"/>
<path d="M671.984 171.023C671.984 171.691 671.719 172.332 671.246 172.805 670.773 173.277 670.133 173.543 669.465 173.543 668.793 173.543 668.152 173.277 667.68 172.805 667.207 172.332 666.941 171.691 666.941 171.023 666.941 170.355 667.207 169.711 667.68 169.238 668.152 168.77 668.793 168.504 669.465 168.504 670.133 168.504 670.773 168.77 671.246 169.238 671.719 169.711 671.984 170.355 671.984 171.023ZM671.984 171.023" fill="#5e81b5" fill-rule="evenodd"/>
<path d="M688.438 176.551C688.438 177.219 688.172 177.859 687.703 178.332 687.23 178.805 686.586 179.07 685.918 179.07 685.25 179.07 684.609 178.805 684.137 178.332 683.664 177.859 683.398 177.219 683.398 176.551 683.398 175.883 683.664 175.242 684.137 174.77 684.609 174.297 685.25 174.031 685.918 174.031 686.586 174.031 687.23 174.297 687.703 174.77 688.172 175.242 688.438 175.883 688.438 176.551ZM688.438 176.551" fill="#5e81b5" fill-rule="evenodd"/>
<path d="M704.895 196.762C704.895 197.43 704.629 198.07 704.156 198.543 703.684 199.016 703.043 199.281 702.375 199.281 701.707 199.281 701.066 199.016 700.594 198.543 700.121 198.07 699.855 197.43 699.855 196.762 699.855 196.094 700.121 195.453 700.594 194.98 701.066 194.508 701.707 194.242 702.375 194.242 703.043 194.242 703.684 194.508 704.156 194.98 704.629 195.453 704.895 196.094 704.895 196.762ZM704.895 196.762" fill="#5e81b5" fill-rule="evenodd"/>
<path d="M721.352 192.898C721.352 193.566 721.086 194.207 720.613 194.68 720.141 195.152 719.5 195.418 718.832 195.418 718.164 195.418 717.523 195.152 717.051 194.68 716.578 194.207 716.313 193.566 716.313 192.898 716.313 192.23 716.578 191.59 717.051 191.117 717.523 190.645 718.164 190.379 718.832 190.379 719.5 190.379 720.141 190.645 720.613 191.117 721.086 191.59 721.352 192.23 721.352 192.898ZM721.352 192.898" fill="#5e81b5" fill-rule="evenodd"/>
<path d="M737.809 210.273C737.809 210.941 737.543 211.582 737.07 212.055 736.598 212.527 735.957 212.793 735.289 212.793 734.621 212.793 733.977 212.527 733.504 212.055 733.031 211.582 732.77 210.941 732.77 210.273 732.77 209.602 733.031 208.961 733.504 208.488 733.977 208.016 734.621 207.75 735.289 207.75 735.957 207.75 736.598 208.016 737.07 208.488 737.543 208.961 737.809 209.602 737.809 210.273ZM737.809 210.273" fill="#5e81b5" fill-rule="evenodd"/>
<path d="M754.266 215.238C754.266 215.906 754 216.547 753.527 217.02 753.055 217.492 752.41 217.758 751.742 217.758 751.074 217.758 750.434 217.492 749.961 217.02 749.488 216.547 749.223 215.906 749.223 215.238 749.223 214.57 749.488 213.93 749.961 213.457 750.434 212.984 751.074 212.719 751.742 212.719 752.41 212.719 753.055 212.984 753.527 213.457 754 213.93 754.266 214.57 754.266 215.238ZM754.266 215.238" fill="#5e81b5" fill-rule="evenodd"/>
<path stroke-width=".36" stroke-linecap="butt" stroke-miterlimit="3.25" stroke-linejoin="miter" fill="none" stroke="#000000" d="M439.078 228.922V225.039"/>
<use data-text="0" xlink:href="#font_2_1" transform="matrix(7.2,0,0,-7.2,437.0757,237.5992)"/>
<path stroke-width=".36" stroke-linecap="butt" stroke-miterlimit="3.25" stroke-linejoin="miter" fill="none" stroke="#000000" d="M455.535 228.922V226.594"/>
<path stroke-width=".36" stroke-linecap="butt" stroke-miterlimit="3.25" stroke-linejoin="miter" fill="none" stroke="#000000" d="M471.988 228.922V226.594"/>
<path stroke-width=".36" stroke-linecap="butt" stroke-miterlimit="3.25" stroke-linejoin="miter" fill="none" stroke="#000000" d="M488.445 228.922V226.594"/>
<path stroke-width=".36" stroke-linecap="butt" stroke-miterlimit="3.25" stroke-linejoin="miter" fill="none" stroke="#000000" d="M504.902 228.922V225.039"/>
<use data-text="2" xlink:href="#font_2_2" transform="matrix(7.2,0,0,-7.2,500.89796,237.5992)"/>
<use data-text="0" xlink:href="#font_2_1" transform="matrix(7.2,0,0,-7.2,504.90116,237.5992)"/>
<path stroke-width=".36" stroke-linecap="butt" stroke-miterlimit="3.25" stroke-linejoin="miter" fill="none" stroke="#000000" d="M521.359 228.922V226.594"/>
<path stroke-width=".36" stroke-linecap="butt" stroke-miterlimit="3.25" stroke-linejoin="miter" fill="none" stroke="#000000" d="M537.813 228.922V226.594"/>
<path stroke-width=".36" stroke-linecap="butt" stroke-miterlimit="3.25" stroke-linejoin="miter" fill="none" stroke="#000000" d="M554.27 228.922V226.594"/>
<path stroke-width=".36" stroke-linecap="butt" stroke-miterlimit="3.25" stroke-linejoin="miter" fill="none" stroke="#000000" d="M570.727 228.922V225.039"/>
<use data-text="4" xlink:href="#font_2_3" transform="matrix(7.2,0,0,-7.2,566.72238,237.5992)"/>
<use data-text="0" xlink:href="#font_2_1" transform="matrix(7.2,0,0,-7.2,570.7255,237.5992)"/>
<path stroke-width=".36" stroke-linecap="butt" stroke-miterlimit="3.25" stroke-linejoin="miter" fill="none" stroke="#000000" d="M587.184 228.922V226.594"/>
<path stroke-width=".36" stroke-linecap="butt" stroke-miterlimit="3.25" stroke-linejoin="miter" fill="none" stroke="#000000" d="M603.641 228.922V226.594"/>
<path stroke-width=".36" stroke-linecap="butt" stroke-miterlimit="3.25" stroke-linejoin="miter" fill="none" stroke="#000000" d="M620.094 228.922V226.594"/>
<path stroke-width=".36" stroke-linecap="butt" stroke-miterlimit="3.25" stroke-linejoin="miter" fill="none" stroke="#000000" d="M636.551 228.922V225.039"/>
<use data-text="6" xlink:href="#font_2_4" transform="matrix(7.2,0,0,-7.2,632.5467,237.5992)"/>
<use data-text="0" xlink:href="#font_2_1" transform="matrix(7.2,0,0,-7.2,636.54989,237.5992)"/>
<path stroke-width=".36" stroke-linecap="butt" stroke-miterlimit="3.25" stroke-linejoin="miter" fill="none" stroke="#000000" d="M653.008 228.922V226.594"/>
<path stroke-width=".36" stroke-linecap="butt" stroke-miterlimit="3.25" stroke-linejoin="miter" fill="none" stroke="#000000" d="M669.465 228.922V226.594"/>
<path stroke-width=".36" stroke-linecap="butt" stroke-miterlimit="3.25" stroke-linejoin="miter" fill="none" stroke="#000000" d="M685.918 228.922V226.594"/>
<path stroke-width=".36" stroke-linecap="butt" stroke-miterlimit="3.25" stroke-linejoin="miter" fill="none" stroke="#000000" d="M702.375 228.922V225.039"/>
<use data-text="8" xlink:href="#font_2_5" transform="matrix(7.2,0,0,-7.2,698.3711,237.5992)"/>
<use data-text="0" xlink:href="#font_2_1" transform="matrix(7.2,0,0,-7.2,702.37429,237.5992)"/>
<path stroke-width=".36" stroke-linecap="butt" stroke-miterlimit="3.25" stroke-linejoin="miter" fill="none" stroke="#000000" d="M718.832 228.922V226.594"/>
<path stroke-width=".36" stroke-linecap="butt" stroke-miterlimit="3.25" stroke-linejoin="miter" fill="none" stroke="#000000" d="M735.289 228.922V226.594"/>
<path stroke-width=".36" stroke-linecap="butt" stroke-miterlimit="3.25" stroke-linejoin="miter" fill="none" stroke="#000000" d="M751.742 228.922V226.594"/>
<path stroke-width=".36" stroke-linecap="butt" stroke-miterlimit="3.25" stroke-linejoin="miter" fill="none" stroke="#000000" d="M768.199 228.922V225.039"/>
<use data-text="1" xlink:href="#font_2_6" transform="matrix(7.2,0,0,-7.2,762.19338,237.5992)"/>
<use data-text="0" xlink:href="#font_2_1" transform="matrix(7.2,0,0,-7.2,766.19656,237.5992)"/>
<use data-text="0" xlink:href="#font_2_1" transform="matrix(7.2,0,0,-7.2,770.1997,237.5992)"/>
<path stroke-width=".36" stroke-linecap="butt" stroke-miterlimit="3.25" stroke-linejoin="miter" fill="none" stroke="#000000" d="M439.078 228.922H768.199"/>
<use data-text="F" xlink:href="#font_2_7" transform="matrix(7.2,0,0,-7.2,773.9598,231.41733)"/>
<use data-text="o" xlink:href="#font_2_8" transform="matrix(7.2,0,0,-7.2,778.3518,231.41733)"/>
<use data-text="r" xlink:href="#font_2_9" transform="matrix(7.2,0,0,-7.2,782.355,231.41733)"/>
<use data-text="e" xlink:href="#font_2_10" transform="matrix(7.2,0,0,-7.2,784.75259,231.41733)"/>
<use data-text="c" xlink:href="#font_2_11" transform="matrix(7.2,0,0,-7.2,788.75576,231.41733)"/>
<use data-text="a" xlink:href="#font_2_12" transform="matrix(7.2,0,0,-7.2,792.3557,231.41733)"/>
<use data-text="s" xlink:href="#font_2_13" transform="matrix(7.2,0,0,-7.2,796.3589,231.41733)"/>
<use data-text="t" xlink:href="#font_2_14" transform="matrix(7.2,0,0,-7.2,799.95889,231.41733)"/>
<use data-text="e" xlink:href="#font_2_10" transform="matrix(7.2,0,0,-7.2,801.95327,231.41733)"/>
<use data-text="d" xlink:href="#font_2_15" transform="matrix(7.2,0,0,-7.2,805.9564,231.41733)"/>
<use data-text="w" xlink:href="#font_2_16" transform="matrix(7.2,0,0,-7.2,811.9612,231.41733)"/>
<use data-text="i" xlink:href="#font_2_17" transform="matrix(7.2,0,0,-7.2,817.1596,231.41733)"/>
<use data-text="n" xlink:href="#font_2_18" transform="matrix(7.2,0,0,-7.2,818.758,231.41733)"/>
<use data-text="%" xlink:href="#font_3_1" transform="matrix(7.2,0,0,-7.2,824.76278,231.41733)"/>
<path stroke-width=".36" stroke-linecap="butt" stroke-miterlimit="3.25" stroke-linejoin="miter" fill="none" stroke="#000000" d="M439.078 228.922H442.957"/>
<use data-text="0" xlink:href="#font_2_1" transform="matrix(7.2,0,0,-7.2,432.91358,231.41733)"/>
<path stroke-width=".36" stroke-linecap="butt" stroke-miterlimit="3.25" stroke-linejoin="miter" fill="none" stroke="#000000" d="M439.078 218.75H441.406"/>
<path stroke-width=".36" stroke-linecap="butt" stroke-miterlimit="3.25" stroke-linejoin="miter" fill="none" stroke="#000000" d="M439.078 208.582H441.406"/>
<path stroke-width=".36" stroke-linecap="butt" stroke-miterlimit="3.25" stroke-linejoin="miter" fill="none" stroke="#000000" d="M439.078 198.41H441.406"/>
<path stroke-width=".36" stroke-linecap="butt" stroke-miterlimit="3.25" stroke-linejoin="miter" fill="none" stroke="#000000" d="M439.078 188.238H442.957"/>
<use data-text="2" xlink:href="#font_2_2" transform="matrix(7.2,0,0,-7.2,428.90928,190.73563)"/>
<use data-text="0" xlink:href="#font_2_1" transform="matrix(7.2,0,0,-7.2,432.91249,190.73563)"/>
<path stroke-width=".36" stroke-linecap="butt" stroke-miterlimit="3.25" stroke-linejoin="miter" fill="none" stroke="#000000" d="M439.078 178.07H441.406"/>
<path stroke-width=".36" stroke-linecap="butt" stroke-miterlimit="3.25" stroke-linejoin="miter" fill="none" stroke="#000000" d="M439.078 167.898H441.406"/>
<path stroke-width=".36" stroke-linecap="butt" stroke-miterlimit="3.25" stroke-linejoin="miter" fill="none" stroke="#000000" d="M439.078 157.727H441.406"/>
<path stroke-width=".36" stroke-linecap="butt" stroke-miterlimit="3.25" stroke-linejoin="miter" fill="none" stroke="#000000" d="M439.078 147.559H442.957"/>
<use data-text="4" xlink:href="#font_2_3" transform="matrix(7.2,0,0,-7.2,428.90928,150.05393)"/>
<use data-text="0" xlink:href="#font_2_1" transform="matrix(7.2,0,0,-7.2,432.91249,150.05393)"/>
<path stroke-width=".36" stroke-linecap="butt" stroke-miterlimit="3.25" stroke-linejoin="miter" fill="none" stroke="#000000" d="M439.078 137.387H441.406"/>
<path stroke-width=".36" stroke-linecap="butt" stroke-miterlimit="3.25" stroke-linejoin="miter" fill="none" stroke="#000000" d="M439.078 127.219H441.406"/>
<path stroke-width=".36" stroke-linecap="butt" stroke-miterlimit="3.25" stroke-linejoin="miter" fill="none" stroke="#000000" d="M439.078 117.047H441.406"/>
<path stroke-width=".36" stroke-linecap="butt" stroke-miterlimit="3.25" stroke-linejoin="miter" fill="none" stroke="#000000" d="M439.078 106.875H442.957"/>
<use data-text="6" xlink:href="#font_2_4" transform="matrix(7.2,0,0,-7.2,428.90928,109.37221)"/>
<use data-text="0" xlink:href="#font_2_1" transform="matrix(7.2,0,0,-7.2,432.91249,109.37221)"/>
<path stroke-width=".36" stroke-linecap="butt" stroke-miterlimit="3.25" stroke-linejoin="miter" fill="none" stroke="#000000" d="M439.078 96.707H441.406"/>
<path stroke-width=".36" stroke-linecap="butt" stroke-miterlimit="3.25" stroke-linejoin="miter" fill="none" stroke="#000000" d="M439.078 86.535H441.406"/>
<path stroke-width=".36" stroke-linecap="butt" stroke-miterlimit="3.25" stroke-linejoin="miter" fill="none" stroke="#000000" d="M439.078 76.363H441.406"/>
<path stroke-width=".36" stroke-linecap="butt" stroke-miterlimit="3.25" stroke-linejoin="miter" fill="none" stroke="#000000" d="M439.078 66.195H442.957"/>
<use data-text="8" xlink:href="#font_2_5" transform="matrix(7.2,0,0,-7.2,428.90928,68.690509)"/>
<use data-text="0" xlink:href="#font_2_1" transform="matrix(7.2,0,0,-7.2,432.91249,68.690509)"/>
<path stroke-width=".36" stroke-linecap="butt" stroke-miterlimit="3.25" stroke-linejoin="miter" fill="none" stroke="#000000" d="M439.078 56.023H441.406"/>
<path stroke-width=".36" stroke-linecap="butt" stroke-miterlimit="3.25" stroke-linejoin="miter" fill="none" stroke="#000000" d="M439.078 45.855H441.406"/>
<path stroke-width=".36" stroke-linecap="butt" stroke-miterlimit="3.25" stroke-linejoin="miter" fill="none" stroke="#000000" d="M439.078 35.684H441.406"/>
<path stroke-width=".36" stroke-linecap="butt" stroke-miterlimit="3.25" stroke-linejoin="miter" fill="none" stroke="#000000" d="M439.078 25.512H442.957"/>
<use data-text="1" xlink:href="#font_2_6" transform="matrix(7.2,0,0,-7.2,424.90498,28.0088)"/>
<use data-text="0" xlink:href="#font_2_1" transform="matrix(7.2,0,0,-7.2,428.90818,28.0088)"/>
<use data-text="0" xlink:href="#font_2_1" transform="matrix(7.2,0,0,-7.2,432.91139,28.0088)"/>
<path stroke-width=".36" stroke-linecap="butt" stroke-miterlimit="3.25" stroke-linejoin="miter" fill="none" stroke="#000000" d="M439.078 228.922V25.512"/>
<g clip-path="url(#clip_5)">
<use data-text="A" xlink:href="#font_2_19" transform="matrix(7.2,0,0,-7.2,418.47456,19.666926)"/>
<use data-text="c" xlink:href="#font_2_11" transform="matrix(7.2,0,0,-7.2,423.26976,19.666926)"/>
<use data-text="t" xlink:href="#font_2_14" transform="matrix(7.2,0,0,-7.2,426.86976,19.666926)"/>
<use data-text="u" xlink:href="#font_2_20" transform="matrix(7.2,0,0,-7.2,428.86415,19.666926)"/>
<use data-text="a" xlink:href="#font_2_12" transform="matrix(7.2,0,0,-7.2,432.86735,19.666926)"/>
<use data-text="l" xlink:href="#font_2_21" transform="matrix(7.2,0,0,-7.2,436.87055,19.666926)"/>
</g>
<use data-text="w" xlink:href="#font_2_16" transform="matrix(7.2,0,0,-7.2,440.48588,19.666926)"/>
<use data-text="i" xlink:href="#font_2_17" transform="matrix(7.2,0,0,-7.2,445.68428,19.666926)"/>
<use data-text="n" xlink:href="#font_2_18" transform="matrix(7.2,0,0,-7.2,447.28266,19.666926)"/>
<use data-text="%" xlink:href="#font_3_1" transform="matrix(7.2,0,0,-7.2,453.28746,19.666926)"/>
<g clip-path="url(#clip_6)">
<path stroke-width=".36" stroke-linecap="butt" stroke-dasharray="2.88,2.88" stroke-miterlimit="3.25" stroke-linejoin="miter" fill="none" stroke="#000000" d="M439.078 228.922 768.199 25.512"/>
</g>
</g>
</svg>
